SILCHImaster.ufo
<glyph name="FullStop" format="1">
  <advance width="573"/>
  <unicode hex="002E"/>
  <outline>
    <contour>
      <point x="311" y="113" type="curve" smooth="yes" name="hr00"/>
      <point x="311" y="188"/>
      <point x="248" y="250"/>
      <point x="172" y="250" type="curve" smooth="yes"/>
      <point x="96" y="250"/>
      <point x="37" y="188"/>
      <point x="37" y="113" type="curve" smooth="yes"/>
      <point x="37" y="37"/>
      <point x="96" y="-25"/>
      <point x="172" y="-25" type="curve" smooth="yes"/>
      <point x="248" y="-25"/>
      <point x="311" y="37"/>
    </contour>
  </outline>
</glyph>
<glyph name="Colon" format="1">
  <advance width="573"/>
  <unicode hex="003A"/>
  <outline>
    <contour>
      <point x="461" y="874" type="curve" smooth="yes" name="hr01"/>
      <point x="461" y="950"/>
      <point x="397" y="1012"/>
      <point x="322" y="1012" type="curve" smooth="yes"/>
      <point x="246" y="1012"/>
      <point x="184" y="950"/>
      <point x="184" y="874" type="curve" smooth="yes"/>
      <point x="184" y="799"/>
      <point x="246" y="737"/>
      <point x="322" y="737" type="curve" smooth="yes"/>
      <point x="397" y="737"/>
      <point x="461" y="799"/>
    </contour>
    <contour>
      <point x="311" y="113" type="curve" smooth="yes" name="hr02"/>
      <point x="311" y="188"/>
      <point x="248" y="250"/>
      <point x="172" y="250" type="curve" smooth="yes"/>
      <point x="96" y="250"/>
      <point x="35" y="188"/>
      <point x="35" y="113" type="curve" smooth="yes"/>
      <point x="35" y="37"/>
      <point x="96" y="-25"/>
      <point x="172" y="-25" type="curve" smooth="yes"/>
      <point x="248" y="-25"/>
      <point x="311" y="37"/>
    </contour>
  </outline>
</glyph>
<glyph name="LtnCapD" format="1">
  <advance width="1374"/>
  <unicode hex="0044"/>
  <outline>
    <contour>
      <point x="1337" y="850" type="curve" smooth="yes" name="hr01"/>
      <point x="1337" y="1239"/>
      <point x="1057" y="1374"/>
      <point x="684" y="1374" type="curve" smooth="yes"/>
      <point x="195" y="1374" type="line"/>
      <point x="195" y="1288" type="line" name="hr02"/>
      <point x="309" y="1278" type="line" smooth="yes"/>
      <point x="346" y="1276"/>
      <point x="354" y="1260"/>
      <point x="350" y="1237" type="curve" smooth="yes"/>
      <point x="137" y="135" type="line"/>
      <point x="131" y="111"/>
      <point x="123" y="98"/>
      <point x="96" y="96" type="curve" smooth="yes"/>
      <point x="-31" y="86" type="line"/>
      <point x="-31" y="0" type="line" name="hr03"/>
      <point x="451" y="0" type="line" smooth="yes"/>
      <point x="975" y="0"/>
      <point x="1337" y="346"/>
    </contour>
    <contour>
      <point x="1116" y="868" type="curve" smooth="yes"/>
      <point x="1116" y="479"/>
      <point x="901" y="111"/>
      <point x="487" y="106" type="curve"/>
      <point x="338" y="106" type="line"/>
      <point x="563" y="1272" type="line"/>
      <point x="637" y="1272" type="line"/>
      <point x="891" y="1264"/>
      <point x="1116" y="1210"/>
    </contour>
    <contour>
      <point x="815" y="1500" type="move" name="U"/>
    </contour>
    <contour>
      <point x="527" y="-100" type="move" name="L"/>
    </contour>
  </outline>
</glyph>
<glyph name="LtnCapL" format="1">
  <advance width="1061"/>
  <unicode hex="004C"/>
  <outline>
    <contour>
      <point x="989" y="379" type="line" name="hr01"/>
      <point x="868" y="379" type="line"/>
      <point x="795" y="143" type="line" smooth="yes"/>
      <point x="786" y="119"/>
      <point x="770" y="102"/>
      <point x="743" y="102" type="curve" smooth="yes"/>
      <point x="340" y="102" type="line"/>
      <point x="557" y="1237" type="line" smooth="yes"/>
      <point x="561" y="1257"/>
      <point x="578" y="1276"/>
      <point x="608" y="1278" type="curve" smooth="yes"/>
      <point x="729" y="1288" type="line"/>
      <point x="729" y="1374" type="line"/>
      <point x="197" y="1374" type="line"/>
      <point x="197" y="1288" type="line"/>
      <point x="311" y="1278" type="line" smooth="yes"/>
      <point x="346" y="1276"/>
      <point x="354" y="1260"/>
      <point x="350" y="1237" type="curve" smooth="yes"/>
      <point x="137" y="135" type="line" smooth="yes" name="hr02"/>
      <point x="133" y="111"/>
      <point x="115" y="98"/>
      <point x="88" y="96" type="curve" smooth="yes"/>
      <point x="-31" y="86" type="line"/>
      <point x="-31" y="0" type="line" name="hr03"/>
      <point x="915" y="0" type="line"/>
    </contour>
    <contour>
      <point x="694" y="1500" type="move" name="U"/>
    </contour>
    <contour>
      <point x="406" y="-100" type="move" name="L"/>
    </contour>
    <contour>
      <point x="561" y="1000" type="move" name="R"/>
    </contour>
    <contour>
      <point x="426" y="0" type="move" name="H"/>
    </contour>
  </outline>
</glyph>
<glyph name="LtnCapU" format="1">
  <advance width="1448"/>
  <unicode hex="0055"/>
  <outline>
    <contour>
      <point x="1534" y="1288" type="line" name="hr00"/>
      <point x="1534" y="1374" type="line"/>
      <point x="1071" y="1374" type="line"/>
      <point x="1071" y="1288" type="line"/>
      <point x="1186" y="1278" type="line" smooth="yes"/>
      <point x="1223" y="1276"/>
      <point x="1231" y="1260"/>
      <point x="1227" y="1237" type="curve" smooth="yes"/>
      <point x="1083" y="510" type="line" smooth="yes"/>
      <point x="1040" y="291"/>
      <point x="956" y="100"/>
      <point x="690" y="100" type="curve" smooth="yes"/>
      <point x="514" y="100"/>
      <point x="401" y="186"/>
      <point x="401" y="358" type="curve" smooth="yes"/>
      <point x="401" y="395"/>
      <point x="408" y="461"/>
      <point x="424" y="541" type="curve" smooth="yes"/>
      <point x="565" y="1237" type="line"/>
      <point x="569" y="1264"/>
      <point x="590" y="1276"/>
      <point x="614" y="1278" type="curve" smooth="yes"/>
      <point x="735" y="1288" type="line"/>
      <point x="735" y="1374" type="line"/>
      <point x="203" y="1374" type="line"/>
      <point x="203" y="1288" type="line"/>
      <point x="317" y="1278" type="line" smooth="yes"/>
      <point x="354" y="1276"/>
      <point x="362" y="1260"/>
      <point x="358" y="1237" type="curve" smooth="yes"/>
      <point x="215" y="541" type="line" smooth="yes"/>
      <point x="197" y="446"/>
      <point x="188" y="367"/>
      <point x="188" y="326" type="curve" smooth="yes"/>
      <point x="188" y="66"/>
      <point x="385" y="-33"/>
      <point x="637" y="-33" type="curve" smooth="yes"/>
      <point x="963" y="-33"/>
      <point x="1151" y="141"/>
      <point x="1208" y="438" type="curve" smooth="yes"/>
      <point x="1366" y="1237" type="line" smooth="yes"/>
      <point x="1370" y="1264"/>
      <point x="1391" y="1276"/>
      <point x="1415" y="1278" type="curve" smooth="yes"/>
    </contour>
    <contour>
      <point x="900" y="1500" type="move" name="U"/>
    </contour>
    <contour>
      <point x="612" y="-100" type="move" name="L"/>
    </contour>
    <contour>
      <point x="1490" y="1200" type="move" name="R"/>
    </contour>
    <contour>
      <point x="908" y="0" type="move" name="O"/>
    </contour>
    <contour>
      <point x="615" y="0" type="move" name="H"/>
    </contour>
  </outline>
</glyph>
<glyph name="LtnCapW" format="1">
  <advance width="1898"/>
  <unicode hex="0057"/>
  <outline>
    <contour>
      <point x="2048" y="1288" type="line" name="hr01"/>
      <point x="2048" y="1374" type="line" name="hr02"/>
      <point x="1620" y="1374" type="line"/>
      <point x="1620" y="1288" type="line"/>
      <point x="1712" y="1284" type="line" smooth="yes"/>
      <point x="1749" y="1282"/>
      <point x="1763" y="1268"/>
      <point x="1751" y="1243" type="curve" smooth="yes"/>
      <point x="1335" y="340" type="line"/>
      <point x="1231" y="1374" type="line"/>
      <point x="1065" y="1374" type="line"/>
      <point x="584" y="354" type="line"/>
      <point x="512" y="1243" type="line"/>
      <point x="512" y="1268"/>
      <point x="522" y="1282"/>
      <point x="553" y="1284" type="curve" smooth="yes"/>
      <point x="643" y="1288" type="line"/>
      <point x="643" y="1374" type="line"/>
      <point x="170" y="1374" type="line"/>
      <point x="170" y="1288" type="line"/>
      <point x="256" y="1284" type="line" smooth="yes"/>
      <point x="291" y="1282"/>
      <point x="303" y="1270"/>
      <point x="305" y="1243" type="curve" smooth="yes"/>
      <point x="408" y="-33" type="line"/>
      <point x="551" y="-33" type="line"/>
      <point x="1063" y="1061" type="line"/>
      <point x="1182" y="-33" type="line"/>
      <point x="1313" y="-33" type="line"/>
      <point x="1927" y="1276" type="line" name="hr03"/>
    </contour>
    <contour>
      <point x="1153" y="1500" type="move" name="U"/>
    </contour>
    <contour>
      <point x="855" y="-100" type="move" name="L"/>
    </contour>
  </outline>
</glyph>
<glyph name="LtnCapY" format="1">
  <advance width="1309"/>
  <unicode hex="0059"/>
  <outline>
    <contour>
      <point x="1456" y="1288" type="line" name="hr00"/>
      <point x="1456" y="1374" type="line"/>
      <point x="963" y="1374" type="line"/>
      <point x="963" y="1288" type="line"/>
      <point x="1090" y="1280" type="line" smooth="yes"/>
      <point x="1124" y="1278"/>
      <point x="1118" y="1257"/>
      <point x="1106" y="1239" type="curve" smooth="yes"/>
      <point x="711" y="707" type="line"/>
      <point x="543" y="1239" type="line" smooth="yes"/>
      <point x="535" y="1262"/>
      <point x="549" y="1278"/>
      <point x="571" y="1280" type="curve" smooth="yes"/>
      <point x="702" y="1288" type="line"/>
      <point x="702" y="1374" type="line"/>
      <point x="172" y="1374" type="line"/>
      <point x="172" y="1288" type="line"/>
      <point x="287" y="1280" type="line" smooth="yes"/>
      <point x="301" y="1278"/>
      <point x="317" y="1276"/>
      <point x="326" y="1249" type="curve" smooth="yes"/>
      <point x="555" y="557" type="line"/>
      <point x="471" y="135" type="line" smooth="yes"/>
      <point x="465" y="111"/>
      <point x="446" y="98"/>
      <point x="422" y="96" type="curve" smooth="yes"/>
      <point x="303" y="86" type="line"/>
      <point x="303" y="0" type="line"/>
      <point x="836" y="0" type="line"/>
      <point x="836" y="86" type="line"/>
      <point x="721" y="96" type="line" smooth="yes"/>
      <point x="686" y="98"/>
      <point x="676" y="115"/>
      <point x="682" y="135" type="curve"/>
      <point x="768" y="575" type="line"/>
      <point x="1288" y="1249" type="line"/>
      <point x="1298" y="1260"/>
      <point x="1321" y="1278"/>
      <point x="1341" y="1280" type="curve" smooth="yes"/>
    </contour>
    <contour>
      <point x="828" y="1500" type="move" name="U"/>
    </contour>
    <contour>
      <point x="540" y="-100" type="move" name="L"/>
    </contour>
  </outline>
</glyph>
<glyph name="LftSqrBrac" format="1">
  <advance width="862"/>
  <unicode hex="005B"/>
  <outline>
    <contour>
      <point x="965" y="1354" type="line" name="hr00"/>
      <point x="965" y="1450" type="line"/>
      <point x="455" y="1450" type="line"/>
      <point x="111" y="-270" type="line"/>
      <point x="639" y="-270" type="line"/>
      <point x="639" y="-174" type="line"/>
      <point x="326" y="-174" type="line"/>
      <point x="631" y="1354" type="line"/>
    </contour>
  </outline>
</glyph>
<glyph name="RtSqrBrac" format="1">
  <advance width="862"/>
  <unicode hex="005D"/>
  <outline>
    <contour>
      <point x="770" y="1450" type="line" name="hr00"/>
      <point x="242" y="1450" type="line"/>
      <point x="242" y="1356" type="line"/>
      <point x="555" y="1356" type="line"/>
      <point x="252" y="-172" type="line"/>
      <point x="-84" y="-172" type="line"/>
      <point x="-84" y="-270" type="line"/>
      <point x="426" y="-270" type="line"/>
    </contour>
  </outline>
</glyph>
<glyph name="LowLine" format="1">
  <advance width="622"/>
  <unicode hex="005F"/>
  <outline>
    <contour>
      <point x="488" y="-180" type="line" name="hr00"/>
      <point x="-131" y="-180" type="line"/>
      <point x="-160" y="-315" type="line"/>
      <point x="462" y="-315" type="line"/>
    </contour>
  </outline>
</glyph>
<glyph name="LtnSmE" format="1">
  <advance width="889"/>
  <unicode hex="0065"/>
  <outline>
    <contour>
      <point x="854" y="805" type="curve" smooth="yes" name="hr00"/>
      <point x="854" y="864"/>
      <point x="795" y="1010"/>
      <point x="606" y="1010" type="curve" smooth="yes"/>
      <point x="313" y="1010"/>
      <point x="66" y="672"/>
      <point x="66" y="348" type="curve" smooth="yes"/>
      <point x="66" y="37"/>
      <point x="266" y="-25"/>
      <point x="391" y="-25" type="curve" smooth="yes"/>
      <point x="578" y="-25"/>
      <point x="731" y="94"/>
      <point x="807" y="168" type="curve"/>
      <point x="807" y="297" type="line"/>
      <point x="657" y="166"/>
      <point x="551" y="98"/>
      <point x="459" y="98" type="curve" smooth="yes"/>
      <point x="340" y="98"/>
      <point x="264" y="207"/>
      <point x="264" y="356" type="curve" smooth="yes"/>
      <point x="264" y="381"/>
      <point x="268" y="424"/>
      <point x="272" y="451" type="curve"/>
      <point x="516" y="465"/>
      <point x="854" y="582"/>
    </contour>
    <contour>
      <point x="672" y="807" type="curve" smooth="yes"/>
      <point x="672" y="662"/>
      <point x="455" y="545"/>
      <point x="281" y="528" type="curve"/>
      <point x="317" y="684"/>
      <point x="426" y="915"/>
      <point x="561" y="915" type="curve" smooth="yes"/>
      <point x="629" y="915"/>
      <point x="672" y="860"/>
    </contour>
    <contour>
      <point x="600" y="1100" type="move" name="U"/>
    </contour>
    <contour>
      <point x="396" y="-100" type="move" name="L"/>
    </contour>
    <contour>
      <point x="889" y="1000" type="move" name="R"/>
    </contour>
    <contour>
      <point x="569" y="0" type="move" name="O"/>
    </contour>
    <contour>
      <point x="377" y="0" type="move" name="H"/>
    </contour>
  </outline>
</glyph>
<glyph name="LtnSmI" format="1">
  <advance width="545"/>
  <unicode hex="0069"/>
  <outline>
    <contour>
      <point x="530" y="1313" type="curve" smooth="yes" name="hr00"/>
      <point x="530" y="1370"/>
      <point x="485" y="1427"/>
      <point x="408" y="1427" type="curve" smooth="yes"/>
      <point x="326" y="1427"/>
      <point x="279" y="1366"/>
      <point x="279" y="1313" type="curve" smooth="yes"/>
      <point x="279" y="1249"/>
      <point x="322" y="1198"/>
      <point x="406" y="1198" type="curve" smooth="yes"/>
      <point x="485" y="1198"/>
      <point x="530" y="1253"/>
    </contour>
    <contour>
      <point x="539" y="59" type="curve"/>
      <point x="539" y="137" type="line"/>
      <point x="512" y="129"/>
      <point x="418" y="88"/>
      <point x="371" y="88" type="curve" smooth="yes"/>
      <point x="315" y="88"/>
      <point x="281" y="137"/>
      <point x="291" y="193" type="curve" smooth="yes"/>
      <point x="446" y="1012" type="line"/>
      <point x="362" y="1012" type="line"/>
      <point x="53" y="948" type="line"/>
      <point x="53" y="889" type="line"/>
      <point x="229" y="870" type="line"/>
      <point x="98" y="176" type="line" smooth="yes"/>
      <point x="80" y="82"/>
      <point x="100" y="-25"/>
      <point x="240" y="-25" type="curve" smooth="yes"/>
      <point x="352" y="-25"/>
      <point x="508" y="45"/>
    </contour>
    <contour>
      <point x="418" y="1100" type="move" name="U"/>
    </contour>
    <contour>
      <point x="181" y="-100" type="move" name="L"/>
    </contour>
    <contour>
      <point x="545" y="1000" type="move" name="R"/>
    </contour>
    <contour>
      <point x="408" y="0" type="move" name="O"/>
    </contour>
    <contour>
      <point x="194" y="0" type="move" name="H"/>
    </contour>
  </outline>
</glyph>
<glyph name="YenSgn" format="1">
  <advance width="1139"/>
  <unicode hex="00A5"/>
  <outline>
    <contour>
      <point x="1309" y="1272" type="line" name="hr01"/>
      <point x="1309" y="1360" type="line"/>
      <point x="899" y="1360" type="line"/>
      <point x="899" y="1272" type="line"/>
      <point x="989" y="1251" type="line" smooth="yes"/>
      <point x="1022" y="1245"/>
      <point x="1012" y="1227"/>
      <point x="1001" y="1212" type="curve" smooth="yes"/>
      <point x="623" y="721" type="line"/>
      <point x="463" y="1223" type="line" smooth="yes" name="hr02"/>
      <point x="457" y="1241"/>
      <point x="465" y="1257"/>
      <point x="483" y="1260" type="curve" smooth="yes"/>
      <point x="602" y="1270" type="line"/>
      <point x="602" y="1360" type="line"/>
      <point x="127" y="1360" type="line"/>
      <point x="127" y="1274" type="line"/>
      <point x="238" y="1249" type="line"/>
      <point x="360" y="864" type="line"/>
      <point x="117" y="864" type="line"/>
      <point x="117" y="772" type="line"/>
      <point x="399" y="772" type="line"/>
      <point x="465" y="573" type="line"/>
      <point x="57" y="573" type="line"/>
      <point x="57" y="479" type="line"/>
      <point x="449" y="479" type="line"/>
      <point x="385" y="137" type="line"/>
      <point x="381" y="106"/>
      <point x="340" y="98"/>
      <point x="309" y="94" type="curve" smooth="yes"/>
      <point x="274" y="90"/>
      <point x="229" y="92"/>
      <point x="190" y="90" type="curve"/>
      <point x="190" y="0" type="line"/>
      <point x="745" y="0" type="line"/>
      <point x="745" y="90" type="line"/>
      <point x="608" y="100" type="line"/>
      <point x="578" y="104"/>
      <point x="580" y="125"/>
      <point x="582" y="137" type="curve" smooth="yes"/>
      <point x="645" y="479" type="line"/>
      <point x="1069" y="479" type="line"/>
      <point x="1069" y="573" type="line"/>
      <point x="662" y="573" type="line"/>
      <point x="811" y="772" type="line"/>
      <point x="1128" y="772" type="line"/>
      <point x="1128" y="864" type="line"/>
      <point x="893" y="864" type="line"/>
      <point x="1184" y="1245" type="line" name="hr03"/>
    </contour>
  </outline>
</glyph>
<glyph name="LftPtngDblAngQuotMrk" format="1">
  <advance width="833"/>
  <unicode hex="00AB"/>
  <outline>
    <contour>
      <point x="254" y="0" type="line" name="hr00"/>
      <point x="346" y="0" type="line"/>
      <point x="212" y="493" type="line"/>
      <point x="546" y="987" type="line"/>
      <point x="454" y="987" type="line"/>
      <point x="61" y="544" type="line"/>
      <point x="40" y="441" type="line"/>
    </contour>
    <contour>
      <point x="604" y="0" type="line"/>
      <point x="696" y="0" type="line"/>
      <point x="561" y="493" type="line"/>
      <point x="896" y="987" type="line"/>
      <point x="804" y="987" type="line"/>
      <point x="410" y="544" type="line"/>
      <point x="389" y="441" type="line"/>
    </contour>
  </outline>
</glyph>
<glyph name="RegisteredSgn" format="1">
  <advance width="1714"/>
  <unicode hex="00AE"/>
  <outline>
    <contour>
      <point x="1686" y="717" type="curve" smooth="yes" name="hr01"/>
      <point x="1686" y="1155"/>
      <point x="1329" y="1509"/>
      <point x="899" y="1509" type="curve" smooth="yes"/>
      <point x="463" y="1509"/>
      <point x="111" y="1153"/>
      <point x="111" y="717" type="curve" smooth="yes"/>
      <point x="111" y="281"/>
      <point x="465" y="-74"/>
      <point x="895" y="-74" type="curve" smooth="yes"/>
      <point x="1333" y="-74"/>
      <point x="1686" y="281"/>
    </contour>
    <contour>
      <point x="1597" y="717" type="curve" smooth="yes"/>
      <point x="1597" y="332"/>
      <point x="1284" y="12"/>
      <point x="897" y="12" type="curve" smooth="yes"/>
      <point x="510" y="12"/>
      <point x="199" y="330"/>
      <point x="199" y="713" type="curve" smooth="yes"/>
      <point x="199" y="1112"/>
      <point x="516" y="1423"/>
      <point x="899" y="1423" type="curve" smooth="yes"/>
      <point x="1284" y="1423"/>
      <point x="1597" y="1108"/>
    </contour>
    <contour>
      <point x="1407" y="291" type="curve" name="hr02"/>
      <point x="1407" y="346" type="line"/>
      <point x="1047" y="346"/>
      <point x="1307" y="655"/>
      <point x="983" y="727" type="curve"/>
      <point x="1108" y="754"/>
      <point x="1223" y="811"/>
      <point x="1223" y="950" type="curve" smooth="yes"/>
      <point x="1223" y="1126"/>
      <point x="1087" y="1188"/>
      <point x="864" y="1188" type="curve" smooth="yes"/>
      <point x="483" y="1188" type="line"/>
      <point x="483" y="1130" type="line"/>
      <point x="561" y="1124" type="line" smooth="yes"/>
      <point x="582" y="1122"/>
      <point x="592" y="1108"/>
      <point x="592" y="1096" type="curve" smooth="yes"/>
      <point x="592" y="383" type="line" smooth="yes" name="hr03"/>
      <point x="592" y="371"/>
      <point x="582" y="356"/>
      <point x="561" y="354" type="curve" smooth="yes"/>
      <point x="483" y="348" type="line"/>
      <point x="483" y="291" type="line"/>
      <point x="846" y="291" type="line"/>
      <point x="846" y="348" type="line"/>
      <point x="768" y="354" type="line" smooth="yes"/>
      <point x="745" y="356"/>
      <point x="737" y="371"/>
      <point x="737" y="383" type="curve" smooth="yes"/>
      <point x="737" y="688" type="line"/>
      <point x="741" y="688"/>
      <point x="774" y="690"/>
      <point x="805" y="690" type="curve" smooth="yes"/>
      <point x="1165" y="690"/>
      <point x="924" y="281"/>
      <point x="1288" y="281" type="curve" smooth="yes" name="hr04"/>
      <point x="1331" y="281"/>
      <point x="1395" y="289"/>
    </contour>
    <contour>
      <point x="1063" y="944" type="curve" smooth="yes"/>
      <point x="1063" y="801"/>
      <point x="975" y="754"/>
      <point x="813" y="754" type="curve" smooth="yes" name="hr05"/>
      <point x="791" y="754"/>
      <point x="741" y="756"/>
      <point x="737" y="756" type="curve"/>
      <point x="737" y="1124" type="line"/>
      <point x="741" y="1124"/>
      <point x="807" y="1124"/>
      <point x="807" y="1124" type="curve"/>
      <point x="991" y="1124"/>
      <point x="1063" y="1057"/>
    </contour>
  </outline>
</glyph>
<glyph name="PilcrowSgn" format="1">
  <advance width="995"/>
  <unicode hex="00B6"/>
  <outline>
    <contour>
      <point x="989" y="1300" type="line" name="hr00"/>
      <point x="989" y="1374" type="line"/>
      <point x="586" y="1374" type="line" smooth="yes"/>
      <point x="281" y="1374"/>
      <point x="104" y="1274"/>
      <point x="104" y="973" type="curve" smooth="yes"/>
      <point x="104" y="655"/>
      <point x="311" y="575"/>
      <point x="606" y="575" type="curve"/>
      <point x="606" y="1290" type="line"/>
      <point x="764" y="1290" type="line"/>
      <point x="764" y="-162" type="line"/>
      <point x="862" y="-162" type="line"/>
      <point x="862" y="1280" type="line"/>
    </contour>
  </outline>
</glyph>
<glyph name="LtnCapAe" format="1">
  <advance width="1917"/>
  <unicode hex="00C6"/>
  <outline>
    <contour>
      <point x="1962" y="1374" type="line" name="hr01"/>
      <point x="819" y="1374" type="line"/>
      <point x="819" y="1288" type="line" name="hr02"/>
      <point x="934" y="1278" type="line" smooth="yes"/>
      <point x="950" y="1276"/>
      <point x="954" y="1253"/>
      <point x="940" y="1237" type="curve" smooth="yes"/>
      <point x="41" y="135" type="line" smooth="yes"/>
      <point x="23" y="115"/>
      <point x="8" y="98"/>
      <point x="-10" y="96" type="curve" smooth="yes"/>
      <point x="-109" y="86" type="line"/>
      <point x="-109" y="0" type="line" name="hr03"/>
      <point x="358" y="0" type="line"/>
      <point x="358" y="86" type="line" name="hr04"/>
      <point x="270" y="96" type="line" smooth="yes"/>
      <point x="236" y="100"/>
      <point x="217" y="119"/>
      <point x="231" y="135" type="curve" smooth="yes"/>
      <point x="547" y="518" type="line"/>
      <point x="1008" y="518" type="line"/>
      <point x="932" y="135" type="line" smooth="yes"/>
      <point x="930" y="121"/>
      <point x="918" y="98"/>
      <point x="893" y="96" type="curve" smooth="yes"/>
      <point x="768" y="86" type="line"/>
      <point x="768" y="0" type="line" name="hr05"/>
      <point x="1769" y="0" type="line"/>
      <point x="1835" y="340" type="line"/>
      <point x="1710" y="340" type="line"/>
      <point x="1647" y="143" type="line" smooth="yes"/>
      <point x="1638" y="119"/>
      <point x="1624" y="102"/>
      <point x="1597" y="102" type="curve" smooth="yes"/>
      <point x="1135" y="102" type="line"/>
      <point x="1243" y="662" type="line"/>
      <point x="1497" y="662" type="line" smooth="yes"/>
      <point x="1526" y="662"/>
      <point x="1540" y="647"/>
      <point x="1536" y="621" type="curve" smooth="yes"/>
      <point x="1518" y="475" type="line"/>
      <point x="1632" y="475" type="line"/>
      <point x="1724" y="944" type="line"/>
      <point x="1608" y="944" type="line"/>
      <point x="1569" y="807" type="line" smooth="yes"/>
      <point x="1561" y="778"/>
      <point x="1548" y="768"/>
      <point x="1520" y="768" type="curve" smooth="yes"/>
      <point x="1264" y="768" type="line"/>
      <point x="1362" y="1272" type="line"/>
      <point x="1731" y="1272" type="line" smooth="yes"/>
      <point x="1761" y="1272"/>
      <point x="1769" y="1262"/>
      <point x="1769" y="1233" type="curve" smooth="yes"/>
      <point x="1769" y="1067" type="line"/>
      <point x="1901" y="1067" type="line"/>
    </contour>
    <contour>
      <point x="1149" y="1253" type="line"/>
      <point x="1028" y="627" type="line"/>
      <point x="633" y="627" type="line"/>
    </contour>
    <contour>
      <point x="1269" y="1500" type="move" name="U"/>
    </contour>
    <contour>
      <point x="981" y="-100" type="move" name="L"/>
    </contour>
  </outline>
</glyph>
<glyph name="MultSgn" format="1">
  <advance width="2048"/>
  <unicode hex="00D7"/>
  <outline>
    <contour>
      <point x="1577" y="141" type="line" name="hr00"/>
      <point x="1106" y="614" type="line"/>
      <point x="1577" y="1087" type="line"/>
      <point x="1497" y="1167" type="line"/>
      <point x="1024" y="692" type="line"/>
      <point x="551" y="1167" type="line"/>
      <point x="471" y="1087" type="line"/>
      <point x="942" y="614" type="line"/>
      <point x="471" y="141" type="line"/>
      <point x="551" y="61" type="line"/>
      <point x="1024" y="537" type="line"/>
      <point x="1497" y="61" type="line"/>
    </contour>
  </outline>
</glyph>
<glyph name="LtnSmDCaron" format="1">
  <advance width="1386"/>
  <unicode hex="010F"/>
  <outline>
    <contour>
      <point x="1083" y="1509" type="line" name="hr01"/>
      <point x="999" y="1509" type="line"/>
      <point x="682" y="1448" type="line"/>
      <point x="682" y="1386" type="line"/>
      <point x="868" y="1368" type="line"/>
      <point x="799" y="973" type="line"/>
      <point x="764" y="985"/>
      <point x="707" y="1012"/>
      <point x="645" y="1012" type="curve" smooth="yes"/>
      <point x="283" y="1012"/>
      <point x="66" y="668"/>
      <point x="66" y="342" type="curve" smooth="yes"/>
      <point x="66" y="170"/>
      <point x="129" y="-25"/>
      <point x="358" y="-25" type="curve" smooth="yes"/>
      <point x="473" y="-25"/>
      <point x="578" y="53"/>
      <point x="649" y="129" type="curve"/>
      <point x="649" y="39"/>
      <point x="678" y="-25"/>
      <point x="803" y="-25" type="curve" smooth="yes"/>
      <point x="887" y="-25"/>
      <point x="1038" y="33"/>
      <point x="1071" y="45" type="curve"/>
      <point x="1071" y="121" type="line" name="hr02"/>
      <point x="1053" y="117"/>
      <point x="944" y="82"/>
      <point x="924" y="82" type="curve" smooth="yes"/>
      <point x="905" y="82"/>
      <point x="836" y="100"/>
      <point x="850" y="176" type="curve" smooth="yes"/>
    </contour>
    <contour>
      <point x="770" y="807" type="curve"/>
      <point x="676" y="268" type="line"/>
      <point x="602" y="182"/>
      <point x="498" y="100"/>
      <point x="424" y="100" type="curve" smooth="yes" name="hr03"/>
      <point x="344" y="100"/>
      <point x="264" y="178"/>
      <point x="264" y="354" type="curve" smooth="yes"/>
      <point x="264" y="674"/>
      <point x="442" y="920"/>
      <point x="641" y="920" type="curve" smooth="yes"/>
      <point x="694" y="920"/>
      <point x="772" y="819"/>
    </contour>
    <contour>
      <point x="1421" y="1425" type="curve" smooth="yes" name="hr05"/>
      <point x="1421" y="1499"/>
      <point x="1384" y="1548"/>
      <point x="1308" y="1548" type="curve" smooth="yes"/>
      <point x="1243" y="1548"/>
      <point x="1183" y="1499"/>
      <point x="1183" y="1432" type="curve" smooth="yes"/>
      <point x="1183" y="1413"/>
      <point x="1188" y="1391"/>
      <point x="1200" y="1376" type="curve" name="hr06"/>
      <point x="1308" y="1376" type="line"/>
      <point x="1286" y="1260"/>
      <point x="1245" y="1231"/>
      <point x="1134" y="1196" type="curve"/>
      <point x="1122" y="1128" type="line"/>
      <point x="1276" y="1157"/>
      <point x="1421" y="1253"/>
    </contour>
    <contour>
      <point x="479" y="0" type="move" name="H"/>
    </contour>
    <contour>
      <point x="772" y="1540" type="move" name="U"/>
    </contour>
    <contour>
      <point x="459" y="-100" type="move" name="L"/>
    </contour>
  </outline>
</glyph>
<glyph name="LtnCapDStrk" format="1">
  <advance width="1374"/>
  <unicode hex="0110"/>
  <outline>
    <contour>
      <point x="59" y="668" type="line" name="hr00"/>
      <point x="711" y="668" type="line"/>
      <point x="711" y="776" type="line"/>
      <point x="59" y="776" type="line"/>
    </contour>
    <contour>
      <point x="820" y="1500" type="move" name="U"/>
    </contour>
    <contour>
      <point x="532" y="-100" type="move" name="L"/>
    </contour>
    <component base="LtnCapD"/>
  </outline>
</glyph>
<glyph name="LtnSmEOgonek" format="1">
  <advance width="889"/>
  <unicode hex="0119"/>
  <outline>
    <contour>
      <point x="569" y="-311" type="line" name="hr00"/>
      <point x="544" y="-317"/>
      <point x="520" y="-322"/>
      <point x="493" y="-322" type="curve" smooth="yes"/>
      <point x="448" y="-322"/>
      <point x="411" y="-301"/>
      <point x="411" y="-252" type="curve" smooth="yes"/>
      <point x="411" y="-147"/>
      <point x="523" y="-20"/>
      <point x="662" y="56" type="curve"/>
      <point x="465" y="0" type="line"/>
      <point x="370" y="-68"/>
      <point x="272" y="-186"/>
      <point x="272" y="-307" type="curve" smooth="yes"/>
      <point x="272" y="-408"/>
      <point x="352" y="-442"/>
      <point x="440" y="-442" type="curve" smooth="yes"/>
      <point x="477" y="-442"/>
      <point x="516" y="-436"/>
      <point x="551" y="-428" type="curve"/>
    </contour>
    <contour>
      <point x="622" y="1100" type="move" name="U"/>
    </contour>
    <contour>
      <point x="302" y="-500" type="move" name="L"/>
    </contour>
    <component base="LtnSmE"/>
  </outline>
</glyph>
<glyph name="LtnCapEng" format="1">
  <advance width="1485"/>
  <unicode hex="014A"/>
  <outline>
    <contour>
      <point x="1411" y="1049" type="curve" smooth="yes" name="hr01"/>
      <point x="1411" y="1264"/>
      <point x="1214" y="1407"/>
      <point x="1030" y="1407" type="curve" smooth="yes" name="hr02"/>
      <point x="838" y="1407"/>
      <point x="668" y="1309"/>
      <point x="537" y="1128" type="curve"/>
      <point x="584" y="1374" type="line" name="hr03"/>
      <point x="195" y="1374" type="line"/>
      <point x="195" y="1288" type="line"/>
      <point x="309" y="1278" type="line" smooth="yes"/>
      <point x="346" y="1276"/>
      <point x="354" y="1260"/>
      <point x="350" y="1237" type="curve" smooth="yes"/>
      <point x="137" y="135" type="line" smooth="yes"/>
      <point x="133" y="111"/>
      <point x="115" y="98"/>
      <point x="88" y="96" type="curve" smooth="yes"/>
      <point x="-31" y="86" type="line"/>
      <point x="-31" y="0" type="line"/>
      <point x="504" y="0" type="line"/>
      <point x="504" y="86" type="line"/>
      <point x="385" y="96" type="line" smooth="yes"/>
      <point x="350" y="98"/>
      <point x="340" y="115"/>
      <point x="344" y="135" type="curve" smooth="yes"/>
      <point x="502" y="948" type="line"/>
      <point x="553" y="1038"/>
      <point x="782" y="1257"/>
      <point x="940" y="1257" type="curve" smooth="yes" name="hr04"/>
      <point x="1096" y="1257"/>
      <point x="1227" y="1143"/>
      <point x="1196" y="979" type="curve" smooth="yes"/>
      <point x="997" y="-90" type="line" smooth="yes"/>
      <point x="971" y="-231"/>
      <point x="950" y="-328"/>
      <point x="805" y="-354" type="curve"/>
      <point x="653" y="-180" type="line"/>
      <point x="596" y="-180"/>
      <point x="537" y="-268"/>
      <point x="537" y="-338" type="curve" smooth="yes"/>
      <point x="537" y="-416"/>
      <point x="647" y="-469"/>
      <point x="725" y="-469" type="curve" smooth="yes"/>
      <point x="1022" y="-469"/>
      <point x="1155" y="-362"/>
      <point x="1204" y="-90" type="curve"/>
      <point x="1405" y="979" type="line" smooth="yes"/>
      <point x="1409" y="1004"/>
      <point x="1411" y="1026"/>
    </contour>
    <contour>
      <point x="948" y="1500" type="move" name="U"/>
    </contour>
    <contour>
      <point x="584" y="-500" type="move" name="L"/>
    </contour>
  </outline>
</glyph>
<glyph name="LtnCapBHook" format="1">
  <advance width="1286"/>
  <unicode hex="0181"/>
  <outline>
    <contour>
      <point x="1219" y="1112" type="curve" smooth="yes" name="hr01"/>
      <point x="1219" y="1270"/>
      <point x="1110" y="1374"/>
      <point x="815" y="1374" type="curve" smooth="yes"/>
      <point x="289" y="1374" type="line" smooth="yes"/>
      <point x="186" y="1374"/>
      <point x="8" y="1290"/>
      <point x="8" y="1126" type="curve" smooth="yes"/>
      <point x="8" y="1071"/>
      <point x="49" y="1014"/>
      <point x="106" y="1014" type="curve" smooth="yes"/>
      <point x="145" y="1014"/>
      <point x="199" y="1038"/>
      <point x="246" y="1081" type="curve"/>
      <point x="190" y="1225" type="line" name="hr02"/>
      <point x="190" y="1225"/>
      <point x="213" y="1266"/>
      <point x="285" y="1266" type="curve" smooth="yes"/>
      <point x="348" y="1266" type="line" smooth="yes"/>
      <point x="385" y="1266"/>
      <point x="393" y="1245"/>
      <point x="389" y="1225" type="curve" smooth="yes"/>
      <point x="182" y="135" type="line"/>
      <point x="176" y="111"/>
      <point x="168" y="98"/>
      <point x="141" y="96" type="curve" smooth="yes"/>
      <point x="14" y="86" type="line"/>
      <point x="14" y="0" type="line"/>
      <point x="575" y="0" type="line" smooth="yes"/>
      <point x="918" y="0"/>
      <point x="1180" y="123"/>
      <point x="1180" y="459" type="curve" smooth="yes"/>
      <point x="1180" y="637"/>
      <point x="1055" y="707"/>
      <point x="879" y="731" type="curve"/>
      <point x="1065" y="793"/>
      <point x="1219" y="901"/>
    </contour>
    <contour>
      <point x="993" y="1098" type="curve" smooth="yes"/>
      <point x="993" y="913"/>
      <point x="862" y="756"/>
      <point x="604" y="756" type="curve" smooth="yes"/>
      <point x="588" y="756"/>
      <point x="539" y="758"/>
      <point x="510" y="760" type="curve"/>
      <point x="608" y="1280" type="line"/>
      <point x="631" y="1282"/>
      <point x="672" y="1286"/>
      <point x="713" y="1286" type="curve" smooth="yes"/>
      <point x="887" y="1286"/>
      <point x="993" y="1227"/>
    </contour>
    <contour>
      <point x="956" y="438" type="curve" smooth="yes" name="hr04"/>
      <point x="956" y="221"/>
      <point x="801" y="92"/>
      <point x="508" y="92" type="curve" smooth="yes"/>
      <point x="473" y="92"/>
      <point x="414" y="96"/>
      <point x="383" y="98" type="curve"/>
      <point x="489" y="655" type="line"/>
      <point x="535" y="662"/>
      <point x="590" y="666"/>
      <point x="641" y="666" type="curve" smooth="yes"/>
      <point x="834" y="666"/>
      <point x="956" y="604"/>
    </contour>
    <contour>
      <point x="714" y="1500" type="move" name="U"/>
    </contour>
    <contour>
      <point x="426" y="-100" type="move" name="L"/>
    </contour>
  </outline>
</glyph>
<glyph name="LtnSmTrndDelta" format="1">
  <advance width="1029"/>
  <unicode hex="018D"/>
  <outline>
    <contour>
      <point x="75" y="434" type="curve" smooth="yes" name="hr01"/>
      <point x="75" y="47"/>
      <point x="516" y="-116"/>
      <point x="516" y="-293" type="curve" smooth="yes"/>
      <point x="516" y="-386"/>
      <point x="420" y="-409"/>
      <point x="348" y="-409" type="curve" smooth="yes"/>
      <point x="283" y="-409"/>
      <point x="249" y="-396"/>
      <point x="204" y="-344" type="curve" name="hr02"/>
      <point x="197" y="-181" type="line"/>
      <point x="180" y="-164"/>
      <point x="139" y="-156"/>
      <point x="118" y="-156" type="curve" smooth="yes"/>
      <point x="35" y="-156"/>
      <point x="-25" y="-233"/>
      <point x="-25" y="-303" type="curve" smooth="yes"/>
      <point x="-25" y="-395"/>
      <point x="100" y="-525"/>
      <point x="322" y="-525" type="curve" smooth="yes"/>
      <point x="475" y="-525"/>
      <point x="677" y="-425"/>
      <point x="677" y="-246" type="curve" smooth="yes"/>
      <point x="677" y="-46"/>
      <point x="282" y="117"/>
      <point x="282" y="452" type="curve" smooth="yes" name="hr03"/>
      <point x="282" y="691"/>
      <point x="423" y="920"/>
      <point x="597" y="920" type="curve" smooth="yes"/>
      <point x="699" y="920"/>
      <point x="759" y="842"/>
      <point x="759" y="673" type="curve" smooth="yes"/>
      <point x="759" y="391"/>
      <point x="496" y="171"/>
      <point x="311" y="124" type="curve"/>
      <point x="290" y="43" type="line"/>
      <point x="575" y="117"/>
      <point x="966" y="290"/>
      <point x="966" y="688" type="curve" smooth="yes"/>
      <point x="966" y="921"/>
      <point x="795" y="1012"/>
      <point x="603" y="1012" type="curve" smooth="yes"/>
      <point x="383" y="1012"/>
      <point x="75" y="804"/>
    </contour>
    <contour>
      <point x="650" y="1100" type="move" name="U"/>
    </contour>
    <contour>
      <point x="290" y="-500" type="move" name="L"/>
    </contour>
  </outline>
</glyph>
<glyph name="LtnSmOHorn" format="1">
  <advance width="1233"/>
  <unicode hex="01A1"/>
  <outline>
    <contour>
      <point x="1223" y="1010" type="curve" smooth="yes" name="hr01"/>
      <point x="1223" y="1108"/>
      <point x="1157" y="1176"/>
      <point x="1067" y="1176" type="curve" smooth="yes"/>
      <point x="979" y="1176"/>
      <point x="903" y="1114"/>
      <point x="903" y="1032" type="curve" smooth="yes"/>
      <point x="903" y="977"/>
      <point x="936" y="938"/>
      <point x="936" y="938" type="curve"/>
      <point x="1075" y="938" type="line"/>
      <point x="1063" y="856"/>
      <point x="1026" y="782"/>
      <point x="963" y="723" type="curve"/>
      <point x="924" y="922"/>
      <point x="776" y="1012"/>
      <point x="606" y="1012" type="curve" smooth="yes" name="hr02"/>
      <point x="285" y="1012"/>
      <point x="63" y="694"/>
      <point x="63" y="362" type="curve" smooth="yes"/>
      <point x="63" y="125"/>
      <point x="203" y="-25"/>
      <point x="428" y="-25" type="curve" smooth="yes"/>
      <point x="743" y="-25"/>
      <point x="973" y="283"/>
      <point x="973" y="614" type="curve" smooth="yes" name="hr03"/>
      <point x="973" y="625"/>
      <point x="973" y="633"/>
      <point x="973" y="641" type="curve"/>
      <point x="1108" y="709"/>
      <point x="1223" y="862"/>
    </contour>
    <contour>
      <point x="766" y="623" type="curve" smooth="yes" name="hr05"/>
      <point x="766" y="381"/>
      <point x="647" y="68"/>
      <point x="453" y="68" type="curve" smooth="yes"/>
      <point x="350" y="68"/>
      <point x="270" y="170"/>
      <point x="270" y="373" type="curve" smooth="yes"/>
      <point x="270" y="639"/>
      <point x="406" y="924"/>
      <point x="584" y="924" type="curve" smooth="yes"/>
      <point x="688" y="924"/>
      <point x="766" y="817"/>
    </contour>
    <contour>
      <point x="384" y="-100" type="move" name="L"/>
    </contour>
    <contour>
      <point x="628" y="1100" type="move" name="U"/>
    </contour>
  </outline>
</glyph>
<glyph name="LtnCapZStrk" format="1">
  <advance width="1153"/>
  <unicode hex="01B5"/>
  <outline>
    <contour>
      <point x="1219" y="1374" type="line" name="hr00"/>
      <point x="279" y="1374" type="line"/>
      <point x="213" y="1049" type="line"/>
      <point x="354" y="1049" type="line"/>
      <point x="410" y="1229" type="line" smooth="yes"/>
      <point x="418" y="1255"/>
      <point x="430" y="1268"/>
      <point x="459" y="1268" type="curve" smooth="yes"/>
      <point x="938" y="1268" type="line"/>
      <point x="-23" y="90" type="line"/>
      <point x="-41" y="0" type="line"/>
      <point x="973" y="0" type="line"/>
      <point x="1044" y="379" type="line"/>
      <point x="905" y="379" type="line"/>
      <point x="844" y="150" type="line" smooth="yes"/>
      <point x="836" y="121"/>
      <point x="821" y="109"/>
      <point x="793" y="109" type="curve" smooth="yes"/>
      <point x="236" y="109" type="line"/>
      <point x="1200" y="1282" type="line"/>
    </contour>
    <contour>
      <point x="984" y="688" type="line"/>
      <point x="984" y="790" type="line"/>
      <point x="281" y="790" type="line"/>
      <point x="281" y="688" type="line"/>
    </contour>
    <contour>
      <point x="754" y="1500" type="move" name="U"/>
    </contour>
    <contour>
      <point x="466" y="-100" type="move" name="L"/>
    </contour>
  </outline>
</glyph>
<glyph name="LtnDentalClick" format="1">
  <advance width="453"/>
  <unicode hex="01C0"/>
  <outline>
    <contour>
      <point x="105" y="-440" type="line" name="hr00"/>
      <point x="476" y="1507" type="line"/>
      <point x="361" y="1507" type="line"/>
      <point x="-10" y="-440" type="line"/>
    </contour>
    <contour>
      <point x="420" y="1540" type="move" name="U"/>
    </contour>
    <contour>
      <point x="28" y="-500" type="move" name="L"/>
    </contour>
  </outline>
</glyph>
<glyph name="LtnAlveolarClick" format="1">
  <advance width="893"/>
  <unicode hex="01C2"/>
  <outline>
    <contour>
      <point x="100" y="619" type="line" name="hr00"/>
      <point x="853" y="619" type="line"/>
      <point x="853" y="723" type="line"/>
      <point x="100" y="723" type="line"/>
    </contour>
    <contour>
      <point x="40" y="343" type="line"/>
      <point x="793" y="343" type="line"/>
      <point x="793" y="447" type="line"/>
      <point x="40" y="447" type="line"/>
    </contour>
    <contour>
      <point x="634" y="1540" type="move" name="U"/>
    </contour>
    <contour>
      <point x="242" y="-500" type="move" name="L"/>
    </contour>
    <component base="LtnDentalClick" xOffset="200"/>
  </outline>
</glyph>
<glyph name="LtnSmDCurl" format="1">
  <advance width="1178"/>
  <unicode hex="0221"/>
  <outline>
    <contour>
      <point x="1210" y="260" type="curve" smooth="yes" name="hr01"/>
      <point x="1210" y="330"/>
      <point x="1161" y="408"/>
      <point x="1069" y="408" type="curve" smooth="yes"/>
      <point x="1001" y="408"/>
      <point x="946" y="391"/>
      <point x="883" y="371" type="curve"/>
      <point x="883" y="371"/>
      <point x="882" y="366"/>
      <point x="882" y="366" type="curve"/>
      <point x="882" y="366"/>
      <point x="899" y="462"/>
      <point x="1083" y="1509" type="curve"/>
      <point x="999" y="1509" type="line"/>
      <point x="682" y="1448" type="line"/>
      <point x="682" y="1386" type="line"/>
      <point x="868" y="1368" type="line"/>
      <point x="799" y="975" type="line"/>
      <point x="764" y="987"/>
      <point x="707" y="1012"/>
      <point x="645" y="1012" type="curve" smooth="yes"/>
      <point x="283" y="1012"/>
      <point x="66" y="668"/>
      <point x="66" y="342" type="curve" smooth="yes"/>
      <point x="66" y="170"/>
      <point x="129" y="-25"/>
      <point x="358" y="-25" type="curve" smooth="yes"/>
      <point x="365" y="-25"/>
      <point x="391" y="-25"/>
      <point x="414" y="-18" type="curve"/>
      <point x="371" y="-78"/>
      <point x="332" y="-141"/>
      <point x="301" y="-203" type="curve"/>
      <point x="387" y="-231" type="line"/>
      <point x="459" y="-102"/>
      <point x="563" y="49"/>
      <point x="666" y="135" type="curve"/>
      <point x="666" y="14"/>
      <point x="737" y="-25"/>
      <point x="864" y="-25" type="curve" smooth="yes"/>
      <point x="1030" y="-25"/>
      <point x="1210" y="76"/>
    </contour>
    <contour>
      <point x="1110" y="242" type="curve" smooth="yes"/>
      <point x="1110" y="152"/>
      <point x="1022" y="76"/>
      <point x="934" y="76" type="curve" smooth="yes"/>
      <point x="899" y="76"/>
      <point x="854" y="106"/>
      <point x="854" y="176" type="curve" smooth="yes"/>
      <point x="854" y="184"/>
      <point x="858" y="217"/>
      <point x="866" y="266" type="curve"/>
      <point x="922" y="291"/>
      <point x="969" y="324"/>
      <point x="1028" y="324" type="curve" smooth="yes"/>
      <point x="1083" y="324"/>
      <point x="1110" y="287"/>
    </contour>
    <contour>
      <point x="768" y="795" type="curve"/>
      <point x="674" y="266" type="line"/>
      <point x="600" y="180"/>
      <point x="498" y="100"/>
      <point x="424" y="100" type="curve" smooth="yes" name="hr02"/>
      <point x="344" y="100"/>
      <point x="264" y="178"/>
      <point x="264" y="354" type="curve" smooth="yes"/>
      <point x="264" y="674"/>
      <point x="442" y="920"/>
      <point x="641" y="920" type="curve" smooth="yes"/>
      <point x="695" y="920"/>
      <point x="768" y="810"/>
    </contour>
    <contour>
      <point x="868" y="1540" type="move" name="U"/>
    </contour>
    <contour>
      <point x="510" y="-320" type="move" name="L"/>
    </contour>
  </outline>
</glyph>
<glyph name="LtnSmOu" format="1">
  <advance width="1106"/>
  <unicode hex="0223"/>
  <outline>
    <contour>
      <point x="719" y="1509" type="curve" smooth="yes" name="hr01"/>
      <point x="486" y="1509"/>
      <point x="250" y="1328"/>
      <point x="250" y="1051" type="curve" smooth="yes"/>
      <point x="250" y="879"/>
      <point x="359" y="803"/>
      <point x="462" y="785" type="curve"/>
      <point x="257" y="748"/>
      <point x="63" y="555"/>
      <point x="63" y="307" type="curve" smooth="yes" name="hr02"/>
      <point x="63" y="97"/>
      <point x="204" y="-25"/>
      <point x="428" y="-25" type="curve" smooth="yes"/>
      <point x="693" y="-25"/>
      <point x="951" y="190"/>
      <point x="951" y="473" type="curve" smooth="yes"/>
      <point x="951" y="652"/>
      <point x="837" y="749"/>
      <point x="698" y="785" type="curve"/>
      <point x="854" y="809"/>
      <point x="1043" y="978"/>
      <point x="1043" y="1203" type="curve" smooth="yes" name="hr03"/>
      <point x="1043" y="1399"/>
      <point x="906" y="1509"/>
    </contour>
    <contour>
      <point x="697" y="1407" type="curve" smooth="yes"/>
      <point x="791" y="1407"/>
      <point x="843" y="1320"/>
      <point x="843" y="1200" type="curve" smooth="yes"/>
      <point x="843" y="1016"/>
      <point x="741" y="841"/>
      <point x="590" y="841" type="curve" smooth="yes"/>
      <point x="492" y="841"/>
      <point x="450" y="946"/>
      <point x="450" y="1057" type="curve" smooth="yes"/>
      <point x="450" y="1216"/>
      <point x="526" y="1407"/>
    </contour>
    <contour>
      <point x="449" y="84" type="curve" smooth="yes" name="hr05"/>
      <point x="343" y="84"/>
      <point x="270" y="191"/>
      <point x="270" y="321" type="curve" smooth="yes"/>
      <point x="270" y="520"/>
      <point x="385" y="729"/>
      <point x="569" y="729" type="curve" smooth="yes"/>
      <point x="671" y="729"/>
      <point x="744" y="622"/>
      <point x="744" y="484" type="curve" smooth="yes"/>
      <point x="744" y="285"/>
      <point x="632" y="84"/>
    </contour>
    <contour>
      <point x="731" y="1580" type="move" name="U"/>
    </contour>
    <contour>
      <point x="407" y="-100" type="move" name="L"/>
    </contour>
  </outline>
</glyph>
<glyph name="LtnSmLCurl" format="1">
  <advance width="668"/>
  <unicode hex="0234"/>
  <outline>
    <contour>
      <point x="678" y="252" type="curve" smooth="yes" name="hr00"/>
      <point x="678" y="352"/>
      <point x="631" y="410"/>
      <point x="537" y="410" type="curve" smooth="yes"/>
      <point x="465" y="410"/>
      <point x="401" y="389"/>
      <point x="332" y="354" type="curve"/>
      <point x="551" y="1509" type="line"/>
      <point x="471" y="1509" type="line"/>
      <point x="152" y="1448" type="line"/>
      <point x="152" y="1386" type="line"/>
      <point x="334" y="1368" type="line"/>
      <point x="115" y="227" type="line"/>
      <point x="-25" y="96"/>
      <point x="-45" y="74"/>
      <point x="-139" y="-55" type="curve"/>
      <point x="-70" y="-104" type="line"/>
      <point x="-14" y="-18"/>
      <point x="14" y="10"/>
      <point x="106" y="106" type="curve"/>
      <point x="123" y="-33"/>
      <point x="279" y="-25"/>
      <point x="336" y="-25" type="curve" smooth="yes"/>
      <point x="510" y="-25"/>
      <point x="678" y="92"/>
    </contour>
    <contour>
      <point x="555" y="231" type="curve" smooth="yes"/>
      <point x="555" y="150"/>
      <point x="479" y="98"/>
      <point x="399" y="98" type="curve" smooth="yes"/>
      <point x="330" y="98"/>
      <point x="303" y="131"/>
      <point x="303" y="186" type="curve" smooth="yes"/>
      <point x="303" y="197"/>
      <point x="307" y="221"/>
      <point x="311" y="256" type="curve"/>
      <point x="379" y="295"/>
      <point x="416" y="319"/>
      <point x="481" y="319" type="curve" smooth="yes"/>
      <point x="541" y="319"/>
      <point x="555" y="295"/>
    </contour>
    <contour>
      <point x="484" y="1540" type="move" name="U"/>
    </contour>
    <contour>
      <point x="168" y="-100" type="move" name="L"/>
    </contour>
  </outline>
</glyph>
<glyph name="LtnCapAStrk" format="1">
  <advance width="1378"/>
  <unicode hex="023A"/>
  <outline>
    <contour>
      <point x="1287" y="1470" type="line" name="hr00"/>
      <point x="1182" y="1534" type="line"/>
      <point x="125" y="-98" type="line"/>
      <point x="213" y="-164" type="line"/>
    </contour>
    <contour>
      <point x="847" y="1500" type="move" name="U"/>
    </contour>
    <contour>
      <point x="559" y="-100" type="move" name="L"/>
    </contour>
    <contour>
      <point x="1175" y="0" type="move" name="O"/>
    </contour>
    <contour>
      <point x="1012" y="0" type="move" name="H"/>
    </contour>
    <component base="LtnCapA"/>
  </outline>
</glyph>
<glyph name="LtnCapCStrk" format="1">
  <advance width="1290"/>
  <unicode hex="023B"/>
  <outline>
    <contour>
      <point x="1237" y="1470" type="line" name="hr00"/>
      <point x="1132" y="1534" type="line"/>
      <point x="75" y="-98" type="line"/>
      <point x="163" y="-164" type="line"/>
    </contour>
    <contour>
      <point x="843" y="1500" type="move" name="U"/>
    </contour>
    <contour>
      <point x="555" y="-100" type="move" name="L"/>
    </contour>
    <contour>
      <point x="529" y="0" type="move" name="H"/>
    </contour>
    <component base="LtnCapC"/>
  </outline>
</glyph>
<glyph name="LtnCapTDiagStrk" format="1">
  <advance width="1200"/>
  <unicode hex="023E"/>
  <outline>
    <contour>
      <point x="1207" y="1470" type="line" name="hr00"/>
      <point x="1102" y="1534" type="line"/>
      <point x="45" y="-98" type="line"/>
      <point x="133" y="-164" type="line"/>
    </contour>
    <contour>
      <point x="768" y="1500" type="move" name="U"/>
    </contour>
    <contour>
      <point x="480" y="-100" type="move" name="L"/>
    </contour>
    <contour>
      <point x="500" y="0" type="move" name="H"/>
    </contour>
    <component base="LtnCapT"/>
  </outline>
</glyph>
<glyph name="LtnCapEStrk" format="1">
  <advance width="1143"/>
  <unicode hex="0246"/>
  <outline>
    <contour>
      <point x="1167" y="1470" type="line" name="hr00"/>
      <point x="1062" y="1534" type="line"/>
      <point x="5" y="-98" type="line"/>
      <point x="93" y="-164" type="line"/>
    </contour>
    <contour>
      <point x="757" y="1500" type="move" name="U"/>
    </contour>
    <contour>
      <point x="469" y="-100" type="move" name="L"/>
    </contour>
    <component base="LtnCapE"/>
  </outline>
</glyph>
<glyph name="LtnSmOpnO" format="1">
  <advance width="891"/>
  <unicode hex="0254"/>
  <outline>
    <contour>
      <point x="825" y="631" type="curve" smooth="yes" name="hr00"/>
      <point x="825" y="874"/>
      <point x="705" y="1012"/>
      <point x="510" y="1012" type="curve" smooth="yes"/>
      <point x="328" y="1012"/>
      <point x="193" y="893"/>
      <point x="109" y="811" type="curve"/>
      <point x="109" y="682" type="line"/>
      <point x="225" y="797"/>
      <point x="340" y="879"/>
      <point x="449" y="879" type="curve" smooth="yes"/>
      <point x="584" y="879"/>
      <point x="631" y="739"/>
      <point x="631" y="606" type="curve" smooth="yes"/>
      <point x="631" y="440"/>
      <point x="561" y="104"/>
      <point x="342" y="94" type="curve"/>
      <point x="223" y="252" type="line"/>
      <point x="92" y="236"/>
      <point x="66" y="172"/>
      <point x="66" y="119" type="curve" smooth="yes"/>
      <point x="66" y="57"/>
      <point x="127" y="-25"/>
      <point x="274" y="-25" type="curve" smooth="yes"/>
      <point x="553" y="-25"/>
      <point x="825" y="264"/>
    </contour>
    <contour>
      <point x="553" y="1100" type="move" name="U"/>
    </contour>
    <contour>
      <point x="309" y="-100" type="move" name="L"/>
    </contour>
    <contour>
      <point x="891" y="1000" type="move" name="R"/>
    </contour>
    <contour>
      <point x="378" y="0" type="move" name="O"/>
    </contour>
    <contour>
      <point x="329" y="0" type="move" name="H"/>
    </contour>
  </outline>
</glyph>
<glyph name="LtnSmDTail" format="1">
  <advance width="1077"/>
  <unicode hex="0256"/>
  <outline>
    <contour>
      <point x="1126" y="-346" type="curve" smooth="yes" name="hr01"/>
      <point x="1126" y="-248"/>
      <point x="1053" y="-236"/>
      <point x="1053" y="-236" type="curve"/>
      <point x="866" y="-356" type="line" name="hr02"/>
      <point x="811" y="-332"/>
      <point x="788" y="-293"/>
      <point x="788" y="-217" type="curve" smooth="yes"/>
      <point x="788" y="-172"/>
      <point x="801" y="-92"/>
      <point x="813" y="-18" type="curve" smooth="yes"/>
      <point x="1083" y="1509" type="line"/>
      <point x="999" y="1509" type="line"/>
      <point x="682" y="1448" type="line" name="hr03"/>
      <point x="682" y="1386" type="line"/>
      <point x="868" y="1368" type="line"/>
      <point x="799" y="973" type="line"/>
      <point x="764" y="985"/>
      <point x="707" y="1012"/>
      <point x="645" y="1012" type="curve" smooth="yes"/>
      <point x="283" y="1012"/>
      <point x="66" y="668"/>
      <point x="66" y="342" type="curve" smooth="yes"/>
      <point x="66" y="170"/>
      <point x="129" y="-25"/>
      <point x="358" y="-25" type="curve" smooth="yes"/>
      <point x="473" y="-25"/>
      <point x="578" y="53"/>
      <point x="649" y="129" type="curve" name="hr04"/>
      <point x="649" y="129"/>
      <point x="608" y="-78"/>
      <point x="608" y="-141" type="curve" smooth="yes"/>
      <point x="608" y="-328"/>
      <point x="715" y="-469"/>
      <point x="926" y="-469" type="curve" smooth="yes"/>
      <point x="1051" y="-469"/>
      <point x="1126" y="-406"/>
    </contour>
    <contour>
      <point x="770" y="807" type="curve"/>
      <point x="676" y="268" type="line"/>
      <point x="602" y="182"/>
      <point x="498" y="100"/>
      <point x="424" y="100" type="curve" smooth="yes"/>
      <point x="344" y="100"/>
      <point x="264" y="178"/>
      <point x="264" y="354" type="curve" smooth="yes"/>
      <point x="264" y="674"/>
      <point x="442" y="920"/>
      <point x="641" y="920" type="curve" smooth="yes"/>
      <point x="694" y="920"/>
      <point x="772" y="819"/>
    </contour>
    <contour>
      <point x="386" y="-475" type="move" name="L"/>
    </contour>
    <contour>
      <point x="1077" y="1000" type="move" name="R"/>
    </contour>
    <contour>
      <point x="773" y="1540" type="move" name="U"/>
    </contour>
  </outline>
</glyph>
<glyph name="LtnSmOpnE" format="1">
  <advance width="858"/>
  <unicode hex="025B"/>
  <outline>
    <contour>
      <point x="854" y="866" type="curve" smooth="yes" name="hr01"/>
      <point x="854" y="930"/>
      <point x="784" y="1012"/>
      <point x="625" y="1012" type="curve" smooth="yes"/>
      <point x="563" y="1012" type="line" smooth="yes"/>
      <point x="371" y="1012"/>
      <point x="158" y="889"/>
      <point x="158" y="715" type="curve" smooth="yes" name="hr02"/>
      <point x="158" y="606"/>
      <point x="221" y="543"/>
      <point x="305" y="504" type="curve"/>
      <point x="176" y="481"/>
      <point x="14" y="416"/>
      <point x="14" y="213" type="curve" smooth="yes" name="hr03"/>
      <point x="14" y="41"/>
      <point x="160" y="-25"/>
      <point x="391" y="-25" type="curve" smooth="yes"/>
      <point x="575" y="-25"/>
      <point x="748" y="98"/>
      <point x="774" y="117" type="curve"/>
      <point x="774" y="248" type="line"/>
      <point x="721" y="205"/>
      <point x="582" y="76"/>
      <point x="406" y="76" type="curve" smooth="yes"/>
      <point x="297" y="76"/>
      <point x="217" y="123"/>
      <point x="217" y="227" type="curve" smooth="yes"/>
      <point x="217" y="362"/>
      <point x="301" y="438"/>
      <point x="434" y="438" type="curve" smooth="yes"/>
      <point x="436" y="438"/>
      <point x="487" y="440"/>
      <point x="541" y="438" type="curve"/>
      <point x="541" y="535" type="line"/>
      <point x="471" y="537"/>
      <point x="360" y="551"/>
      <point x="360" y="686" type="curve" smooth="yes" name="hr04"/>
      <point x="360" y="825"/>
      <point x="444" y="918"/>
      <point x="565" y="926" type="curve"/>
      <point x="588" y="897"/>
      <point x="657" y="801"/>
      <point x="700" y="741" type="curve"/>
      <point x="829" y="760"/>
      <point x="854" y="813"/>
    </contour>
    <contour>
      <point x="611" y="1100" type="move" name="U"/>
    </contour>
    <contour>
      <point x="367" y="-100" type="move" name="L"/>
    </contour>
    <contour>
      <point x="858" y="1000" type="move" name="R"/>
    </contour>
    <contour>
      <point x="585" y="0" type="move" name="O"/>
    </contour>
    <contour>
      <point x="357" y="0" type="move" name="H"/>
    </contour>
  </outline>
</glyph>
<glyph name="LtnSmClosedRevOpnE" format="1">
  <advance width="1032"/>
  <unicode hex="025E"/>
  <outline>
    <contour>
      <point x="969" y="778" type="curve" smooth="yes" name="hr01"/>
      <point x="969" y="938"/>
      <point x="807" y="1012"/>
      <point x="668" y="1012" type="curve" smooth="yes"/>
      <point x="285" y="1012"/>
      <point x="66" y="719"/>
      <point x="66" y="352" type="curve" smooth="yes"/>
      <point x="66" y="131"/>
      <point x="178" y="-25"/>
      <point x="412" y="-25" type="curve" smooth="yes"/>
      <point x="625" y="-25"/>
      <point x="899" y="59"/>
      <point x="899" y="319" type="curve" smooth="yes" name="hr02"/>
      <point x="899" y="442"/>
      <point x="805" y="483"/>
      <point x="696" y="498" type="curve"/>
      <point x="809" y="539"/>
      <point x="969" y="643"/>
    </contour>
    <contour>
      <point x="768" y="784" type="curve" smooth="yes"/>
      <point x="768" y="629"/>
      <point x="631" y="526"/>
      <point x="483" y="524" type="curve"/>
      <point x="483" y="442" type="line"/>
      <point x="580" y="442"/>
      <point x="702" y="453"/>
      <point x="702" y="322" type="curve" smooth="yes" name="hr04"/>
      <point x="702" y="184"/>
      <point x="571" y="70"/>
      <point x="438" y="70" type="curve" smooth="yes"/>
      <point x="272" y="70"/>
      <point x="199" y="238"/>
      <point x="199" y="379" type="curve" smooth="yes"/>
      <point x="199" y="608"/>
      <point x="352" y="934"/>
      <point x="618" y="934" type="curve" smooth="yes"/>
      <point x="711" y="934"/>
      <point x="768" y="877"/>
    </contour>
    <contour>
      <point x="633" y="1100" type="move" name="U"/>
    </contour>
    <contour>
      <point x="389" y="-100" type="move" name="L"/>
    </contour>
    <contour>
      <point x="1032" y="1000" type="move" name="R"/>
    </contour>
  </outline>
</glyph>
<glyph name="LtnSmLMiddleTilde" format="1">
  <advance width="584"/>
  <unicode hex="026B"/>
  <outline>
    <contour>
      <point x="733" y="852" type="curve" name="hr01"/>
      <point x="625" y="852" type="line"/>
      <point x="602" y="795"/>
      <point x="547" y="758"/>
      <point x="512" y="758" type="curve" smooth="yes"/>
      <point x="481" y="758"/>
      <point x="455" y="762"/>
      <point x="436" y="770" type="curve"/>
      <point x="578" y="1509" type="line"/>
      <point x="500" y="1509" type="line"/>
      <point x="180" y="1448" type="line"/>
      <point x="180" y="1386" type="line"/>
      <point x="362" y="1368" type="line"/>
      <point x="262" y="850" type="line" name="hr02"/>
      <point x="256" y="850"/>
      <point x="250" y="852"/>
      <point x="244" y="852" type="curve" smooth="yes"/>
      <point x="96" y="852"/>
      <point x="4" y="752"/>
      <point x="-53" y="635" type="curve"/>
      <point x="55" y="635" type="line"/>
      <point x="78" y="690"/>
      <point x="135" y="727"/>
      <point x="170" y="727" type="curve" smooth="yes"/>
      <point x="199" y="727"/>
      <point x="219" y="723"/>
      <point x="238" y="717" type="curve"/>
      <point x="137" y="197" type="line" smooth="yes"/>
      <point x="131" y="170"/>
      <point x="129" y="145"/>
      <point x="129" y="125" type="curve" smooth="yes"/>
      <point x="129" y="37"/>
      <point x="178" y="-25"/>
      <point x="303" y="-25" type="curve" smooth="yes"/>
      <point x="401" y="-25"/>
      <point x="555" y="41"/>
      <point x="588" y="53" type="curve"/>
      <point x="588" y="131" type="line"/>
      <point x="567" y="125"/>
      <point x="463" y="90"/>
      <point x="424" y="90" type="curve" smooth="yes"/>
      <point x="365" y="90"/>
      <point x="317" y="143"/>
      <point x="330" y="203" type="curve" smooth="yes"/>
      <point x="412" y="635" type="line" name="hr03"/>
      <point x="420" y="635"/>
      <point x="430" y="635"/>
      <point x="436" y="635" type="curve" smooth="yes"/>
      <point x="584" y="635"/>
      <point x="676" y="733"/>
    </contour>
    <contour>
      <point x="494" y="1540" type="move" name="U"/>
    </contour>
    <contour>
      <point x="178" y="-100" type="move" name="L"/>
    </contour>
  </outline>
</glyph>
<glyph name="LtnSmLRetrHook" format="1">
  <advance width="543"/>
  <unicode hex="026D"/>
  <outline>
    <contour>
      <point x="543" y="-354" type="curve" smooth="yes" name="hr01"/>
      <point x="543" y="-285"/>
      <point x="516" y="-252"/>
      <point x="477" y="-238" type="curve"/>
      <point x="283" y="-375" type="line" name="hr02"/>
      <point x="231" y="-342"/>
      <point x="223" y="-258"/>
      <point x="223" y="-176" type="curve" smooth="yes"/>
      <point x="223" y="-125"/>
      <point x="227" y="-74"/>
      <point x="233" y="-39" type="curve" smooth="yes"/>
      <point x="528" y="1509" type="line"/>
      <point x="449" y="1509" type="line"/>
      <point x="129" y="1448" type="line" name="hr03"/>
      <point x="129" y="1386" type="line"/>
      <point x="311" y="1368" type="line"/>
      <point x="74" y="131" type="line" smooth="yes" name="hr04"/>
      <point x="59" y="53"/>
      <point x="49" y="-27"/>
      <point x="49" y="-102" type="curve" smooth="yes"/>
      <point x="49" y="-301"/>
      <point x="145" y="-469"/>
      <point x="395" y="-469" type="curve" smooth="yes"/>
      <point x="479" y="-469"/>
      <point x="543" y="-434"/>
    </contour>
    <contour>
      <point x="411" y="1540" type="move" name="U"/>
    </contour>
    <contour>
      <point x="19" y="-500" type="move" name="L"/>
    </contour>
  </outline>
</glyph>
<glyph name="LtnSmNLftHook" format="1">
  <advance width="1085"/>
  <unicode hex="0272"/>
  <outline>
    <contour>
      <point x="1079" y="41" type="curve" name="hr01"/>
      <point x="1077" y="113" type="line"/>
      <point x="1030" y="98"/>
      <point x="985" y="86"/>
      <point x="948" y="86" type="curve" smooth="yes"/>
      <point x="924" y="86"/>
      <point x="846" y="94"/>
      <point x="860" y="172" type="curve" smooth="yes"/>
      <point x="969" y="750" type="line"/>
      <point x="1001" y="934"/>
      <point x="936" y="1012"/>
      <point x="786" y="1012" type="curve" smooth="yes"/>
      <point x="649" y="1012"/>
      <point x="496" y="913"/>
      <point x="406" y="821" type="curve"/>
      <point x="444" y="1012" type="line"/>
      <point x="362" y="1012" type="line"/>
      <point x="53" y="948" type="line"/>
      <point x="53" y="889" type="line"/>
      <point x="225" y="870" type="line"/>
      <point x="35" y="-72" type="line" smooth="yes"/>
      <point x="-2" y="-248"/>
      <point x="-41" y="-330"/>
      <point x="-102" y="-348" type="curve"/>
      <point x="-236" y="-176" type="line"/>
      <point x="-252" y="-176"/>
      <point x="-352" y="-227"/>
      <point x="-352" y="-311" type="curve" smooth="yes"/>
      <point x="-352" y="-375"/>
      <point x="-336" y="-446"/>
      <point x="-217" y="-446" type="curve" smooth="yes"/>
      <point x="-4" y="-446"/>
      <point x="178" y="-311"/>
      <point x="240" y="-8" type="curve" smooth="yes"/>
      <point x="379" y="688" type="line"/>
      <point x="469" y="784"/>
      <point x="608" y="866"/>
      <point x="674" y="866" type="curve" smooth="yes"/>
      <point x="719" y="866"/>
      <point x="784" y="834"/>
      <point x="764" y="725" type="curve" smooth="yes"/>
      <point x="639" y="96" type="line" smooth="yes"/>
      <point x="616" y="-14"/>
      <point x="756" y="-25"/>
      <point x="805" y="-25" type="curve" smooth="yes"/>
      <point x="891" y="-25"/>
      <point x="1044" y="29"/>
    </contour>
    <contour>
      <point x="650" y="1100" type="move" name="U"/>
    </contour>
    <contour>
      <point x="350" y="-500" type="move" name="L"/>
    </contour>
  </outline>
</glyph>
<glyph name="LtnSmNRetrHook" format="1">
  <advance width="1085"/>
  <unicode hex="0273"/>
  <outline>
    <contour>
      <point x="1133" y="-301" type="curve" smooth="yes" name="hr01"/>
      <point x="1133" y="-229"/>
      <point x="1059" y="-215"/>
      <point x="1059" y="-215" type="curve"/>
      <point x="864" y="-336" type="line" name="hr02"/>
      <point x="821" y="-319"/>
      <point x="793" y="-297"/>
      <point x="793" y="-236" type="curve" smooth="yes"/>
      <point x="793" y="-199"/>
      <point x="807" y="-102"/>
      <point x="823" y="-18" type="curve" smooth="yes"/>
      <point x="969" y="750" type="line" smooth="yes"/>
      <point x="1004" y="932"/>
      <point x="936" y="1012"/>
      <point x="786" y="1012" type="curve" smooth="yes" name="hr03"/>
      <point x="649" y="1012"/>
      <point x="496" y="913"/>
      <point x="406" y="821" type="curve"/>
      <point x="444" y="1012" type="line"/>
      <point x="362" y="1012" type="line"/>
      <point x="53" y="948" type="line"/>
      <point x="53" y="889" type="line"/>
      <point x="225" y="870" type="line"/>
      <point x="47" y="0" type="line"/>
      <point x="238" y="0" type="line"/>
      <point x="379" y="688" type="line"/>
      <point x="469" y="784"/>
      <point x="608" y="866"/>
      <point x="674" y="866" type="curve" smooth="yes"/>
      <point x="719" y="866"/>
      <point x="784" y="834"/>
      <point x="764" y="725" type="curve" smooth="yes"/>
      <point x="616" y="-14" type="line" smooth="yes" name="hr04"/>
      <point x="604" y="-76"/>
      <point x="594" y="-156"/>
      <point x="594" y="-188" type="curve" smooth="yes"/>
      <point x="594" y="-365"/>
      <point x="707" y="-446"/>
      <point x="918" y="-446" type="curve" smooth="yes"/>
      <point x="1001" y="-446"/>
      <point x="1133" y="-410"/>
    </contour>
    <contour>
      <point x="622" y="1100" type="move" name="U"/>
    </contour>
    <contour>
      <point x="302" y="-500" type="move" name="L"/>
    </contour>
  </outline>
</glyph>
<glyph name="LtnSmCapN" format="1">
  <advance width="1165"/>
  <unicode hex="0274"/>
  <outline>
    <contour>
      <point x="1210" y="909" type="line" name="hr00"/>
      <point x="1210" y="987" type="line"/>
      <point x="782" y="987" type="line"/>
      <point x="782" y="909" type="line"/>
      <point x="891" y="899" type="line" smooth="yes"/>
      <point x="926" y="895"/>
      <point x="934" y="881"/>
      <point x="930" y="858" type="curve" smooth="yes"/>
      <point x="805" y="276" type="line"/>
      <point x="451" y="944" type="line"/>
      <point x="451" y="987" type="line"/>
      <point x="92" y="987" type="line"/>
      <point x="92" y="909" type="line"/>
      <point x="199" y="899" type="line" smooth="yes"/>
      <point x="236" y="895"/>
      <point x="244" y="881"/>
      <point x="240" y="858" type="curve" smooth="yes"/>
      <point x="84" y="127" type="line" smooth="yes"/>
      <point x="78" y="102"/>
      <point x="59" y="90"/>
      <point x="35" y="88" type="curve" smooth="yes"/>
      <point x="-61" y="78" type="line"/>
      <point x="-61" y="0" type="line"/>
      <point x="367" y="0" type="line"/>
      <point x="367" y="78" type="line"/>
      <point x="260" y="88" type="line" smooth="yes"/>
      <point x="225" y="92"/>
      <point x="215" y="106"/>
      <point x="219" y="129" type="curve" smooth="yes"/>
      <point x="356" y="750" type="line"/>
      <point x="754" y="0" type="line"/>
      <point x="883" y="0" type="line"/>
      <point x="1065" y="858" type="line" smooth="yes"/>
      <point x="1071" y="885"/>
      <point x="1090" y="897"/>
      <point x="1114" y="899" type="curve" smooth="yes"/>
    </contour>
    <contour>
      <point x="683" y="1100" type="move" name="U"/>
    </contour>
    <contour>
      <point x="439" y="-100" type="move" name="L"/>
    </contour>
  </outline>
</glyph>
<glyph name="LtnSmRevRFishhook" format="1">
  <advance width="689"/>
  <unicode hex="027F"/>
  <outline>
    <contour>
      <point x="148" y="-446" type="line" name="hr01"/>
      <point x="339" y="-446" type="line"/>
      <point x="519" y="453" type="line" smooth="yes"/>
      <point x="533" y="522"/>
      <point x="542" y="592"/>
      <point x="542" y="664" type="curve" smooth="yes"/>
      <point x="542" y="858"/>
      <point x="470" y="1012"/>
      <point x="253" y="1012" type="curve" smooth="yes"/>
      <point x="165" y="1012"/>
      <point x="50" y="969"/>
      <point x="50" y="864" type="curve" smooth="yes"/>
      <point x="50" y="821"/>
      <point x="83" y="780"/>
      <point x="124" y="768" type="curve"/>
      <point x="337" y="901" type="line" name="hr02"/>
      <point x="376" y="879"/>
      <point x="384" y="831"/>
      <point x="384" y="788" type="curve" smooth="yes"/>
      <point x="384" y="727"/>
      <point x="372" y="664"/>
      <point x="359" y="602" type="curve" smooth="yes"/>
    </contour>
    <contour>
      <point x="375" y="1100" type="move" name="U"/>
    </contour>
    <contour>
      <point x="232" y="-500" type="move" name="L"/>
    </contour>
  </outline>
</glyph>
<glyph name="LtnSmCapInvR" format="1">
  <advance width="985"/>
  <unicode hex="0281"/>
  <outline>
    <contour>
      <point x="1094" y="918" type="curve" name="hr01"/>
      <point x="1094" y="993" type="line" name="hr02"/>
      <point x="1061" y="1004"/>
      <point x="1038" y="1012"/>
      <point x="993" y="1012" type="curve" smooth="yes" name="hr03"/>
      <point x="872" y="1012"/>
      <point x="799" y="954"/>
      <point x="733" y="864" type="curve" smooth="yes"/>
      <point x="631" y="721"/>
      <point x="580" y="555"/>
      <point x="360" y="555" type="curve" smooth="yes"/>
      <point x="346" y="555"/>
      <point x="336" y="557"/>
      <point x="332" y="557" type="curve"/>
      <point x="393" y="868" type="line" smooth="yes" name="hr04"/>
      <point x="397" y="883"/>
      <point x="416" y="903"/>
      <point x="438" y="903" type="curve"/>
      <point x="524" y="909" type="line"/>
      <point x="524" y="987" type="line" name="hr05"/>
      <point x="102" y="987" type="line"/>
      <point x="102" y="909" type="line"/>
      <point x="174" y="905" type="line" smooth="yes"/>
      <point x="201" y="903"/>
      <point x="215" y="883"/>
      <point x="211" y="868" type="curve" smooth="yes"/>
      <point x="61" y="127" type="line" smooth="yes"/>
      <point x="57" y="111"/>
      <point x="33" y="86"/>
      <point x="6" y="84" type="curve" smooth="yes"/>
      <point x="-66" y="78" type="line"/>
      <point x="-66" y="0" type="line" name="hr06"/>
      <point x="348" y="0" type="line" smooth="yes"/>
      <point x="571" y="0"/>
      <point x="819" y="49"/>
      <point x="819" y="311" type="curve" smooth="yes"/>
      <point x="819" y="414"/>
      <point x="707" y="485"/>
      <point x="610" y="514" type="curve"/>
      <point x="725" y="553"/>
      <point x="776" y="643"/>
      <point x="836" y="739" type="curve" smooth="yes"/>
      <point x="893" y="834"/>
      <point x="948" y="918"/>
    </contour>
    <contour>
      <point x="616" y="313" type="curve" smooth="yes" name="hr08"/>
      <point x="616" y="135"/>
      <point x="455" y="88"/>
      <point x="299" y="88" type="curve" smooth="yes"/>
      <point x="299" y="88"/>
      <point x="256" y="88"/>
      <point x="233" y="88" type="curve"/>
      <point x="311" y="467" type="line"/>
      <point x="324" y="467"/>
      <point x="352" y="469"/>
      <point x="371" y="469" type="curve" smooth="yes"/>
      <point x="512" y="469"/>
      <point x="616" y="401"/>
    </contour>
    <contour>
      <point x="629" y="1100" type="move" name="U"/>
    </contour>
    <contour>
      <point x="385" y="-100" type="move" name="L"/>
    </contour>
  </outline>
</glyph>
<glyph name="LtnSmEsh" format="1">
  <advance width="557"/>
  <unicode hex="0283"/>
  <outline>
    <contour>
      <point x="831" y="1403" type="curve" smooth="yes" name="hr00"/>
      <point x="831" y="1479"/>
      <point x="725" y="1509"/>
      <point x="672" y="1509" type="curve" smooth="yes"/>
      <point x="428" y="1509"/>
      <point x="250" y="1327"/>
      <point x="233" y="1090" type="curve" smooth="yes"/>
      <point x="154" y="-72" type="line"/>
      <point x="143" y="-199"/>
      <point x="137" y="-303"/>
      <point x="8" y="-358" type="curve"/>
      <point x="-152" y="-252" type="line"/>
      <point x="-203" y="-268"/>
      <point x="-252" y="-311"/>
      <point x="-252" y="-367" type="curve" smooth="yes"/>
      <point x="-252" y="-440"/>
      <point x="-143" y="-469"/>
      <point x="-90" y="-469" type="curve" smooth="yes"/>
      <point x="152" y="-469"/>
      <point x="330" y="-289"/>
      <point x="346" y="-51" type="curve" smooth="yes"/>
      <point x="428" y="1110" type="line" smooth="yes"/>
      <point x="438" y="1239"/>
      <point x="444" y="1337"/>
      <point x="573" y="1395" type="curve"/>
      <point x="729" y="1290" type="line"/>
      <point x="782" y="1307"/>
      <point x="831" y="1348"/>
    </contour>
    <contour>
      <point x="480" y="1540" type="move" name="U"/>
    </contour>
    <contour>
      <point x="88" y="-500" type="move" name="L"/>
    </contour>
  </outline>
</glyph>
<glyph name="LtnSmEzhCurl" format="1">
  <advance width="971"/>
  <unicode hex="0293"/>
  <outline>
    <contour>
      <point x="1040" y="926" type="line" name="hr01"/>
      <point x="909" y="1024" type="line"/>
      <point x="844" y="932" type="line" name="hr02"/>
      <point x="815" y="928"/>
      <point x="786" y="920"/>
      <point x="758" y="920" type="curve" smooth="yes"/>
      <point x="623" y="920"/>
      <point x="500" y="1012"/>
      <point x="360" y="1012" type="curve" smooth="yes"/>
      <point x="207" y="1012"/>
      <point x="80" y="870"/>
      <point x="80" y="719" type="curve" smooth="yes" name="hr03"/>
      <point x="80" y="655"/>
      <point x="123" y="598"/>
      <point x="190" y="598" type="curve" smooth="yes"/>
      <point x="233" y="598"/>
      <point x="279" y="631"/>
      <point x="299" y="666" type="curve"/>
      <point x="195" y="797" type="line"/>
      <point x="215" y="829"/>
      <point x="260" y="856"/>
      <point x="301" y="856" type="curve" smooth="yes"/>
      <point x="381" y="856"/>
      <point x="453" y="811"/>
      <point x="528" y="811" type="curve" smooth="yes" name="hr04"/>
      <point x="598" y="811"/>
      <point x="762" y="819"/>
      <point x="762" y="819" type="curve"/>
      <point x="180" y="299" type="line"/>
      <point x="293" y="205" type="line"/>
      <point x="369" y="305" type="line"/>
      <point x="506" y="297"/>
      <point x="643" y="168"/>
      <point x="643" y="23" type="curve" smooth="yes"/>
      <point x="643" y="-76"/>
      <point x="602" y="-168"/>
      <point x="530" y="-236" type="curve"/>
      <point x="459" y="-123"/>
      <point x="356" y="-29"/>
      <point x="190" y="-29" type="curve" smooth="yes"/>
      <point x="72" y="-29"/>
      <point x="-92" y="-86"/>
      <point x="-92" y="-213" type="curve" smooth="yes"/>
      <point x="-92" y="-358"/>
      <point x="-12" y="-469"/>
      <point x="258" y="-469" type="curve" smooth="yes"/>
      <point x="338" y="-469"/>
      <point x="410" y="-457"/>
      <point x="504" y="-399" type="curve"/>
      <point x="518" y="-430"/>
      <point x="528" y="-459"/>
      <point x="537" y="-485" type="curve"/>
      <point x="631" y="-434" type="line"/>
      <point x="618" y="-410"/>
      <point x="608" y="-383"/>
      <point x="596" y="-354" type="curve"/>
      <point x="745" y="-266"/>
      <point x="842" y="-158"/>
      <point x="842" y="23" type="curve" smooth="yes"/>
      <point x="842" y="256"/>
      <point x="676" y="381"/>
      <point x="463" y="391" type="curve"/>
    </contour>
    <contour>
      <point x="446" y="-317" type="curve"/>
      <point x="393" y="-358"/>
      <point x="340" y="-385"/>
      <point x="283" y="-385" type="curve" smooth="yes"/>
      <point x="201" y="-385"/>
      <point x="63" y="-342"/>
      <point x="63" y="-242" type="curve" smooth="yes"/>
      <point x="63" y="-184"/>
      <point x="133" y="-143"/>
      <point x="190" y="-143" type="curve" smooth="yes"/>
      <point x="297" y="-143"/>
      <point x="385" y="-223"/>
    </contour>
    <contour>
      <point x="614" y="1100" type="move" name="U"/>
    </contour>
    <contour>
      <point x="294" y="-500" type="move" name="L"/>
    </contour>
  </outline>
</glyph>
<glyph name="LtnBilabialClick" format="1">
  <advance width="1589"/>
  <unicode hex="0298"/>
  <outline>
    <contour>
      <point x="1552" y="827" type="curve" smooth="yes" name="hr00"/>
      <point x="1552" y="1167"/>
      <point x="1305" y="1407"/>
      <point x="967" y="1407" type="curve" smooth="yes"/>
      <point x="520" y="1407"/>
      <point x="94" y="995"/>
      <point x="94" y="547" type="curve" smooth="yes"/>
      <point x="94" y="207"/>
      <point x="344" y="-33"/>
      <point x="680" y="-33" type="curve" smooth="yes"/>
      <point x="1126" y="-33"/>
      <point x="1552" y="379"/>
    </contour>
    <contour>
      <point x="1409" y="801" type="curve" smooth="yes"/>
      <point x="1409" y="438"/>
      <point x="1067" y="109"/>
      <point x="709" y="109" type="curve" smooth="yes"/>
      <point x="440" y="109"/>
      <point x="238" y="303"/>
      <point x="238" y="573" type="curve" smooth="yes"/>
      <point x="238" y="936"/>
      <point x="582" y="1266"/>
      <point x="940" y="1266" type="curve" smooth="yes"/>
      <point x="1210" y="1266"/>
      <point x="1409" y="1071"/>
    </contour>
    <contour>
      <point x="973" y="731" type="curve" smooth="yes"/>
      <point x="973" y="797"/>
      <point x="915" y="836"/>
      <point x="854" y="836" type="curve" smooth="yes"/>
      <point x="762" y="836"/>
      <point x="682" y="758"/>
      <point x="682" y="666" type="curve" smooth="yes"/>
      <point x="682" y="598"/>
      <point x="727" y="545"/>
      <point x="797" y="545" type="curve" smooth="yes"/>
      <point x="895" y="545"/>
      <point x="973" y="635"/>
    </contour>
    <contour>
      <point x="951" y="1500" type="move" name="U"/>
    </contour>
    <contour>
      <point x="663" y="-100" type="move" name="L"/>
    </contour>
  </outline>
</glyph>
<glyph name="LtnSmFengDigraph" format="1">
  <advance width="1697"/>
  <unicode hex="02A9"/>
  <outline>
    <contour>
      <point x="903" y="1382" type="curve" smooth="yes" name="hr01"/>
      <point x="903" y="1430"/>
      <point x="854" y="1509"/>
      <point x="715" y="1509" type="curve" smooth="yes"/>
      <point x="434" y="1509"/>
      <point x="311" y="1171"/>
      <point x="270" y="954" type="curve"/>
      <point x="92" y="895" type="line"/>
      <point x="90" y="815" type="line"/>
      <point x="248" y="831" type="line"/>
      <point x="207" y="563"/>
      <point x="182" y="319"/>
      <point x="147" y="127" type="curve"/>
      <point x="115" y="-63"/>
      <point x="68" y="-233"/>
      <point x="-4" y="-322" type="curve"/>
      <point x="-213" y="-268" type="line"/>
      <point x="-244" y="-291"/>
      <point x="-266" y="-315"/>
      <point x="-266" y="-367" type="curve" smooth="yes"/>
      <point x="-266" y="-387"/>
      <point x="-242" y="-469"/>
      <point x="-137" y="-469" type="curve" smooth="yes"/>
      <point x="66" y="-469"/>
      <point x="260" y="-184"/>
      <point x="315" y="45" type="curve" smooth="yes"/>
      <point x="352" y="197"/>
      <point x="426" y="741"/>
      <point x="438" y="834" type="curve"/>
      <point x="857" y="834" type="line"/>
      <point x="687" y="0" type="line"/>
      <point x="878" y="0" type="line"/>
      <point x="1019" y="688" type="line"/>
      <point x="1109" y="784"/>
      <point x="1248" y="866"/>
      <point x="1314" y="866" type="curve" smooth="yes" name="hr02"/>
      <point x="1396" y="866"/>
      <point x="1416" y="791"/>
      <point x="1404" y="725" type="curve"/>
      <point x="1254" y="-14" type="line"/>
      <point x="1213" y="-221"/>
      <point x="1179" y="-317"/>
      <point x="1076" y="-356" type="curve"/>
      <point x="916" y="-236" type="line"/>
      <point x="916" y="-236"/>
      <point x="804" y="-270"/>
      <point x="804" y="-365" type="curve" smooth="yes"/>
      <point x="804" y="-418"/>
      <point x="847" y="-469"/>
      <point x="959" y="-469" type="curve" smooth="yes"/>
      <point x="1209" y="-469"/>
      <point x="1420" y="-254"/>
      <point x="1463" y="-18" type="curve"/>
      <point x="1609" y="750" type="line" smooth="yes"/>
      <point x="1615" y="780"/>
      <point x="1617" y="811"/>
      <point x="1617" y="836" type="curve" smooth="yes"/>
      <point x="1617" y="958"/>
      <point x="1551" y="1012"/>
      <point x="1426" y="1012" type="curve" smooth="yes"/>
      <point x="1289" y="1012"/>
      <point x="1136" y="913"/>
      <point x="1046" y="821" type="curve"/>
      <point x="1084" y="1012" type="line"/>
      <point x="1002" y="1012" type="line"/>
      <point x="693" y="936" type="line" name="hr03"/>
      <point x="457" y="936" type="line"/>
      <point x="471" y="1040"/>
      <point x="528" y="1329"/>
      <point x="614" y="1401" type="curve"/>
      <point x="774" y="1272" type="line"/>
      <point x="850" y="1282"/>
      <point x="903" y="1317"/>
    </contour>
    <contour>
      <point x="965" y="1540" type="move" name="U"/>
    </contour>
    <contour>
      <point x="541" y="-500" type="move" name="L"/>
    </contour>
  </outline>
</glyph>
<glyph name="LtnBidentalPercussive" format="1">
  <advance width="1086"/>
  <unicode hex="02AD"/>
  <outline>
    <contour>
      <point x="1057" y="1005" type="line" name="hr00"/>
      <point x="1139" y="1410" type="line"/>
      <point x="325" y="1410" type="line"/>
      <point x="243" y="1005" type="line"/>
      <point x="316" y="1005" type="line"/>
      <point x="374" y="1292" type="line"/>
      <point x="1043" y="1292" type="line"/>
      <point x="985" y="1005" type="line"/>
    </contour>
    <contour>
      <point x="863" y="0" type="line"/>
      <point x="945" y="405" type="line"/>
      <point x="130" y="405" type="line"/>
      <point x="48" y="0" type="line"/>
      <point x="121" y="0" type="line"/>
      <point x="179" y="287" type="line"/>
      <point x="848" y="287" type="line"/>
      <point x="790" y="0" type="line"/>
    </contour>
    <contour>
      <point x="747" y="1540" type="move" name="U"/>
    </contour>
    <contour>
      <point x="431" y="-100" type="move" name="L"/>
    </contour>
  </outline>
</glyph>
<glyph name="LtnSmTurnedHFishhook" format="1">
  <advance width="1126"/>
  <unicode hex="02AE"/>
  <outline>
    <contour>
      <point x="1067" y="987" type="line" name="hr01"/>
      <point x="879" y="987" type="line"/>
      <point x="729" y="270" type="line"/>
      <point x="639" y="176"/>
      <point x="512" y="111"/>
      <point x="446" y="111" type="curve" smooth="yes"/>
      <point x="401" y="111"/>
      <point x="326" y="166"/>
      <point x="348" y="274" type="curve" smooth="yes"/>
      <point x="426" y="647" type="line" smooth="yes"/>
      <point x="471" y="862"/>
      <point x="395" y="1012"/>
      <point x="150" y="1012" type="curve" smooth="yes" name="hr02"/>
      <point x="33" y="1012"/>
      <point x="-49" y="954"/>
      <point x="-49" y="889" type="curve" smooth="yes"/>
      <point x="-49" y="805"/>
      <point x="8" y="780"/>
      <point x="20" y="776" type="curve"/>
      <point x="215" y="911" type="line" name="hr03"/>
      <point x="268" y="881"/>
      <point x="266" y="795"/>
      <point x="227" y="602" type="curve" smooth="yes"/>
      <point x="154" y="252" type="line" smooth="yes"/>
      <point x="115" y="68"/>
      <point x="184" y="-25"/>
      <point x="334" y="-25" type="curve" smooth="yes" name="hr04"/>
      <point x="471" y="-25"/>
      <point x="618" y="47"/>
      <point x="702" y="139" type="curve"/>
      <point x="575" y="-469" type="line"/>
      <point x="657" y="-469" type="line"/>
      <point x="977" y="-408" type="line"/>
      <point x="977" y="-346" type="line"/>
      <point x="795" y="-330" type="line"/>
    </contour>
    <contour>
      <point x="639" y="1100" type="move" name="U"/>
    </contour>
    <contour>
      <point x="319" y="-500" type="move" name="L"/>
    </contour>
  </outline>
</glyph>
<glyph name="ModTurnedComma" format="1">
  <advance width="520"/>
  <unicode hex="02BB"/>
  <outline>
    <contour>
      <point x="582" y="1446" type="curve" name="hr00"/>
      <point x="463" y="1446" type="line"/>
      <point x="375" y="1378"/>
      <point x="184" y="1204"/>
      <point x="184" y="1034" type="curve" smooth="yes"/>
      <point x="184" y="928"/>
      <point x="250" y="881"/>
      <point x="340" y="881" type="curve" smooth="yes"/>
      <point x="430" y="881"/>
      <point x="494" y="961"/>
      <point x="494" y="1028" type="curve" smooth="yes"/>
      <point x="494" y="1065"/>
      <point x="481" y="1081"/>
      <point x="473" y="1092" type="curve"/>
      <point x="348" y="1092" type="line"/>
      <point x="352" y="1229"/>
      <point x="489" y="1358"/>
    </contour>
  </outline>
</glyph>
<glyph name="ModLowMacron" format="1">
  <advance width="625"/>
  <unicode hex="02CD"/>
  <outline>
    <contour>
      <point x="486" y="-180" type="line" name="hr00"/>
      <point x="-131" y="-180" type="line"/>
      <point x="-160" y="-315" type="line"/>
      <point x="460" y="-315" type="line"/>
    </contour>
  </outline>
</glyph>
<glyph name="ModTriangularColon" format="1">
  <advance width="401"/>
  <unicode hex="02D0"/>
  <outline>
    <contour>
      <point x="461" y="985" type="line" name="hr01"/>
      <point x="119" y="985" type="line"/>
      <point x="150" y="647" type="line" name="hr02"/>
      <point x="299" y="647" type="line"/>
    </contour>
    <contour>
      <point x="268" y="0" type="line"/>
      <point x="238" y="338" type="line" name="hr03"/>
      <point x="90" y="338" type="line"/>
      <point x="-74" y="0" type="line"/>
    </contour>
    <contour>
      <point x="289" y="1100" type="move" name="U"/>
    </contour>
    <contour>
      <point x="100" y="-100" type="move" name="L"/>
    </contour>
  </outline>
</glyph>
<glyph name="ModHalfTriangularColon" format="1">
  <advance width="397"/>
  <unicode hex="02D1"/>
  <outline>
    <contour>
      <point x="457" y="985" type="line" name="hr01"/>
      <point x="115" y="985" type="line"/>
      <point x="145" y="647" type="line" name="hr02"/>
      <point x="295" y="647" type="line"/>
    </contour>
  </outline>
</glyph>
<glyph name="ModCntrdRtHalfRing" format="1">
  <advance width="563"/>
  <unicode hex="02D2"/>
  <outline>
    <contour>
      <point x="434" y="442" type="curve" smooth="yes" name="hr00"/>
      <point x="434" y="623"/>
      <point x="311" y="717"/>
      <point x="137" y="717" type="curve"/>
      <point x="117" y="612" type="line"/>
      <point x="238" y="612"/>
      <point x="330" y="551"/>
      <point x="330" y="422" type="curve" smooth="yes"/>
      <point x="330" y="238"/>
      <point x="201" y="102"/>
      <point x="14" y="102" type="curve"/>
      <point x="-4" y="0" type="line"/>
      <point x="246" y="0"/>
      <point x="434" y="193"/>
    </contour>
  </outline>
</glyph>
<glyph name="ModUpTack" format="1">
  <advance width="776"/>
  <unicode hex="02D4"/>
  <outline>
    <contour>
      <point x="631" y="317" type="line" name="hr00"/>
      <point x="385" y="317" type="line"/>
      <point x="467" y="727" type="line"/>
      <point x="385" y="727" type="line"/>
      <point x="305" y="317" type="line"/>
      <point x="59" y="317" type="line"/>
      <point x="43" y="236" type="line"/>
      <point x="614" y="236" type="line"/>
    </contour>
  </outline>
</glyph>
<glyph name="ModDwnTack" format="1">
  <advance width="776"/>
  <unicode hex="02D5"/>
  <outline>
    <contour>
      <point x="711" y="727" type="line" name="hr00"/>
      <point x="139" y="727" type="line"/>
      <point x="125" y="645" type="line"/>
      <point x="371" y="645" type="line"/>
      <point x="291" y="236" type="line"/>
      <point x="371" y="236" type="line"/>
      <point x="451" y="645" type="line"/>
      <point x="694" y="645" type="line"/>
    </contour>
  </outline>
</glyph>
<glyph name="ModPlusSgn" format="1">
  <advance width="475"/>
  <unicode hex="02D6"/>
  <outline>
    <contour>
      <point x="478" y="546" type="line" name="hr00"/>
      <point x="288" y="546" type="line"/>
      <point x="324" y="736" type="line"/>
      <point x="230" y="736" type="line"/>
      <point x="193" y="546" type="line"/>
      <point x="3" y="546" type="line"/>
      <point x="-16" y="451" type="line"/>
      <point x="177" y="451" type="line"/>
      <point x="138" y="261" type="line"/>
      <point x="232" y="261" type="line"/>
      <point x="269" y="451" type="line"/>
      <point x="460" y="451" type="line"/>
    </contour>
  </outline>
</glyph>
<glyph name="DotAbv" format="1">
  <advance width="231"/>
  <unicode hex="02D9"/>
  <outline>
    <contour>
      <point x="391" y="1313" type="curve" smooth="yes" name="hr00"/>
      <point x="391" y="1378"/>
      <point x="340" y="1430"/>
      <point x="276" y="1430" type="curve" smooth="yes"/>
      <point x="211" y="1430"/>
      <point x="162" y="1376"/>
      <point x="162" y="1313" type="curve" smooth="yes"/>
      <point x="162" y="1249"/>
      <point x="213" y="1198"/>
      <point x="276" y="1198" type="curve" smooth="yes"/>
      <point x="340" y="1198"/>
      <point x="391" y="1249"/>
    </contour>
  </outline>
</glyph>
<glyph name="SmTilde" format="1">
  <advance width="739"/>
  <unicode hex="02DC"/>
  <outline>
    <contour>
      <point x="918" y="1415" type="curve" name="hr01"/>
      <point x="809" y="1415" type="line"/>
      <point x="786" y="1360"/>
      <point x="731" y="1321"/>
      <point x="694" y="1321" type="curve" smooth="yes"/>
      <point x="631" y="1321"/>
      <point x="598" y="1346"/>
      <point x="563" y="1366" type="curve" smooth="yes"/>
      <point x="520" y="1395"/>
      <point x="481" y="1415"/>
      <point x="426" y="1415" type="curve" smooth="yes" name="hr02"/>
      <point x="279" y="1415"/>
      <point x="188" y="1317"/>
      <point x="131" y="1198" type="curve"/>
      <point x="240" y="1198" type="line"/>
      <point x="262" y="1253"/>
      <point x="319" y="1292"/>
      <point x="354" y="1292" type="curve" smooth="yes"/>
      <point x="418" y="1292"/>
      <point x="451" y="1268"/>
      <point x="485" y="1245" type="curve" smooth="yes"/>
      <point x="528" y="1219"/>
      <point x="565" y="1198"/>
      <point x="621" y="1198" type="curve" smooth="yes" name="hr03"/>
      <point x="768" y="1198"/>
      <point x="860" y="1296"/>
    </contour>
  </outline>
</glyph>
<glyph name="ModCrossAccent" format="1">
  <advance width="475"/>
  <unicode hex="02DF"/>
  <outline>
    <contour>
      <point x="397" y="314" type="line" name="hr00"/>
      <point x="463" y="380" type="line"/>
      <point x="351" y="492" type="line"/>
      <point x="463" y="604" type="line"/>
      <point x="397" y="670" type="line"/>
      <point x="285" y="558" type="line"/>
      <point x="173" y="670" type="line"/>
      <point x="107" y="604" type="line"/>
      <point x="219" y="492" type="line"/>
      <point x="107" y="380" type="line"/>
      <point x="173" y="314" type="line"/>
      <point x="285" y="426" type="line"/>
    </contour>
  </outline>
</glyph>
<glyph name="ModSmL" format="1">
  <advance width="352"/>
  <unicode hex="02E1"/>
  <outline>
    <contour>
      <point x="465" y="815" type="curve" name="hr00"/>
      <point x="465" y="862" type="line"/>
      <point x="451" y="858"/>
      <point x="383" y="838"/>
      <point x="356" y="838" type="curve" smooth="yes"/>
      <point x="317" y="838"/>
      <point x="289" y="870"/>
      <point x="297" y="905" type="curve" smooth="yes"/>
      <point x="461" y="1690" type="line"/>
      <point x="406" y="1690" type="line"/>
      <point x="199" y="1653" type="line"/>
      <point x="199" y="1616" type="line"/>
      <point x="317" y="1606" type="line"/>
      <point x="170" y="901" type="line" smooth="yes"/>
      <point x="168" y="887"/>
      <point x="166" y="870"/>
      <point x="166" y="858" type="curve" smooth="yes"/>
      <point x="166" y="805"/>
      <point x="197" y="770"/>
      <point x="279" y="770" type="curve" smooth="yes"/>
      <point x="342" y="770"/>
      <point x="442" y="809"/>
    </contour>
    <contour>
      <point x="408" y="1700" type="move" name="U"/>
    </contour>
    <contour>
      <point x="229" y="725" type="move" name="L"/>
    </contour>
  </outline>
</glyph>
<glyph name="ModYangDepartingToneMrk" format="1">
  <advance width="655"/>
  <unicode hex="02EB"/>
  <outline>
    <contour>
      <point x="567" y="528" type="line" name="hr00"/>
      <point x="199" y="528" type="line"/>
      <point x="246" y="774" type="line"/>
      <point x="164" y="774" type="line"/>
      <point x="53" y="203" type="line"/>
      <point x="135" y="203" type="line"/>
      <point x="182" y="446" type="line"/>
      <point x="551" y="446" type="line"/>
    </contour>
  </outline>
</glyph>
<glyph name="ModUnaspd" format="1">
  <advance width="830"/>
  <unicode hex="02ED"/>
  <outline>
    <contour>
      <point x="817" y="960" type="line" name="hr00"/>
      <point x="129" y="960" type="line"/>
      <point x="100" y="825" type="line"/>
      <point x="791" y="825" type="line"/>
    </contour>
    <contour>
      <point x="870" y="1205" type="line"/>
      <point x="182" y="1205" type="line"/>
      <point x="153" y="1070" type="line"/>
      <point x="844" y="1070" type="line"/>
    </contour>
  </outline>
</glyph>
<glyph name="ModOpnShelf" format="1">
  <advance width="1070"/>
  <unicode hex="02FE"/>
  <outline>
    <contour>
      <point x="5" y="-237" type="line" name="hr00"/>
      <point x="43" y="-50" type="line"/>
      <point x="-65" y="-50" type="line"/>
      <point x="-126" y="-356" type="line"/>
      <point x="851" y="-356" type="line"/>
      <point x="875" y="-237" type="line"/>
    </contour>
  </outline>
</glyph>
<glyph name="CombCircum" format="1">
  <advance width="0"/>
  <unicode hex="0302"/>
  <outline>
    <contour>
      <point x="-28" y="1128" type="line" name="hr00"/>
      <point x="-229" y="1475" type="line"/>
      <point x="-390" y="1475" type="line"/>
      <point x="-728" y="1128" type="line"/>
      <point x="-585" y="1128" type="line"/>
      <point x="-339" y="1317" type="line"/>
      <point x="-171" y="1128" type="line"/>
    </contour>
    <contour>
      <point x="-339" y="1500" type="move" name="U"/>
    </contour>
    <contour>
      <point x="-383" y="1100" type="move" name="_U"/>
    </contour>
  </outline>
</glyph>
<glyph name="CombMacron" format="1">
  <advance width="0"/>
  <unicode hex="0304"/>
  <outline>
    <contour>
      <point x="-27" y="1335" type="line" name="hr00"/>
      <point x="-644" y="1335" type="line"/>
      <point x="-673" y="1200" type="line"/>
      <point x="-53" y="1200" type="line"/>
    </contour>
    <contour>
      <point x="-324" y="1470" type="move" name="U"/>
    </contour>
    <contour>
      <point x="-383" y="1100" type="move" name="_U"/>
    </contour>
  </outline>
</glyph>
<glyph name="CombOverline" format="1">
  <advance width="0"/>
  <unicode hex="0305"/>
  <outline>
    <contour>
      <point x="329" y="1565" type="line" name="hr00"/>
      <point x="-908" y="1565" type="line"/>
      <point x="-937" y="1430" type="line"/>
      <point x="303" y="1430" type="line"/>
    </contour>
    <contour>
      <point x="-383" y="1100" type="move" name="_U"/>
    </contour>
    <contour>
      <point x="-303" y="1580" type="move" name="U"/>
    </contour>
  </outline>
</glyph>
<glyph name="CombCaron" format="1">
  <advance width="0"/>
  <unicode hex="030C"/>
  <outline>
    <contour>
      <point x="45" y="1475" type="line" name="hr00"/>
      <point x="-101" y="1475" type="line"/>
      <point x="-344" y="1286" type="line"/>
      <point x="-514" y="1475" type="line"/>
      <point x="-658" y="1475" type="line"/>
      <point x="-457" y="1128" type="line"/>
      <point x="-295" y="1128" type="line"/>
    </contour>
    <contour>
      <point x="-339" y="1500" type="move" name="U"/>
    </contour>
    <contour>
      <point x="-383" y="1100" type="move" name="_U"/>
    </contour>
  </outline>
</glyph>
<glyph name="CombVertLineAbv" format="1">
  <advance width="0"/>
  <unicode hex="030D"/>
  <outline>
    <contour>
      <point x="-261" y="1479" type="line" name="hr00"/>
      <point x="-355" y="1479" type="line"/>
      <point x="-423" y="1128" type="line"/>
      <point x="-329" y="1128" type="line"/>
    </contour>
    <contour>
      <point x="-339" y="1500" type="move" name="U"/>
    </contour>
    <contour>
      <point x="-383" y="1100" type="move" name="_U"/>
    </contour>
  </outline>
</glyph>
<glyph name="CombDblVertLineAbv" format="1">
  <advance width="0"/>
  <unicode hex="030E"/>
  <outline>
    <contour>
      <point x="-136" y="1479" type="line" name="hr00"/>
      <point x="-231" y="1479" type="line"/>
      <point x="-298" y="1128" type="line"/>
      <point x="-204" y="1128" type="line"/>
    </contour>
    <contour>
      <point x="-386" y="1479" type="line"/>
      <point x="-480" y="1479" type="line"/>
      <point x="-548" y="1128" type="line"/>
      <point x="-454" y="1128" type="line"/>
    </contour>
    <contour>
      <point x="-339" y="1500" type="move" name="U"/>
    </contour>
    <contour>
      <point x="-383" y="1100" type="move" name="_U"/>
    </contour>
  </outline>
</glyph>
<glyph name="CombGraveBlw" format="1">
  <advance width="0"/>
  <unicode hex="0316"/>
  <outline>
    <contour>
      <point x="-452" y="-496" type="line" name="hr00"/>
      <point x="-726" y="-176" type="line" smooth="yes"/>
      <point x="-751" y="-147"/>
      <point x="-773" y="-125"/>
      <point x="-830" y="-125" type="curve" smooth="yes"/>
      <point x="-902" y="-125"/>
      <point x="-923" y="-174"/>
      <point x="-923" y="-215" type="curve" smooth="yes"/>
      <point x="-923" y="-256"/>
      <point x="-904" y="-283"/>
      <point x="-875" y="-301" type="curve" smooth="yes"/>
      <point x="-579" y="-496" type="line"/>
    </contour>
    <contour>
      <point x="-713" y="-500" type="move" name="L"/>
    </contour>
    <contour>
      <point x="-637" y="-100" type="move" name="_L"/>
    </contour>
  </outline>
</glyph>
<glyph name="CombHorn" format="1">
  <advance width="384"/>
  <unicode hex="031B"/>
  <outline>
    <contour>
      <point x="454" y="1547" type="curve" smooth="yes" name="hr01"/>
      <point x="454" y="1666"/>
      <point x="370" y="1697"/>
      <point x="304" y="1697" type="curve" smooth="yes" name="hr02"/>
      <point x="212" y="1697"/>
      <point x="115" y="1614"/>
      <point x="115" y="1515" type="curve" smooth="yes"/>
      <point x="115" y="1489"/>
      <point x="127" y="1468"/>
      <point x="133" y="1458" type="curve"/>
      <point x="280" y="1458" type="line"/>
      <point x="280" y="1345"/>
      <point x="168" y="1213"/>
      <point x="56" y="1132" type="curve"/>
      <point x="56" y="1053" type="line"/>
      <point x="240" y="1128"/>
      <point x="454" y="1373"/>
    </contour>
    <contour>
      <point x="0" y="1200" type="move" name="_R"/>
    </contour>
  </outline>
</glyph>
<glyph name="CombLftHalfRingBlw" format="1">
  <advance width="0"/>
  <unicode hex="031C"/>
  <outline>
    <contour>
      <point x="-542" y="-125" type="line" name="hr00"/>
      <point x="-669" y="-125"/>
      <point x="-786" y="-236"/>
      <point x="-786" y="-362" type="curve" smooth="yes"/>
      <point x="-786" y="-455"/>
      <point x="-714" y="-524"/>
      <point x="-622" y="-524" type="curve"/>
      <point x="-608" y="-451" type="line"/>
      <point x="-665" y="-451"/>
      <point x="-714" y="-412"/>
      <point x="-714" y="-350" type="curve" smooth="yes"/>
      <point x="-714" y="-268"/>
      <point x="-639" y="-197"/>
      <point x="-557" y="-197" type="curve"/>
    </contour>
    <contour>
      <point x="-713" y="-500" type="move" name="L"/>
    </contour>
    <contour>
      <point x="-637" y="-100" type="move" name="_L"/>
    </contour>
  </outline>
</glyph>
<glyph name="CombMinusSgnBlw" format="1">
  <advance width="0"/>
  <unicode hex="0320"/>
  <outline>
    <contour>
      <point x="-429" y="-125" type="line" name="hr00"/>
      <point x="-857" y="-125" type="line"/>
      <point x="-874" y="-207" type="line"/>
      <point x="-445" y="-207" type="line"/>
    </contour>
    <contour>
      <point x="-637" y="-100" type="move" name="_L"/>
    </contour>
    <contour>
      <point x="-713" y="-500" type="move" name="L"/>
    </contour>
  </outline>
</glyph>
<glyph name="CombRingBlw" format="1">
  <advance width="0"/>
  <unicode hex="0325"/>
  <outline>
    <contour>
      <point x="-735" y="-604" type="curve" smooth="yes" name="hr00"/>
      <point x="-585" y="-604"/>
      <point x="-448" y="-473"/>
      <point x="-448" y="-322" type="curve" smooth="yes"/>
      <point x="-448" y="-207"/>
      <point x="-534" y="-125"/>
      <point x="-647" y="-125" type="curve" smooth="yes"/>
      <point x="-796" y="-125"/>
      <point x="-935" y="-258"/>
      <point x="-935" y="-408" type="curve" smooth="yes"/>
      <point x="-935" y="-522"/>
      <point x="-849" y="-604"/>
    </contour>
    <contour>
      <point x="-552" y="-338" type="curve" smooth="yes"/>
      <point x="-552" y="-422"/>
      <point x="-636" y="-500"/>
      <point x="-720" y="-500" type="curve" smooth="yes"/>
      <point x="-782" y="-500"/>
      <point x="-829" y="-457"/>
      <point x="-829" y="-393" type="curve" smooth="yes"/>
      <point x="-829" y="-309"/>
      <point x="-747" y="-231"/>
      <point x="-663" y="-231" type="curve" smooth="yes"/>
      <point x="-602" y="-231"/>
      <point x="-552" y="-274"/>
    </contour>
    <contour>
      <point x="-743" y="-657" type="move" name="L"/>
    </contour>
    <contour>
      <point x="-637" y="-100" type="move" name="_L"/>
    </contour>
  </outline>
</glyph>
<glyph name="CombOgonek" format="1">
  <advance width="0"/>
  <unicode hex="0328"/>
  <outline>
    <contour>
      <point x="-437" y="0" type="curve" name="hr00"/>
      <point x="-547" y="0" type="line"/>
      <point x="-642" y="-68"/>
      <point x="-740" y="-186"/>
      <point x="-740" y="-307" type="curve" smooth="yes"/>
      <point x="-740" y="-408"/>
      <point x="-660" y="-442"/>
      <point x="-572" y="-442" type="curve" smooth="yes"/>
      <point x="-535" y="-442"/>
      <point x="-496" y="-436"/>
      <point x="-461" y="-428" type="curve"/>
      <point x="-443" y="-311" type="line"/>
      <point x="-468" y="-317"/>
      <point x="-492" y="-322"/>
      <point x="-519" y="-322" type="curve" smooth="yes"/>
      <point x="-564" y="-322"/>
      <point x="-601" y="-301"/>
      <point x="-601" y="-252" type="curve" smooth="yes"/>
      <point x="-601" y="-147"/>
      <point x="-513" y="-59"/>
    </contour>
    <contour>
      <point x="-534" y="-400" type="move" name="L"/>
    </contour>
    <contour>
      <point x="-410" y="0" type="move" name="_O"/>
    </contour>
  </outline>
</glyph>
<glyph name="CombVertLineBlw" format="1">
  <advance width="0"/>
  <unicode hex="0329"/>
  <outline>
    <contour>
      <point x="-596" y="-125" type="line" name="hr00"/>
      <point x="-690" y="-125" type="line"/>
      <point x="-760" y="-475" type="line"/>
      <point x="-666" y="-475" type="line"/>
    </contour>
    <contour>
      <point x="-713" y="-500" type="move" name="L"/>
    </contour>
    <contour>
      <point x="-637" y="-100" type="move" name="_L"/>
    </contour>
  </outline>
</glyph>
<glyph name="CombBridgeBlw" format="1">
  <advance width="0"/>
  <unicode hex="032A"/>
  <outline>
    <contour>
      <point x="-433" y="-125" type="line" name="hr00"/>
      <point x="-853" y="-125" type="line"/>
      <point x="-904" y="-383" type="line"/>
      <point x="-810" y="-383" type="line"/>
      <point x="-777" y="-217" type="line"/>
      <point x="-544" y="-217" type="line"/>
      <point x="-577" y="-383" type="line"/>
      <point x="-485" y="-383" type="line"/>
    </contour>
    <contour>
      <point x="-713" y="-500" type="move" name="L"/>
    </contour>
    <contour>
      <point x="-637" y="-100" type="move" name="_L"/>
    </contour>
  </outline>
</glyph>
<glyph name="CombCaronBlw" format="1">
  <advance width="0"/>
  <unicode hex="032C"/>
  <outline>
    <contour>
      <point x="-293" y="-125" type="line" name="hr00"/>
      <point x="-436" y="-125" type="line"/>
      <point x="-682" y="-313" type="line"/>
      <point x="-850" y="-125" type="line"/>
      <point x="-993" y="-125" type="line"/>
      <point x="-792" y="-471" type="line"/>
      <point x="-631" y="-471" type="line"/>
    </contour>
    <contour>
      <point x="-713" y="-500" type="move" name="L"/>
    </contour>
    <contour>
      <point x="-637" y="-100" type="move" name="_L"/>
    </contour>
  </outline>
</glyph>
<glyph name="CombTildeBlw" format="1">
  <advance width="0"/>
  <unicode hex="0330"/>
  <outline>
    <contour>
      <point x="-282" y="-174" type="curve" name="hr01"/>
      <point x="-391" y="-174" type="line"/>
      <point x="-413" y="-231"/>
      <point x="-468" y="-268"/>
      <point x="-503" y="-268" type="curve" smooth="yes"/>
      <point x="-567" y="-268"/>
      <point x="-602" y="-246"/>
      <point x="-634" y="-223" type="curve" smooth="yes"/>
      <point x="-679" y="-195"/>
      <point x="-716" y="-174"/>
      <point x="-772" y="-174" type="curve" smooth="yes" name="hr02"/>
      <point x="-919" y="-174"/>
      <point x="-1011" y="-274"/>
      <point x="-1068" y="-391" type="curve"/>
      <point x="-960" y="-391" type="line"/>
      <point x="-937" y="-336"/>
      <point x="-880" y="-299"/>
      <point x="-843" y="-299" type="curve" smooth="yes"/>
      <point x="-780" y="-299"/>
      <point x="-747" y="-322"/>
      <point x="-714" y="-344" type="curve" smooth="yes"/>
      <point x="-671" y="-373"/>
      <point x="-632" y="-391"/>
      <point x="-579" y="-391" type="curve" smooth="yes" name="hr03"/>
      <point x="-432" y="-391"/>
      <point x="-339" y="-293"/>
    </contour>
    <contour>
      <point x="-713" y="-500" type="move" name="L"/>
    </contour>
    <contour>
      <point x="-637" y="-100" type="move" name="_L"/>
    </contour>
  </outline>
</glyph>
<glyph name="CombLowLine" format="1">
  <advance width="0"/>
  <unicode hex="0332"/>
  <outline>
    <contour>
      <point x="-36" y="-180" type="line" name="hr00"/>
      <point x="-1273" y="-180" type="line"/>
      <point x="-1302" y="-315" type="line"/>
      <point x="-62" y="-315" type="line"/>
    </contour>
    <contour>
      <point x="-637" y="-100" type="move" name="_L"/>
    </contour>
    <contour>
      <point x="-713" y="-500" type="move" name="L"/>
    </contour>
  </outline>
</glyph>
<glyph name="CombDblLowLine" format="1">
  <advance width="0"/>
  <unicode hex="0333"/>
  <outline>
    <contour>
      <point x="-34" y="-180" type="line" name="hr00"/>
      <point x="-1271" y="-180" type="line"/>
      <point x="-1300" y="-315" type="line"/>
      <point x="-60" y="-315" type="line"/>
    </contour>
    <contour>
      <point x="-85" y="-415" type="line"/>
      <point x="-1322" y="-415" type="line"/>
      <point x="-1351" y="-550" type="line"/>
      <point x="-111" y="-550" type="line"/>
    </contour>
    <contour>
      <point x="-713" y="-500" type="move" name="L"/>
    </contour>
    <contour>
      <point x="-637" y="-100" type="move" name="_L"/>
    </contour>
  </outline>
</glyph>
<glyph name="CombShortSolidusOverlay" format="1">
  <advance width="0"/>
  <unicode hex="0337"/>
  <outline>
    <contour>
      <point x="-78" y="1079" type="line" name="hr00"/>
      <point x="-159" y="1130" type="line"/>
      <point x="-946" y="-125" type="line"/>
      <point x="-870" y="-176" type="line"/>
    </contour>
  </outline>
</glyph>
<glyph name="CombLngSolidusOverlay" format="1">
  <advance width="0"/>
  <unicode hex="0338"/>
  <outline>
    <contour>
      <point x="-960" y="-326" type="line" name="hr00"/>
      <point x="-48" y="1179" type="line"/>
      <point x="-129" y="1230" type="line"/>
      <point x="-1036" y="-275" type="line"/>
    </contour>
  </outline>
</glyph>
<glyph name="CombInvBridgeBlw" format="1">
  <advance width="0"/>
  <unicode hex="033A"/>
  <outline>
    <contour>
      <point x="-433" y="-125" type="line" name="hr00"/>
      <point x="-525" y="-125" type="line"/>
      <point x="-558" y="-289" type="line"/>
      <point x="-792" y="-289" type="line"/>
      <point x="-759" y="-125" type="line"/>
      <point x="-853" y="-125" type="line"/>
      <point x="-904" y="-383" type="line"/>
      <point x="-485" y="-383" type="line"/>
    </contour>
    <contour>
      <point x="-713" y="-500" type="move" name="L"/>
    </contour>
    <contour>
      <point x="-637" y="-100" type="move" name="_L"/>
    </contour>
  </outline>
</glyph>
<glyph name="CombSqrBlw" format="1">
  <advance width="0"/>
  <unicode hex="033B"/>
  <outline>
    <contour>
      <point x="-456" y="-125" type="line" name="hr00"/>
      <point x="-831" y="-125" type="line"/>
      <point x="-905" y="-500" type="line"/>
      <point x="-530" y="-500" type="line"/>
    </contour>
    <contour>
      <point x="-540" y="-195" type="line"/>
      <point x="-587" y="-428" type="line"/>
      <point x="-821" y="-428" type="line"/>
      <point x="-776" y="-195" type="line"/>
    </contour>
    <contour>
      <point x="-713" y="-500" type="move" name="L"/>
    </contour>
    <contour>
      <point x="-637" y="-100" type="move" name="_L"/>
    </contour>
  </outline>
</glyph>
<glyph name="CombXAbv" format="1">
  <advance width="0"/>
  <unicode hex="033D"/>
  <outline>
    <contour>
      <point x="-24" y="1503" type="line" name="hr00"/>
      <point x="-164" y="1503" type="line"/>
      <point x="-327" y="1376" type="line"/>
      <point x="-442" y="1503" type="line"/>
      <point x="-581" y="1503" type="line"/>
      <point x="-409" y="1315" type="line"/>
      <point x="-655" y="1128" type="line"/>
      <point x="-518" y="1128" type="line"/>
      <point x="-352" y="1255" type="line"/>
      <point x="-237" y="1128" type="line"/>
      <point x="-98" y="1128" type="line"/>
      <point x="-270" y="1315" type="line"/>
    </contour>
    <contour>
      <point x="-339" y="1500" type="move" name="U"/>
    </contour>
    <contour>
      <point x="-383" y="1100" type="move" name="_U"/>
    </contour>
  </outline>
</glyph>
<glyph name="CombDblOverline" format="1">
  <advance width="0"/>
  <unicode hex="033F"/>
  <outline>
    <contour>
      <point x="284" y="1335" type="line" name="hr00"/>
      <point x="-953" y="1335" type="line"/>
      <point x="-982" y="1200" type="line"/>
      <point x="258" y="1200" type="line"/>
    </contour>
    <contour>
      <point x="329" y="1565" type="line"/>
      <point x="-908" y="1565" type="line"/>
      <point x="-937" y="1430" type="line"/>
      <point x="303" y="1430" type="line"/>
    </contour>
    <contour>
      <point x="-303" y="1580" type="move" name="U"/>
    </contour>
    <contour>
      <point x="-383" y="1100" type="move" name="_U"/>
    </contour>
  </outline>
</glyph>
<glyph name="CombEqSgnBlw" format="1">
  <advance width="0"/>
  <unicode hex="0347"/>
  <outline>
    <contour>
      <point x="-333" y="-180" type="line" name="hr00"/>
      <point x="-970" y="-180" type="line"/>
      <point x="-999" y="-315" type="line"/>
      <point x="-359" y="-315" type="line"/>
    </contour>
    <contour>
      <point x="-384" y="-415" type="line"/>
      <point x="-1021" y="-415" type="line"/>
      <point x="-1050" y="-550" type="line"/>
      <point x="-410" y="-550" type="line"/>
    </contour>
    <contour>
      <point x="-713" y="-500" type="move" name="L"/>
    </contour>
    <contour>
      <point x="-637" y="-100" type="move" name="_L"/>
    </contour>
  </outline>
</glyph>
<glyph name="CombNotTildeAbv" format="1">
  <advance width="0"/>
  <unicode hex="034A"/>
  <outline>
    <contour>
      <point x="92" y="1415" type="curve" name="hr01"/>
      <point x="-17" y="1415" type="line"/>
      <point x="-40" y="1360"/>
      <point x="-125" y="1321"/>
      <point x="-162" y="1321" type="curve" smooth="yes"/>
      <point x="-225" y="1321"/>
      <point x="-268" y="1346"/>
      <point x="-303" y="1366" type="curve" smooth="yes"/>
      <point x="-346" y="1395"/>
      <point x="-405" y="1415"/>
      <point x="-460" y="1415" type="curve" smooth="yes" name="hr02"/>
      <point x="-607" y="1415"/>
      <point x="-718" y="1317"/>
      <point x="-775" y="1198" type="curve"/>
      <point x="-666" y="1198" type="line"/>
      <point x="-644" y="1253"/>
      <point x="-557" y="1292"/>
      <point x="-522" y="1292" type="curve" smooth="yes"/>
      <point x="-458" y="1292"/>
      <point x="-415" y="1268"/>
      <point x="-381" y="1245" type="curve" smooth="yes"/>
      <point x="-338" y="1219"/>
      <point x="-281" y="1198"/>
      <point x="-225" y="1198" type="curve" smooth="yes" name="hr03"/>
      <point x="-78" y="1198"/>
      <point x="34" y="1296"/>
    </contour>
    <contour>
      <point x="-461" y="1113" type="line"/>
      <point x="-152" y="1442" type="line"/>
      <point x="-209" y="1495" type="line"/>
      <point x="-518" y="1165" type="line"/>
    </contour>
    <contour>
      <point x="-303" y="1580" type="move" name="U"/>
    </contour>
    <contour>
      <point x="-383" y="1100" type="move" name="_U"/>
    </contour>
  </outline>
</glyph>
<glyph name="CombUpArrwBlw" format="1">
  <advance width="0"/>
  <unicode hex="034E"/>
  <outline>
    <contour>
      <point x="-513" y="-315" type="line" name="hr00"/>
      <point x="-649" y="-146" type="line"/>
      <point x="-849" y="-315" type="line"/>
      <point x="-733" y="-315" type="line"/>
      <point x="-781" y="-571" type="line"/>
      <point x="-678" y="-571" type="line"/>
      <point x="-630" y="-315" type="line"/>
    </contour>
    <contour>
      <point x="-713" y="-500" type="move" name="L"/>
    </contour>
    <contour>
      <point x="-637" y="-100" type="move" name="_L"/>
    </contour>
  </outline>
</glyph>
<glyph name="CombXBlw" format="1">
  <advance width="0"/>
  <unicode hex="0353"/>
  <outline>
    <contour>
      <point x="-578" y="-537" type="line" name="hr00"/>
      <point x="-512" y="-471" type="line"/>
      <point x="-624" y="-359" type="line"/>
      <point x="-512" y="-247" type="line"/>
      <point x="-578" y="-181" type="line"/>
      <point x="-690" y="-293" type="line"/>
      <point x="-802" y="-181" type="line"/>
      <point x="-868" y="-247" type="line"/>
      <point x="-756" y="-359" type="line"/>
      <point x="-868" y="-471" type="line"/>
      <point x="-802" y="-537" type="line"/>
      <point x="-690" y="-425" type="line"/>
    </contour>
    <contour>
      <point x="-713" y="-500" type="move" name="L"/>
    </contour>
    <contour>
      <point x="-637" y="-100" type="move" name="_L"/>
    </contour>
  </outline>
</glyph>
<glyph name="CombZigZagAbv" format="1">
  <advance width="0"/>
  <unicode hex="035B"/>
  <outline>
    <contour>
      <point x="-363" y="1523" type="line" name="hr00"/>
      <point x="-505" y="1253" type="line"/>
      <point x="-326" y="1253" type="line"/>
      <point x="-415" y="1083" type="line"/>
      <point x="-323" y="1083" type="line"/>
      <point x="-180" y="1353" type="line"/>
      <point x="-360" y="1353" type="line"/>
      <point x="-271" y="1523" type="line"/>
    </contour>
    <contour>
      <point x="-311" y="1540" type="move" name="U"/>
    </contour>
    <contour>
      <point x="-383" y="1100" type="move" name="_U"/>
    </contour>
  </outline>
</glyph>
<glyph name="CombDblMacron" format="1">
  <advance width="0"/>
  <unicode hex="035E"/>
  <outline>
    <contour>
      <point x="866" y="1735" type="line" name="hr00"/>
      <point x="-371" y="1735" type="line"/>
      <point x="-400" y="1600" type="line"/>
      <point x="840" y="1600" type="line"/>
    </contour>
    <contour>
      <point x="260" y="1905" type="move" name="U"/>
    </contour>
  </outline>
</glyph>
<glyph name="CombDblMacronBlw" format="1">
  <advance width="0"/>
  <unicode hex="035F"/>
  <outline>
    <contour>
      <point x="406" y="-550" type="line" name="hr00"/>
      <point x="-831" y="-550" type="line"/>
      <point x="-860" y="-685" type="line"/>
      <point x="380" y="-685" type="line"/>
    </contour>
    <contour>
      <point x="-236" y="-700" type="move" name="L"/>
    </contour>
  </outline>
</glyph>
<glyph name="CombDblTilde" format="1">
  <advance width="0"/>
  <unicode hex="0360"/>
  <outline>
    <contour>
      <point x="1299" y="1808" type="curve" name="hr00"/>
      <point x="1242" y="1883" type="line"/>
      <point x="1203" y="1805"/>
      <point x="1051" y="1706"/>
      <point x="827" y="1706" type="curve" smooth="yes"/>
      <point x="338" y="1706"/>
      <point x="216" y="1858"/>
      <point x="-308" y="1858" type="curve" smooth="yes"/>
      <point x="-584" y="1858"/>
      <point x="-715" y="1736"/>
      <point x="-778" y="1622" type="curve"/>
      <point x="-723" y="1549" type="line"/>
      <point x="-673" y="1631"/>
      <point x="-558" y="1738"/>
      <point x="-317" y="1738" type="curve" smooth="yes"/>
      <point x="171" y="1738"/>
      <point x="323" y="1590"/>
      <point x="814" y="1590" type="curve" smooth="yes"/>
      <point x="1077" y="1590"/>
      <point x="1242" y="1701"/>
    </contour>
    <contour>
      <point x="256" y="1905" type="move" name="U"/>
    </contour>
  </outline>
</glyph>
<glyph name="GrSmAlpha" format="1">
  <advance width="1126"/>
  <unicode hex="03B1"/>
  <outline>
    <contour>
      <point x="1141" y="987" type="curve" name="hr01"/>
      <point x="975" y="987" type="line"/>
      <point x="975" y="987"/>
      <point x="907" y="795"/>
      <point x="860" y="707" type="curve"/>
      <point x="860" y="903"/>
      <point x="797" y="1012"/>
      <point x="618" y="1012" type="curve" smooth="yes" name="hr02"/>
      <point x="256" y="1012"/>
      <point x="66" y="664"/>
      <point x="66" y="344" type="curve" smooth="yes"/>
      <point x="66" y="207"/>
      <point x="113" y="-25"/>
      <point x="340" y="-25" type="curve" smooth="yes"/>
      <point x="524" y="-25"/>
      <point x="602" y="37"/>
      <point x="715" y="186" type="curve"/>
      <point x="719" y="80"/>
      <point x="725" y="-25"/>
      <point x="856" y="-25" type="curve" smooth="yes"/>
      <point x="1006" y="-25"/>
      <point x="1098" y="227"/>
      <point x="1098" y="227" type="curve"/>
      <point x="1030" y="227" type="line"/>
      <point x="1030" y="227"/>
      <point x="985" y="133"/>
      <point x="936" y="133" type="curve" smooth="yes"/>
      <point x="909" y="133"/>
      <point x="889" y="152"/>
      <point x="889" y="199" type="curve" smooth="yes"/>
      <point x="889" y="260"/>
      <point x="874" y="362"/>
      <point x="883" y="438" type="curve"/>
      <point x="954" y="541"/>
      <point x="1141" y="987"/>
    </contour>
    <contour>
      <point x="725" y="414" type="curve" name="hr04"/>
      <point x="668" y="307"/>
      <point x="606" y="117"/>
      <point x="414" y="117" type="curve" smooth="yes"/>
      <point x="276" y="117"/>
      <point x="250" y="274"/>
      <point x="250" y="377" type="curve" smooth="yes"/>
      <point x="250" y="571"/>
      <point x="367" y="903"/>
      <point x="614" y="903" type="curve" smooth="yes"/>
      <point x="729" y="903"/>
      <point x="786" y="721"/>
    </contour>
    <contour>
      <point x="794" y="1100" type="move" name="U"/>
    </contour>
    <contour>
      <point x="550" y="-100" type="move" name="L"/>
    </contour>
  </outline>
</glyph>
<glyph name="GrSmBeta" format="1">
  <advance width="1058"/>
  <unicode hex="03B2"/>
  <outline>
    <contour>
      <point x="984" y="423" type="curve" smooth="yes" name="hr01"/>
      <point x="1014" y="683"/>
      <point x="875" y="804"/>
      <point x="697" y="835" type="curve" name="hr02"/>
      <point x="825" y="866"/>
      <point x="960" y="963"/>
      <point x="998" y="1149" type="curve" smooth="yes"/>
      <point x="1040" y="1356"/>
      <point x="945" y="1509"/>
      <point x="727" y="1509" type="curve" smooth="yes" name="hr03"/>
      <point x="396" y="1509"/>
      <point x="261" y="1210"/>
      <point x="203" y="928" type="curve" smooth="yes"/>
      <point x="-38" y="-307" type="line" smooth="yes"/>
      <point x="-42" y="-326"/>
      <point x="-61" y="-354"/>
      <point x="-84" y="-356" type="curve"/>
      <point x="-193" y="-367" type="line"/>
      <point x="-193" y="-446" type="line" name="hr04"/>
      <point x="314" y="-446" type="line"/>
      <point x="315" y="-367" type="line"/>
      <point x="171" y="-356" type="line"/>
      <point x="157" y="-356"/>
      <point x="146" y="-338"/>
      <point x="152" y="-307" type="curve" smooth="yes"/>
      <point x="397" y="948" type="line" smooth="yes"/>
      <point x="427" y="1094"/>
      <point x="440" y="1409"/>
      <point x="673" y="1409" type="curve" smooth="yes"/>
      <point x="803" y="1409"/>
      <point x="839" y="1272"/>
      <point x="814" y="1149" type="curve" smooth="yes"/>
      <point x="776" y="963"/>
      <point x="669" y="867"/>
      <point x="480" y="869" type="curve"/>
      <point x="470" y="835"/>
      <point x="464" y="804"/>
      <point x="458" y="776" type="curve"/>
      <point x="742" y="784"/>
      <point x="824" y="577"/>
      <point x="784" y="373" type="curve" smooth="yes" name="hr05"/>
      <point x="741" y="151"/>
      <point x="616" y="82"/>
      <point x="494" y="82" type="curve" smooth="yes"/>
      <point x="442" y="82"/>
      <point x="362" y="97"/>
      <point x="308" y="132" type="curve"/>
      <point x="285" y="16" type="line"/>
      <point x="331" y="-11"/>
      <point x="432" y="-25"/>
      <point x="490" y="-25" type="curve" smooth="yes"/>
      <point x="697" y="-25"/>
      <point x="947" y="101"/>
    </contour>
    <contour>
      <point x="426" y="-100" type="move" name="L"/>
    </contour>
    <contour>
      <point x="727" y="1540" type="move" name="U"/>
    </contour>
  </outline>
</glyph>
<glyph name="GrSmPi" format="1">
  <advance width="1217"/>
  <unicode hex="03C0"/>
  <outline>
    <contour>
      <point x="1176" y="311" type="curve" name="hr01"/>
      <point x="1098" y="311" type="line"/>
      <point x="1098" y="137"/>
      <point x="1034" y="57"/>
      <point x="973" y="57" type="curve" smooth="yes"/>
      <point x="885" y="57"/>
      <point x="897" y="139"/>
      <point x="897" y="276" type="curve" smooth="yes"/>
      <point x="897" y="821" type="line"/>
      <point x="1022" y="821" type="line" smooth="yes"/>
      <point x="1137" y="821"/>
      <point x="1176" y="905"/>
      <point x="1176" y="1006" type="curve"/>
      <point x="1124" y="1006" type="line"/>
      <point x="1116" y="977"/>
      <point x="1071" y="952"/>
      <point x="1026" y="952" type="curve" smooth="yes"/>
      <point x="289" y="952" type="line" smooth="yes"/>
      <point x="117" y="952"/>
      <point x="51" y="797"/>
      <point x="51" y="705" type="curve"/>
      <point x="111" y="705" type="line"/>
      <point x="123" y="741"/>
      <point x="129" y="821"/>
      <point x="266" y="821" type="curve" smooth="yes"/>
      <point x="352" y="821" type="line"/>
      <point x="352" y="563" type="line" smooth="yes"/>
      <point x="352" y="180"/>
      <point x="248" y="127"/>
      <point x="186" y="127" type="curve" smooth="yes" name="hr02"/>
      <point x="141" y="127"/>
      <point x="109" y="182"/>
      <point x="109" y="262" type="curve"/>
      <point x="41" y="262" type="line"/>
      <point x="41" y="121"/>
      <point x="68" y="-25"/>
      <point x="186" y="-25" type="curve" smooth="yes" name="hr03"/>
      <point x="352" y="-25"/>
      <point x="444" y="139"/>
      <point x="444" y="352" type="curve" smooth="yes"/>
      <point x="444" y="821" type="line"/>
      <point x="723" y="821" type="line"/>
      <point x="723" y="242" type="line" smooth="yes"/>
      <point x="723" y="125"/>
      <point x="745" y="-25"/>
      <point x="944" y="-25" type="curve" smooth="yes"/>
      <point x="1071" y="-25"/>
      <point x="1176" y="88"/>
    </contour>
    <contour>
      <point x="738" y="1100" type="move" name="U"/>
    </contour>
    <contour>
      <point x="494" y="-100" type="move" name="L"/>
    </contour>
  </outline>
</glyph>
<glyph name="GrSmOmega" format="1">
  <advance width="1404"/>
  <unicode hex="03C9"/>
  <outline>
    <contour>
      <point x="648" y="690" type="line" name="hr00"/>
      <point x="601" y="449" type="line" smooth="yes"/>
      <point x="564" y="259"/>
      <point x="515" y="68"/>
      <point x="367" y="68" type="curve" smooth="yes"/>
      <point x="229" y="68"/>
      <point x="211" y="253"/>
      <point x="254" y="474" type="curve" smooth="yes"/>
      <point x="295" y="687"/>
      <point x="415" y="906"/>
      <point x="597" y="938" type="curve"/>
      <point x="597" y="1012" type="line"/>
      <point x="374" y="1013"/>
      <point x="119" y="801"/>
      <point x="56" y="474" type="curve" smooth="yes"/>
      <point x="12" y="248"/>
      <point x="36" y="-25"/>
      <point x="331" y="-25" type="curve" smooth="yes"/>
      <point x="515" y="-25"/>
      <point x="607" y="123"/>
      <point x="642" y="201" type="curve"/>
      <point x="642" y="123"/>
      <point x="678" y="-25"/>
      <point x="862" y="-25" type="curve" smooth="yes"/>
      <point x="1157" y="-25"/>
      <point x="1284" y="248"/>
      <point x="1331" y="474" type="curve"/>
      <point x="1397" y="801"/>
      <point x="1227" y="1017"/>
      <point x="970" y="1012" type="curve"/>
      <point x="970" y="938" type="line"/>
      <point x="1140" y="906"/>
      <point x="1174" y="687"/>
      <point x="1133" y="474" type="curve" smooth="yes"/>
      <point x="1090" y="253"/>
      <point x="1000" y="68"/>
      <point x="862" y="68" type="curve" smooth="yes"/>
      <point x="714" y="68"/>
      <point x="739" y="259"/>
      <point x="776" y="449" type="curve" smooth="yes"/>
      <point x="823" y="690" type="line"/>
    </contour>
    <contour>
      <point x="816" y="1100" type="move" name="U"/>
    </contour>
    <contour>
      <point x="568" y="-100" type="move" name="L"/>
    </contour>
  </outline>
</glyph>
<glyph name="CyCapNje" format="1">
  <advance width="1890"/>
  <unicode hex="040A"/>
  <outline>
    <contour>
      <point x="1806" y="514" type="curve" smooth="yes" name="hr01"/>
      <point x="1806" y="735"/>
      <point x="1632" y="838"/>
      <point x="1366" y="838" type="curve" smooth="yes" name="hr02"/>
      <point x="1307" y="838"/>
      <point x="1214" y="827"/>
      <point x="1214" y="827" type="curve"/>
      <point x="1294" y="1233" type="line" smooth="yes"/>
      <point x="1298" y="1251"/>
      <point x="1317" y="1274"/>
      <point x="1346" y="1276" type="curve" smooth="yes"/>
      <point x="1485" y="1284" type="line"/>
      <point x="1485" y="1374" type="line"/>
      <point x="946" y="1374" type="line"/>
      <point x="946" y="1284" type="line"/>
      <point x="1053" y="1276" type="line" smooth="yes"/>
      <point x="1081" y="1274"/>
      <point x="1092" y="1253"/>
      <point x="1087" y="1233" type="curve" smooth="yes"/>
      <point x="999" y="793" type="line" name="hr03"/>
      <point x="473" y="793" type="line"/>
      <point x="561" y="1233" type="line" smooth="yes"/>
      <point x="565" y="1253"/>
      <point x="584" y="1274"/>
      <point x="612" y="1276" type="curve" smooth="yes"/>
      <point x="731" y="1284" type="line"/>
      <point x="731" y="1374" type="line"/>
      <point x="213" y="1374" type="line"/>
      <point x="213" y="1284" type="line"/>
      <point x="317" y="1276" type="line" smooth="yes"/>
      <point x="346" y="1274"/>
      <point x="358" y="1253"/>
      <point x="354" y="1233" type="curve" smooth="yes"/>
      <point x="137" y="141" type="line" smooth="yes"/>
      <point x="133" y="121"/>
      <point x="113" y="98"/>
      <point x="84" y="96" type="curve" smooth="yes"/>
      <point x="-31" y="88" type="line"/>
      <point x="-31" y="0" type="line" name="hr04"/>
      <point x="487" y="0" type="line"/>
      <point x="487" y="88" type="line" name="hr05"/>
      <point x="379" y="96" type="line" smooth="yes"/>
      <point x="350" y="98"/>
      <point x="340" y="121"/>
      <point x="344" y="141" type="curve" smooth="yes"/>
      <point x="455" y="690" type="line"/>
      <point x="981" y="690" type="line"/>
      <point x="870" y="141" type="line" smooth="yes"/>
      <point x="866" y="121"/>
      <point x="848" y="98"/>
      <point x="819" y="96" type="curve" smooth="yes"/>
      <point x="692" y="88" type="line"/>
      <point x="692" y="0" type="line" name="hr06"/>
      <point x="1165" y="0" type="line" smooth="yes"/>
      <point x="1509" y="0"/>
      <point x="1806" y="131"/>
    </contour>
    <contour>
      <point x="1581" y="541" type="curve" smooth="yes" name="hr07"/>
      <point x="1581" y="283"/>
      <point x="1454" y="98"/>
      <point x="1174" y="98" type="curve" smooth="yes"/>
      <point x="1122" y="98"/>
      <point x="1069" y="102"/>
      <point x="1069" y="102" type="curve"/>
      <point x="1194" y="729" type="line"/>
      <point x="1194" y="729"/>
      <point x="1284" y="739"/>
      <point x="1327" y="739" type="curve" smooth="yes"/>
      <point x="1505" y="739"/>
      <point x="1581" y="684"/>
    </contour>
    <contour>
      <point x="1104" y="1500" type="move" name="U"/>
    </contour>
    <contour>
      <point x="816" y="-100" type="move" name="L"/>
    </contour>
  </outline>
</glyph>
<glyph name="CyCapDe" format="1">
  <advance width="1452"/>
  <unicode hex="0414"/>
  <outline>
    <contour>
      <point x="1551" y="1290" type="line" name="hr01"/>
      <point x="1551" y="1374" type="line" name="hr02"/>
      <point x="469" y="1374" type="line"/>
      <point x="469" y="1286" type="line" name="hr03"/>
      <point x="524" y="1286"/>
      <point x="600" y="1278"/>
      <point x="600" y="1278" type="curve"/>
      <point x="629" y="1276"/>
      <point x="641" y="1251"/>
      <point x="639" y="1235" type="curve" smooth="yes"/>
      <point x="565" y="864"/>
      <point x="389" y="432"/>
      <point x="299" y="301" type="curve" smooth="yes"/>
      <point x="150" y="86"/>
      <point x="-96" y="0"/>
      <point x="-96" y="0" type="curve"/>
      <point x="-180" y="-420" type="line"/>
      <point x="-76" y="-420" type="line"/>
      <point x="-18" y="-129"/>
      <point x="244" y="0"/>
      <point x="313" y="0" type="curve" smooth="yes"/>
      <point x="880" y="0" type="line" smooth="yes"/>
      <point x="952" y="0"/>
      <point x="1161" y="-129"/>
      <point x="1104" y="-420" type="curve"/>
      <point x="1208" y="-420" type="line"/>
      <point x="1290" y="0" type="line"/>
      <point x="1204" y="8" type="line" smooth="yes"/>
      <point x="1176" y="12"/>
      <point x="1141" y="63"/>
      <point x="1145" y="82" type="curve" smooth="yes"/>
      <point x="1374" y="1237" type="line" smooth="yes" name="hr04"/>
      <point x="1378" y="1255"/>
      <point x="1397" y="1280"/>
      <point x="1425" y="1280" type="curve"/>
    </contour>
    <contour>
      <point x="1174" y="1270" type="line" name="hr05"/>
      <point x="942" y="104" type="line"/>
      <point x="262" y="104" type="line"/>
      <point x="262" y="104"/>
      <point x="348" y="178"/>
      <point x="395" y="246" type="curve" smooth="yes"/>
      <point x="494" y="383"/>
      <point x="659" y="727"/>
      <point x="766" y="1270" type="curve"/>
    </contour>
    <contour>
      <point x="1025" y="1500" type="move" name="U"/>
    </contour>
    <contour>
      <point x="588" y="-100" type="move" name="L"/>
    </contour>
  </outline>
</glyph>
<glyph name="CyCapEl" format="1">
  <advance width="1427"/>
  <unicode hex="041B"/>
  <outline>
    <contour>
      <point x="1522" y="1286" type="line" name="hr01"/>
      <point x="1522" y="1374" type="line" name="hr02"/>
      <point x="430" y="1374" type="line"/>
      <point x="430" y="1286" type="line" name="hr03"/>
      <point x="485" y="1286"/>
      <point x="561" y="1278"/>
      <point x="561" y="1278" type="curve"/>
      <point x="590" y="1276"/>
      <point x="602" y="1251"/>
      <point x="598" y="1235" type="curve" smooth="yes"/>
      <point x="526" y="864"/>
      <point x="399" y="422"/>
      <point x="317" y="287" type="curve" smooth="yes"/>
      <point x="276" y="221"/>
      <point x="209" y="135"/>
      <point x="170" y="135" type="curve"/>
      <point x="-4" y="203" type="line"/>
      <point x="-66" y="203"/>
      <point x="-129" y="156"/>
      <point x="-129" y="92" type="curve" smooth="yes"/>
      <point x="-129" y="23"/>
      <point x="-86" y="-33"/>
      <point x="-16" y="-33" type="curve" smooth="yes"/>
      <point x="143" y="-33"/>
      <point x="283" y="27"/>
      <point x="412" y="221" type="curve" smooth="yes"/>
      <point x="504" y="358"/>
      <point x="621" y="727"/>
      <point x="727" y="1270" type="curve" name="hr04"/>
      <point x="1135" y="1270" type="line"/>
      <point x="911" y="139" type="line" smooth="yes"/>
      <point x="907" y="123"/>
      <point x="889" y="98"/>
      <point x="858" y="96" type="curve" smooth="yes"/>
      <point x="717" y="88" type="line"/>
      <point x="717" y="0" type="line"/>
      <point x="1276" y="0" type="line"/>
      <point x="1276" y="88" type="line"/>
      <point x="1151" y="96" type="line" smooth="yes"/>
      <point x="1124" y="98"/>
      <point x="1114" y="123"/>
      <point x="1118" y="139" type="curve" smooth="yes"/>
      <point x="1333" y="1235" type="line" smooth="yes" name="hr05"/>
      <point x="1337" y="1251"/>
      <point x="1358" y="1276"/>
      <point x="1386" y="1278" type="curve" smooth="yes"/>
    </contour>
    <contour>
      <point x="1000" y="1500" type="move" name="U"/>
    </contour>
    <contour>
      <point x="544" y="-100" type="move" name="L"/>
    </contour>
  </outline>
</glyph>
<glyph name="CyCapYeru" format="1">
  <advance width="1710"/>
  <unicode hex="042B"/>
  <outline>
    <contour>
      <point x="1817" y="1284" type="line" name="hr01"/>
      <point x="1817" y="1374" type="line"/>
      <point x="1268" y="1374" type="line"/>
      <point x="1268" y="1284" type="line"/>
      <point x="1389" y="1276" type="line" smooth="yes"/>
      <point x="1417" y="1274"/>
      <point x="1425" y="1253"/>
      <point x="1421" y="1233" type="curve" smooth="yes"/>
      <point x="1206" y="141" type="line" smooth="yes" name="hr02"/>
      <point x="1202" y="121"/>
      <point x="1184" y="98"/>
      <point x="1153" y="96" type="curve" smooth="yes"/>
      <point x="1024" y="88" type="line"/>
      <point x="1024" y="0" type="line" name="hr03"/>
      <point x="1563" y="0" type="line"/>
      <point x="1563" y="88" type="line" name="hr04"/>
      <point x="1448" y="96" type="line" smooth="yes"/>
      <point x="1419" y="98"/>
      <point x="1409" y="121"/>
      <point x="1413" y="141" type="curve" smooth="yes"/>
      <point x="1628" y="1233" type="line" smooth="yes"/>
      <point x="1632" y="1253"/>
      <point x="1653" y="1274"/>
      <point x="1681" y="1276" type="curve" smooth="yes"/>
    </contour>
    <contour>
      <point x="1075" y="514" type="curve" smooth="yes"/>
      <point x="1077" y="739"/>
      <point x="905" y="858"/>
      <point x="639" y="858" type="curve" smooth="yes"/>
      <point x="580" y="858"/>
      <point x="487" y="848"/>
      <point x="487" y="848" type="curve"/>
      <point x="563" y="1235" type="line" smooth="yes"/>
      <point x="567" y="1251"/>
      <point x="586" y="1276"/>
      <point x="614" y="1278" type="curve" smooth="yes"/>
      <point x="756" y="1286" type="line"/>
      <point x="756" y="1374" type="line"/>
      <point x="215" y="1374" type="line"/>
      <point x="215" y="1286" type="line"/>
      <point x="322" y="1278" type="line"/>
      <point x="350" y="1274"/>
      <point x="360" y="1251"/>
      <point x="356" y="1235" type="curve" smooth="yes"/>
      <point x="139" y="139" type="line" smooth="yes"/>
      <point x="137" y="123"/>
      <point x="117" y="98"/>
      <point x="88" y="96" type="curve" smooth="yes"/>
      <point x="-45" y="88" type="line"/>
      <point x="-45" y="0" type="line" name="hr05"/>
      <point x="434" y="0" type="line" smooth="yes"/>
      <point x="850" y="0"/>
      <point x="1008" y="127"/>
      <point x="1065" y="414" type="curve" smooth="yes"/>
      <point x="1071" y="451"/>
      <point x="1075" y="483"/>
    </contour>
    <contour>
      <point x="850" y="553" type="curve" smooth="yes"/>
      <point x="850" y="512"/>
      <point x="846" y="467"/>
      <point x="836" y="414" type="curve" smooth="yes"/>
      <point x="795" y="213"/>
      <point x="731" y="98"/>
      <point x="442" y="98" type="curve" smooth="yes" name="hr07"/>
      <point x="391" y="98"/>
      <point x="340" y="102"/>
      <point x="340" y="102" type="curve"/>
      <point x="467" y="750" type="line"/>
      <point x="467" y="750"/>
      <point x="557" y="760"/>
      <point x="600" y="760" type="curve" smooth="yes"/>
      <point x="774" y="760"/>
      <point x="848" y="694"/>
    </contour>
    <contour>
      <point x="1024" y="1500" type="move" name="U"/>
    </contour>
    <contour>
      <point x="736" y="-100" type="move" name="L"/>
    </contour>
  </outline>
</glyph>
<glyph name="CyCapSoftSgn" format="1">
  <advance width="1163"/>
  <unicode hex="042C"/>
  <outline>
    <contour>
      <point x="1096" y="510" type="curve" smooth="yes" name="hr01"/>
      <point x="1096" y="737"/>
      <point x="907" y="858"/>
      <point x="639" y="858" type="curve" smooth="yes"/>
      <point x="580" y="858"/>
      <point x="487" y="848"/>
      <point x="487" y="848" type="curve"/>
      <point x="563" y="1235" type="line" smooth="yes"/>
      <point x="567" y="1251"/>
      <point x="586" y="1276"/>
      <point x="614" y="1278" type="curve" smooth="yes"/>
      <point x="756" y="1286" type="line"/>
      <point x="756" y="1374" type="line"/>
      <point x="215" y="1374" type="line"/>
      <point x="215" y="1286" type="line"/>
      <point x="322" y="1278" type="line" smooth="yes"/>
      <point x="346" y="1276"/>
      <point x="360" y="1257"/>
      <point x="356" y="1235" type="curve" smooth="yes"/>
      <point x="139" y="139" type="line" smooth="yes" name="hr02"/>
      <point x="137" y="123"/>
      <point x="117" y="98"/>
      <point x="88" y="96" type="curve" smooth="yes"/>
      <point x="-55" y="88" type="line"/>
      <point x="-55" y="0" type="line" name="hr03"/>
      <point x="434" y="0" type="line" smooth="yes"/>
      <point x="784" y="0"/>
      <point x="1096" y="106"/>
    </contour>
    <contour>
      <point x="868" y="532" type="curve" smooth="yes"/>
      <point x="868" y="250"/>
      <point x="743" y="98"/>
      <point x="442" y="98" type="curve" smooth="yes"/>
      <point x="391" y="98"/>
      <point x="340" y="102"/>
      <point x="340" y="102" type="curve"/>
      <point x="467" y="750" type="line"/>
      <point x="467" y="750"/>
      <point x="557" y="760"/>
      <point x="600" y="760" type="curve" smooth="yes"/>
      <point x="782" y="760"/>
      <point x="868" y="688"/>
    </contour>
    <contour>
      <point x="738" y="1500" type="move" name="U"/>
    </contour>
    <contour>
      <point x="450" y="-100" type="move" name="L"/>
    </contour>
  </outline>
</glyph>
<glyph name="CySmVe" format="1">
  <advance width="1051"/>
  <unicode hex="0432"/>
  <outline>
    <contour>
      <point x="999" y="829" type="curve" smooth="yes" name="hr01"/>
      <point x="999" y="922"/>
      <point x="938" y="1012"/>
      <point x="715" y="1012" type="curve" smooth="yes"/>
      <point x="330" y="1012"/>
      <point x="63" y="639"/>
      <point x="63" y="358" type="curve" smooth="yes"/>
      <point x="63" y="164"/>
      <point x="188" y="-25"/>
      <point x="467" y="-25" type="curve" smooth="yes"/>
      <point x="674" y="-25"/>
      <point x="958" y="82"/>
      <point x="958" y="340" type="curve" smooth="yes" name="hr02"/>
      <point x="958" y="463"/>
      <point x="848" y="528"/>
      <point x="729" y="543" type="curve"/>
      <point x="864" y="582"/>
      <point x="999" y="664"/>
    </contour>
    <contour>
      <point x="815" y="817" type="curve" smooth="yes"/>
      <point x="815" y="618"/>
      <point x="621" y="559"/>
      <point x="449" y="559" type="curve"/>
      <point x="410" y="477" type="line"/>
      <point x="410" y="477"/>
      <point x="522" y="483"/>
      <point x="551" y="483" type="curve" smooth="yes"/>
      <point x="698" y="483"/>
      <point x="774" y="424"/>
      <point x="774" y="330" type="curve" smooth="yes" name="hr04"/>
      <point x="774" y="152"/>
      <point x="623" y="59"/>
      <point x="457" y="59" type="curve" smooth="yes"/>
      <point x="360" y="59"/>
      <point x="285" y="176"/>
      <point x="285" y="344" type="curve" smooth="yes"/>
      <point x="285" y="549"/>
      <point x="432" y="932"/>
      <point x="662" y="932" type="curve" smooth="yes"/>
      <point x="782" y="932"/>
      <point x="815" y="874"/>
    </contour>
    <contour>
      <point x="662" y="1100" type="move" name="U"/>
    </contour>
    <contour>
      <point x="418" y="-100" type="move" name="L"/>
    </contour>
  </outline>
</glyph>
<glyph name="CySmEs" format="1">
  <advance width="891"/>
  <unicode hex="0441"/>
  <outline>
    <contour>
      <point x="825" y="868" type="curve" smooth="yes" name="hr00"/>
      <point x="825" y="930"/>
      <point x="764" y="1012"/>
      <point x="616" y="1012" type="curve" smooth="yes"/>
      <point x="338" y="1012"/>
      <point x="66" y="723"/>
      <point x="66" y="356" type="curve" smooth="yes"/>
      <point x="66" y="113"/>
      <point x="186" y="-25"/>
      <point x="381" y="-25" type="curve" smooth="yes"/>
      <point x="563" y="-25"/>
      <point x="698" y="94"/>
      <point x="782" y="176" type="curve"/>
      <point x="782" y="305" type="line"/>
      <point x="666" y="190"/>
      <point x="551" y="109"/>
      <point x="442" y="109" type="curve" smooth="yes"/>
      <point x="307" y="109"/>
      <point x="260" y="248"/>
      <point x="260" y="381" type="curve" smooth="yes"/>
      <point x="260" y="547"/>
      <point x="330" y="883"/>
      <point x="551" y="893" type="curve"/>
      <point x="668" y="735" type="line"/>
      <point x="799" y="752"/>
      <point x="825" y="815"/>
    </contour>
    <contour>
      <point x="610" y="1100" type="move" name="U"/>
    </contour>
    <contour>
      <point x="375" y="-100" type="move" name="L"/>
    </contour>
    <contour>
      <point x="410" y="0" type="move" name="O"/>
    </contour>
  </outline>
</glyph>
<glyph name="CySmTse" format="1">
  <advance width="1079"/>
  <unicode hex="0446"/>
  <outline>
    <contour>
      <point x="1073" y="49" type="curve" name="hr01"/>
      <point x="1073" y="121" type="line"/>
      <point x="1016" y="88"/>
      <point x="971" y="84"/>
      <point x="944" y="84" type="curve" smooth="yes" name="hr02"/>
      <point x="899" y="84"/>
      <point x="836" y="115"/>
      <point x="854" y="199" type="curve" smooth="yes"/>
      <point x="1018" y="987" type="line"/>
      <point x="827" y="987" type="line"/>
      <point x="672" y="233" type="line"/>
      <point x="594" y="162"/>
      <point x="487" y="102"/>
      <point x="389" y="102" type="curve" smooth="yes"/>
      <point x="336" y="102"/>
      <point x="268" y="162"/>
      <point x="283" y="231" type="curve" smooth="yes"/>
      <point x="446" y="1012" type="line" name="hr03"/>
      <point x="362" y="1012" type="line"/>
      <point x="53" y="948" type="line"/>
      <point x="53" y="889" type="line"/>
      <point x="225" y="870" type="line"/>
      <point x="92" y="231" type="line" smooth="yes"/>
      <point x="70" y="125"/>
      <point x="111" y="-25"/>
      <point x="301" y="-25" type="curve" smooth="yes"/>
      <point x="438" y="-25"/>
      <point x="555" y="27"/>
      <point x="662" y="129" type="curve"/>
      <point x="662" y="98"/>
      <point x="643" y="-4"/>
      <point x="760" y="-23" type="curve"/>
      <point x="721" y="-55"/>
      <point x="659" y="-123"/>
      <point x="659" y="-145" type="curve" smooth="yes" name="hr04"/>
      <point x="659" y="-176"/>
      <point x="694" y="-233"/>
      <point x="694" y="-268" type="curve" smooth="yes" name="hr05"/>
      <point x="694" y="-303"/>
      <point x="625" y="-354"/>
      <point x="625" y="-354" type="curve"/>
      <point x="645" y="-399" type="line"/>
      <point x="645" y="-399"/>
      <point x="834" y="-291"/>
      <point x="834" y="-246" type="curve" smooth="yes"/>
      <point x="834" y="-162"/>
      <point x="788" y="-145"/>
      <point x="788" y="-121" type="curve" smooth="yes" name="hr06"/>
      <point x="788" y="-104"/>
      <point x="815" y="-47"/>
      <point x="827" y="-23" type="curve"/>
      <point x="913" y="-14"/>
      <point x="1028" y="23"/>
    </contour>
    <contour>
      <point x="686" y="1100" type="move" name="U"/>
    </contour>
    <contour>
      <point x="442" y="-100" type="move" name="L"/>
    </contour>
  </outline>
</glyph>
<glyph name="CySmYu" format="1">
  <advance width="1516"/>
  <unicode hex="044E"/>
  <outline>
    <contour>
      <point x="1450" y="641" type="curve" smooth="yes" name="hr01"/>
      <point x="1450" y="854"/>
      <point x="1346" y="1012"/>
      <point x="1104" y="1012" type="curve" smooth="yes"/>
      <point x="813" y="1012"/>
      <point x="635" y="786"/>
      <point x="578" y="551" type="curve"/>
      <point x="375" y="551" type="line"/>
      <point x="467" y="1012" type="line"/>
      <point x="385" y="1012" type="line"/>
      <point x="106" y="934" type="line" name="hr02"/>
      <point x="106" y="862" type="line"/>
      <point x="248" y="862" type="line"/>
      <point x="102" y="131" type="line" smooth="yes"/>
      <point x="96" y="106"/>
      <point x="76" y="88"/>
      <point x="49" y="86" type="curve" smooth="yes"/>
      <point x="-57" y="80" type="line"/>
      <point x="-57" y="0" type="line"/>
      <point x="424" y="0" type="line"/>
      <point x="424" y="80" type="line"/>
      <point x="326" y="86" type="line" smooth="yes"/>
      <point x="301" y="88"/>
      <point x="287" y="106"/>
      <point x="293" y="131" type="curve"/>
      <point x="354" y="453" type="line"/>
      <point x="555" y="453" type="line"/>
      <point x="551" y="416"/>
      <point x="549" y="379"/>
      <point x="549" y="344" type="curve" smooth="yes"/>
      <point x="549" y="137"/>
      <point x="651" y="-25"/>
      <point x="897" y="-25" type="curve" smooth="yes" name="hr03"/>
      <point x="1249" y="-25"/>
      <point x="1450" y="326"/>
    </contour>
    <contour>
      <point x="1257" y="694" type="curve" smooth="yes"/>
      <point x="1257" y="483"/>
      <point x="1174" y="63"/>
      <point x="915" y="63" type="curve" smooth="yes"/>
      <point x="788" y="63"/>
      <point x="743" y="158"/>
      <point x="743" y="295" type="curve" smooth="yes"/>
      <point x="743" y="506"/>
      <point x="827" y="924"/>
      <point x="1085" y="924" type="curve" smooth="yes"/>
      <point x="1212" y="924"/>
      <point x="1257" y="829"/>
    </contour>
    <contour>
      <point x="850" y="1100" type="move" name="U"/>
    </contour>
    <contour>
      <point x="606" y="-100" type="move" name="L"/>
    </contour>
  </outline>
</glyph>
<glyph name="CySmNje" format="1">
  <advance width="1436"/>
  <unicode hex="045A"/>
  <outline>
    <contour>
      <point x="1370" y="354" type="curve" smooth="yes" name="hr01"/>
      <point x="1370" y="530"/>
      <point x="1227" y="623"/>
      <point x="1018" y="623" type="curve" smooth="yes" name="hr02"/>
      <point x="983" y="623"/>
      <point x="930" y="604"/>
      <point x="895" y="588" type="curve"/>
      <point x="979" y="1012" type="line"/>
      <point x="895" y="1012" type="line"/>
      <point x="586" y="948" type="line"/>
      <point x="586" y="889" type="line"/>
      <point x="762" y="870" type="line"/>
      <point x="698" y="551" type="line" name="hr03"/>
      <point x="344" y="551" type="line"/>
      <point x="430" y="1012" type="line"/>
      <point x="348" y="1012" type="line"/>
      <point x="39" y="948" type="line"/>
      <point x="39" y="889" type="line"/>
      <point x="213" y="870" type="line"/>
      <point x="49" y="0" type="line"/>
      <point x="240" y="0" type="line"/>
      <point x="326" y="453" type="line"/>
      <point x="680" y="453" type="line"/>
      <point x="674" y="422"/>
      <point x="639" y="283"/>
      <point x="639" y="213" type="curve" smooth="yes"/>
      <point x="639" y="49"/>
      <point x="813" y="-25"/>
      <point x="944" y="-25" type="curve" smooth="yes" name="hr04"/>
      <point x="1151" y="-25"/>
      <point x="1370" y="84"/>
    </contour>
    <contour>
      <point x="1174" y="358" type="curve" smooth="yes" name="hr05"/>
      <point x="1174" y="193"/>
      <point x="1092" y="59"/>
      <point x="987" y="59" type="curve" smooth="yes"/>
      <point x="932" y="59"/>
      <point x="827" y="88"/>
      <point x="827" y="209" type="curve" smooth="yes"/>
      <point x="827" y="244"/>
      <point x="860" y="401"/>
      <point x="879" y="498" type="curve"/>
      <point x="901" y="512"/>
      <point x="965" y="535"/>
      <point x="991" y="535" type="curve" smooth="yes"/>
      <point x="1130" y="535"/>
      <point x="1174" y="477"/>
    </contour>
    <contour>
      <point x="801" y="1100" type="move" name="U"/>
    </contour>
    <contour>
      <point x="557" y="-100" type="move" name="L"/>
    </contour>
  </outline>
</glyph>
<glyph name="CySmDzhe" format="1">
  <advance width="1079"/>
  <unicode hex="045F"/>
  <outline>
    <contour>
      <point x="573" y="0" type="line" name="hr00"/>
      <point x="506" y="-61"/>
      <point x="447" y="-127"/>
      <point x="447" y="-145" type="curve" smooth="yes"/>
      <point x="447" y="-176"/>
      <point x="482" y="-233"/>
      <point x="482" y="-268" type="curve" smooth="yes"/>
      <point x="482" y="-303"/>
      <point x="412" y="-354"/>
      <point x="412" y="-354" type="curve"/>
      <point x="433" y="-399" type="line"/>
      <point x="433" y="-399"/>
      <point x="621" y="-291"/>
      <point x="621" y="-246" type="curve" smooth="yes"/>
      <point x="621" y="-162"/>
      <point x="576" y="-145"/>
      <point x="576" y="-121" type="curve" smooth="yes"/>
      <point x="576" y="-108"/>
      <point x="590" y="-63"/>
      <point x="632" y="0" type="curve"/>
    </contour>
    <contour>
      <point x="686" y="1100" type="move" name="U"/>
    </contour>
    <contour>
      <point x="366" y="-500" type="move" name="L"/>
    </contour>
    <component base="CySmI"/>
  </outline>
</glyph>
<glyph name="CyCapFita" format="1">
  <advance width="1454"/>
  <unicode hex="0472"/>
  <outline>
    <contour>
      <point x="1415" y="854" type="curve" smooth="yes" name="hr01"/>
      <point x="1415" y="1159"/>
      <point x="1200" y="1407"/>
      <point x="860" y="1407" type="curve" smooth="yes"/>
      <point x="410" y="1407"/>
      <point x="98" y="977"/>
      <point x="98" y="537" type="curve" smooth="yes"/>
      <point x="98" y="193"/>
      <point x="328" y="-33"/>
      <point x="655" y="-33" type="curve" smooth="yes"/>
      <point x="1137" y="-33"/>
      <point x="1415" y="422"/>
    </contour>
    <contour>
      <point x="1182" y="854" type="curve" smooth="yes"/>
      <point x="1182" y="846"/>
      <point x="1182" y="834"/>
      <point x="1182" y="823" type="curve"/>
      <point x="1128" y="764"/>
      <point x="1055" y="680"/>
      <point x="958" y="680" type="curve" smooth="yes"/>
      <point x="844" y="680"/>
      <point x="733" y="836"/>
      <point x="594" y="836" type="curve" smooth="yes" name="hr02"/>
      <point x="487" y="836"/>
      <point x="395" y="776"/>
      <point x="354" y="745" type="curve"/>
      <point x="420" y="1036"/>
      <point x="602" y="1305"/>
      <point x="842" y="1305" type="curve" smooth="yes"/>
      <point x="1038" y="1305"/>
      <point x="1182" y="1126"/>
    </contour>
    <contour>
      <point x="1161" y="662" type="curve"/>
      <point x="1102" y="362"/>
      <point x="913" y="74"/>
      <point x="670" y="74" type="curve" smooth="yes"/>
      <point x="479" y="74"/>
      <point x="330" y="244"/>
      <point x="330" y="520" type="curve" smooth="yes"/>
      <point x="330" y="543"/>
      <point x="330" y="563"/>
      <point x="332" y="586" type="curve" name="hr04"/>
      <point x="373" y="633"/>
      <point x="444" y="686"/>
      <point x="530" y="686" type="curve" smooth="yes"/>
      <point x="674" y="686"/>
      <point x="774" y="528"/>
      <point x="920" y="528" type="curve" smooth="yes"/>
      <point x="1032" y="528"/>
      <point x="1100" y="592"/>
    </contour>
    <contour>
      <point x="893" y="1500" type="move" name="U"/>
    </contour>
    <contour>
      <point x="605" y="-100" type="move" name="L"/>
    </contour>
  </outline>
</glyph>
<glyph name="CySmShortITail" format="1">
  <advance width="1079"/>
  <unicode hex="048B"/>
  <outline>
    <contour>
      <point x="922" y="46" type="line" name="hr00"/>
      <point x="922" y="0" type="line"/>
      <point x="701" y="-310" type="line"/>
      <point x="701" y="-310"/>
      <point x="821" y="-311"/>
      <point x="821" y="-310" type="curve" smooth="yes"/>
      <point x="821" y="-309"/>
      <point x="1073" y="49"/>
      <point x="1073" y="49" type="curve"/>
      <point x="1042" y="86" type="line"/>
    </contour>
    <contour>
      <point x="730" y="1500" type="move" name="U"/>
    </contour>
    <contour>
      <point x="442" y="-100" type="move" name="L"/>
    </contour>
    <component base="CySmI"/>
    <component base="CombBreve.CyShortMrkAlt" xOffset="1036"/>
  </outline>
</glyph>
<glyph name="CyCapSemisoftSgn" format="1">
  <advance width="1163"/>
  <unicode hex="048C"/>
  <outline>
    <contour>
      <point x="1096" y="510" type="curve" smooth="yes" name="hr01"/>
      <point x="1096" y="737"/>
      <point x="907" y="858"/>
      <point x="639" y="858" type="curve" smooth="yes"/>
      <point x="580" y="858"/>
      <point x="487" y="848"/>
      <point x="487" y="848" type="curve"/>
      <point x="619" y="1516" type="line" name="hr02"/>
      <point x="412" y="1516" type="line"/>
      <point x="139" y="139" type="line"/>
      <point x="137" y="123"/>
      <point x="117" y="98"/>
      <point x="88" y="96" type="curve" smooth="yes"/>
      <point x="-55" y="88" type="line"/>
      <point x="-55" y="0" type="line" name="hr03"/>
      <point x="434" y="0" type="line" smooth="yes"/>
      <point x="784" y="0"/>
      <point x="1096" y="106"/>
    </contour>
    <contour>
      <point x="868" y="532" type="curve" smooth="yes"/>
      <point x="868" y="250"/>
      <point x="743" y="98"/>
      <point x="442" y="98" type="curve" smooth="yes"/>
      <point x="391" y="98"/>
      <point x="340" y="102"/>
      <point x="340" y="102" type="curve"/>
      <point x="467" y="750" type="line"/>
      <point x="467" y="750"/>
      <point x="557" y="760"/>
      <point x="600" y="760" type="curve" smooth="yes"/>
      <point x="782" y="760"/>
      <point x="868" y="688"/>
    </contour>
    <contour>
      <point x="175" y="1271" type="line"/>
      <point x="786" y="1271" type="line"/>
      <point x="786" y="1374" type="line"/>
      <point x="175" y="1374" type="line"/>
    </contour>
    <contour>
      <point x="758" y="1540" type="move" name="U"/>
    </contour>
    <contour>
      <point x="442" y="-100" type="move" name="L"/>
    </contour>
  </outline>
</glyph>
<glyph name="CySmEnDesc" format="1">
  <advance width="1137"/>
  <unicode hex="04A3"/>
  <outline>
    <contour>
      <point x="1133" y="59" type="curve" name="hr01"/>
      <point x="1133" y="137" type="line"/>
      <point x="1106" y="129"/>
      <point x="1012" y="88"/>
      <point x="965" y="88" type="curve" smooth="yes"/>
      <point x="909" y="88"/>
      <point x="872" y="137"/>
      <point x="885" y="193" type="curve"/>
      <point x="1034" y="987" type="line"/>
      <point x="846" y="987" type="line"/>
      <point x="762" y="551" type="line"/>
      <point x="344" y="551" type="line"/>
      <point x="430" y="1012" type="line" name="hr02"/>
      <point x="348" y="1012" type="line"/>
      <point x="39" y="948" type="line"/>
      <point x="39" y="889" type="line"/>
      <point x="213" y="870" type="line"/>
      <point x="49" y="0" type="line"/>
      <point x="240" y="0" type="line"/>
      <point x="326" y="453" type="line"/>
      <point x="743" y="453" type="line"/>
      <point x="690" y="176" type="line" smooth="yes"/>
      <point x="674" y="90"/>
      <point x="690" y="-4"/>
      <point x="795" y="-20" type="curve" name="hr03"/>
      <point x="758" y="-53"/>
      <point x="694" y="-123"/>
      <point x="694" y="-145" type="curve" smooth="yes" name="hr04"/>
      <point x="694" y="-176"/>
      <point x="729" y="-233"/>
      <point x="729" y="-268" type="curve" smooth="yes" name="hr05"/>
      <point x="729" y="-303"/>
      <point x="659" y="-354"/>
      <point x="659" y="-354" type="curve"/>
      <point x="680" y="-399" type="line"/>
      <point x="680" y="-399"/>
      <point x="868" y="-291"/>
      <point x="868" y="-246" type="curve" smooth="yes"/>
      <point x="868" y="-162"/>
      <point x="823" y="-145"/>
      <point x="823" y="-121" type="curve" smooth="yes" name="hr06"/>
      <point x="823" y="-104"/>
      <point x="850" y="-49"/>
      <point x="862" y="-23" type="curve"/>
      <point x="971" y="-12"/>
      <point x="1104" y="47"/>
    </contour>
    <contour>
      <point x="708" y="1100" type="move" name="U"/>
    </contour>
    <contour>
      <point x="464" y="-100" type="move" name="L"/>
    </contour>
  </outline>
</glyph>
<glyph name="CySmLigEnGhe" format="1">
  <advance width="1299"/>
  <unicode hex="04A5"/>
  <outline>
    <contour>
      <point x="1133" y="59" type="curve" name="hr01"/>
      <point x="1133" y="137" type="line"/>
      <point x="1106" y="129"/>
      <point x="1012" y="88"/>
      <point x="965" y="88" type="curve" smooth="yes"/>
      <point x="909" y="88"/>
      <point x="872" y="137"/>
      <point x="885" y="193" type="curve"/>
      <point x="1034" y="987" type="line"/>
      <point x="846" y="987" type="line"/>
      <point x="762" y="551" type="line"/>
      <point x="344" y="551" type="line"/>
      <point x="430" y="1012" type="line" name="hr02"/>
      <point x="348" y="1012" type="line"/>
      <point x="39" y="948" type="line" name="hr03"/>
      <point x="39" y="889" type="line"/>
      <point x="213" y="870" type="line"/>
      <point x="49" y="0" type="line"/>
      <point x="240" y="0" type="line"/>
      <point x="326" y="453" type="line"/>
      <point x="743" y="453" type="line"/>
      <point x="690" y="176" type="line"/>
      <point x="674" y="82"/>
      <point x="692" y="-25"/>
      <point x="831" y="-25" type="curve" smooth="yes" name="hr04"/>
      <point x="944" y="-25"/>
      <point x="1100" y="45"/>
    </contour>
    <contour>
      <point x="865" y="987" type="line"/>
      <point x="850" y="889" type="line"/>
      <point x="1144" y="889" type="line" smooth="yes"/>
      <point x="1155" y="889"/>
      <point x="1172" y="879"/>
      <point x="1170" y="864" type="curve"/>
      <point x="1167" y="718" type="line"/>
      <point x="1244" y="718" type="line"/>
      <point x="1299" y="987" type="line"/>
    </contour>
    <contour>
      <point x="708" y="1100" type="move" name="U"/>
    </contour>
    <contour>
      <point x="464" y="-100" type="move" name="L"/>
    </contour>
  </outline>
</glyph>
<glyph name="CyCapPeMiddleHook" format="1">
  <advance width="1995"/>
  <unicode hex="04A6"/>
  <outline>
    <contour>
      <point x="1317" y="1235" type="line" name="hr01"/>
      <point x="1319" y="1251"/>
      <point x="1340" y="1274"/>
      <point x="1368" y="1278" type="curve"/>
      <point x="1489" y="1286" type="line"/>
      <point x="1489" y="1374" type="line" name="hr02"/>
      <point x="213" y="1374" type="line"/>
      <point x="213" y="1286" type="line" name="hr03"/>
      <point x="319" y="1278" type="line"/>
      <point x="348" y="1274"/>
      <point x="356" y="1251"/>
      <point x="352" y="1235" type="curve"/>
      <point x="137" y="139" type="line"/>
      <point x="133" y="123"/>
      <point x="115" y="98"/>
      <point x="86" y="96" type="curve" smooth="yes"/>
      <point x="-43" y="88" type="line"/>
      <point x="-43" y="0" type="line"/>
      <point x="487" y="0" type="line"/>
      <point x="487" y="88" type="line"/>
      <point x="379" y="96" type="line" smooth="yes"/>
      <point x="350" y="98"/>
      <point x="340" y="123"/>
      <point x="344" y="139" type="curve"/>
      <point x="559" y="1227" type="line" smooth="yes" name="hr04"/>
      <point x="563" y="1245"/>
      <point x="582" y="1270"/>
      <point x="610" y="1270" type="curve" smooth="yes"/>
      <point x="1073" y="1270" type="line" smooth="yes"/>
      <point x="1102" y="1270"/>
      <point x="1112" y="1245"/>
      <point x="1108" y="1227" type="curve" smooth="yes"/>
      <point x="893" y="139" type="line"/>
      <point x="889" y="123"/>
      <point x="871" y="98"/>
      <point x="842" y="96" type="curve" smooth="yes"/>
      <point x="703" y="88" type="line"/>
      <point x="703" y="0" type="line"/>
      <point x="1233" y="0" type="line"/>
      <point x="1233" y="88" type="line"/>
      <point x="1135" y="96" type="line"/>
      <point x="1106" y="100"/>
      <point x="1096" y="123"/>
      <point x="1100" y="139" type="curve"/>
      <point x="1220" y="746" type="line"/>
      <point x="1220" y="746"/>
      <point x="1280" y="760"/>
      <point x="1363" y="760" type="curve" smooth="yes"/>
      <point x="1616" y="760"/>
      <point x="1668" y="518"/>
      <point x="1610" y="182" type="curve" smooth="yes"/>
      <point x="1535" y="-248"/>
      <point x="1219" y="-381"/>
      <point x="905" y="-265" type="curve"/>
      <point x="905" y="-270"/>
      <point x="899" y="-353"/>
      <point x="899" y="-353" type="curve"/>
      <point x="1161" y="-467"/>
      <point x="1710" y="-433"/>
      <point x="1837" y="236" type="curve" smooth="yes"/>
      <point x="1890" y="511"/>
      <point x="1842" y="858"/>
      <point x="1402" y="858" type="curve" smooth="yes"/>
      <point x="1310" y="858"/>
      <point x="1240" y="844"/>
      <point x="1240" y="844" type="curve"/>
    </contour>
    <contour>
      <point x="1192" y="1500" type="move" name="U"/>
    </contour>
    <contour>
      <point x="867" y="-100" type="move" name="L"/>
    </contour>
  </outline>
</glyph>
<glyph name="CyCapElTail" format="1">
  <advance width="1427"/>
  <unicode hex="04C5"/>
  <outline>
    <contour>
      <point x="1522" y="1286" type="line" name="hr01"/>
      <point x="1522" y="1374" type="line" name="hr02"/>
      <point x="430" y="1374" type="line"/>
      <point x="430" y="1286" type="line" name="hr03"/>
      <point x="485" y="1286"/>
      <point x="561" y="1278"/>
      <point x="561" y="1278" type="curve"/>
      <point x="590" y="1276"/>
      <point x="602" y="1251"/>
      <point x="598" y="1235" type="curve" smooth="yes"/>
      <point x="526" y="864"/>
      <point x="399" y="422"/>
      <point x="317" y="287" type="curve" smooth="yes"/>
      <point x="276" y="221"/>
      <point x="209" y="135"/>
      <point x="170" y="135" type="curve"/>
      <point x="-4" y="203" type="line"/>
      <point x="-66" y="203"/>
      <point x="-129" y="156"/>
      <point x="-129" y="92" type="curve" smooth="yes"/>
      <point x="-129" y="23"/>
      <point x="-86" y="-33"/>
      <point x="-16" y="-33" type="curve" smooth="yes"/>
      <point x="143" y="-33"/>
      <point x="283" y="27"/>
      <point x="412" y="221" type="curve" smooth="yes"/>
      <point x="504" y="358"/>
      <point x="621" y="727"/>
      <point x="727" y="1270" type="curve" name="hr04"/>
      <point x="1135" y="1270" type="line"/>
      <point x="911" y="139" type="line" smooth="yes"/>
      <point x="907" y="123"/>
      <point x="889" y="98"/>
      <point x="858" y="96" type="curve" smooth="yes"/>
      <point x="717" y="88" type="line"/>
      <point x="717" y="0" type="line" name="hr05"/>
      <point x="1276" y="0" type="line"/>
      <point x="1276" y="88" type="line" name="hr06"/>
      <point x="1151" y="96" type="line" smooth="yes"/>
      <point x="1124" y="98"/>
      <point x="1114" y="123"/>
      <point x="1118" y="139" type="curve" smooth="yes"/>
      <point x="1333" y="1235" type="line" smooth="yes"/>
      <point x="1337" y="1251"/>
      <point x="1358" y="1276"/>
      <point x="1386" y="1278" type="curve" smooth="yes"/>
    </contour>
    <contour>
      <point x="1146" y="86" type="line" name="hr07"/>
      <point x="1146" y="0" type="line"/>
      <point x="915" y="-340" type="line"/>
      <point x="915" y="-340"/>
      <point x="1045" y="-341"/>
      <point x="1045" y="-340" type="curve" smooth="yes"/>
      <point x="1045" y="-339"/>
      <point x="1276" y="0"/>
      <point x="1276" y="0" type="curve"/>
      <point x="1276" y="86" type="line"/>
    </contour>
    <contour>
      <point x="1000" y="1500" type="move" name="U"/>
    </contour>
    <contour>
      <point x="495" y="-360" type="move" name="L"/>
    </contour>
  </outline>
</glyph>
<glyph name="CySmKomiDzje" format="1">
  <advance width="990"/>
  <unicode hex="0507"/>
  <outline>
    <contour>
      <point x="560" y="109" type="line" name="hr01"/>
      <point x="538" y="-2"/>
      <point x="660" y="-25"/>
      <point x="710" y="-25" type="curve" smooth="yes"/>
      <point x="796" y="-25"/>
      <point x="949" y="39"/>
      <point x="984" y="51" type="curve"/>
      <point x="982" y="123" type="line"/>
      <point x="935" y="109"/>
      <point x="890" y="84"/>
      <point x="853" y="84" type="curve" smooth="yes"/>
      <point x="828" y="84"/>
      <point x="751" y="106"/>
      <point x="767" y="184" type="curve" smooth="yes"/>
      <point x="787" y="284" type="line" smooth="yes"/>
      <point x="820" y="448"/>
      <point x="678" y="512"/>
      <point x="561" y="518" type="curve"/>
      <point x="700" y="553"/>
      <point x="844" y="643"/>
      <point x="844" y="803" type="curve" smooth="yes" name="hr02"/>
      <point x="844" y="958"/>
      <point x="655" y="1012"/>
      <point x="528" y="1012" type="curve" smooth="yes"/>
      <point x="397" y="1012"/>
      <point x="287" y="987"/>
      <point x="166" y="938" type="curve"/>
      <point x="121" y="715" type="line"/>
      <point x="219" y="715" type="line"/>
      <point x="266" y="834" type="line" smooth="yes"/>
      <point x="289" y="889"/>
      <point x="424" y="922"/>
      <point x="473" y="922" type="curve" smooth="yes"/>
      <point x="561" y="922"/>
      <point x="645" y="891"/>
      <point x="645" y="788" type="curve" smooth="yes"/>
      <point x="645" y="631"/>
      <point x="522" y="551"/>
      <point x="379" y="557" type="curve" smooth="yes"/>
      <point x="338" y="559" type="line"/>
      <point x="317" y="453" type="line"/>
      <point x="342" y="459"/>
      <point x="373" y="461"/>
      <point x="406" y="461" type="curve" smooth="yes"/>
      <point x="498" y="461"/>
      <point x="625" y="420"/>
      <point x="596" y="281" type="curve" smooth="yes" name="hr03"/>
    </contour>
    <contour>
      <point x="742" y="-18" type="curve" name="hr04"/>
      <point x="721" y="-12"/>
      <point x="703" y="-11"/>
      <point x="677" y="-18" type="curve"/>
      <point x="640" y="-49"/>
      <point x="572" y="-123"/>
      <point x="572" y="-145" type="curve" smooth="yes"/>
      <point x="572" y="-176"/>
      <point x="607" y="-233"/>
      <point x="607" y="-268" type="curve" smooth="yes" name="hr05"/>
      <point x="607" y="-303"/>
      <point x="537" y="-354"/>
      <point x="537" y="-354" type="curve"/>
      <point x="558" y="-399" type="line"/>
      <point x="558" y="-399"/>
      <point x="746" y="-291"/>
      <point x="746" y="-246" type="curve" smooth="yes"/>
      <point x="746" y="-162"/>
      <point x="701" y="-145"/>
      <point x="701" y="-121" type="curve" smooth="yes" name="hr06"/>
      <point x="701" y="-104"/>
      <point x="732" y="-41"/>
    </contour>
    <contour>
      <point x="599" y="1100" type="move" name="U"/>
    </contour>
    <contour>
      <point x="355" y="-100" type="move" name="L"/>
    </contour>
  </outline>
</glyph>
<glyph name="CyCapLha" format="1">
  <advance width="1966"/>
  <unicode hex="0514"/>
  <outline>
    <contour>
      <point x="2059" y="1288" type="line" name="hr01"/>
      <point x="2059" y="1374" type="line" name="hr02"/>
      <point x="1596" y="1374" type="line"/>
      <point x="1596" y="1288" type="line" name="hr03"/>
      <point x="1694" y="1280" type="line"/>
      <point x="1729" y="1278"/>
      <point x="1727" y="1255"/>
      <point x="1712" y="1239" type="curve"/>
      <point x="1377" y="856" type="line"/>
      <point x="1209" y="1239" type="line" smooth="yes"/>
      <point x="1200" y="1260"/>
      <point x="1217" y="1278"/>
      <point x="1239" y="1280" type="curve"/>
      <point x="1372" y="1288" type="line"/>
      <point x="1372" y="1374" type="line" name="hr04"/>
      <point x="430" y="1374" type="line"/>
      <point x="430" y="1286" type="line" name="hr05"/>
      <point x="485" y="1286"/>
      <point x="561" y="1278"/>
      <point x="561" y="1278" type="curve"/>
      <point x="590" y="1276"/>
      <point x="602" y="1251"/>
      <point x="598" y="1235" type="curve"/>
      <point x="526" y="864"/>
      <point x="399" y="422"/>
      <point x="317" y="287" type="curve" smooth="yes"/>
      <point x="276" y="221"/>
      <point x="209" y="135"/>
      <point x="170" y="135" type="curve"/>
      <point x="-4" y="203" type="line"/>
      <point x="-66" y="203"/>
      <point x="-129" y="156"/>
      <point x="-129" y="92" type="curve" smooth="yes"/>
      <point x="-129" y="23"/>
      <point x="-86" y="-33"/>
      <point x="-16" y="-33" type="curve" smooth="yes"/>
      <point x="143" y="-33"/>
      <point x="283" y="27"/>
      <point x="412" y="221" type="curve" smooth="yes"/>
      <point x="504" y="358"/>
      <point x="621" y="727"/>
      <point x="727" y="1270" type="curve" name="hr06"/>
      <point x="978" y="1270" type="line"/>
      <point x="983" y="1265"/>
      <point x="987" y="1258"/>
      <point x="992" y="1249" type="curve"/>
      <point x="1237" y="696" type="line"/>
      <point x="727" y="125" type="line" smooth="yes"/>
      <point x="719" y="115"/>
      <point x="701" y="96"/>
      <point x="678" y="94" type="curve" smooth="yes"/>
      <point x="580" y="86" type="line"/>
      <point x="580" y="0" type="line" name="hr07"/>
      <point x="1057" y="0" type="line"/>
      <point x="1057" y="86" type="line" name="hr08"/>
      <point x="934" y="94" type="line" smooth="yes"/>
      <point x="899" y="96"/>
      <point x="899" y="119"/>
      <point x="916" y="135" type="curve"/>
      <point x="1303" y="565" type="line"/>
      <point x="1487" y="135" type="line"/>
      <point x="1497" y="115"/>
      <point x="1481" y="96"/>
      <point x="1458" y="94" type="curve" smooth="yes"/>
      <point x="1327" y="86" type="line"/>
      <point x="1327" y="0" type="line" name="hr09"/>
      <point x="1856" y="0" type="line"/>
      <point x="1856" y="86" type="line" name="hr10"/>
      <point x="1745" y="94" type="line"/>
      <point x="1731" y="96"/>
      <point x="1717" y="100"/>
      <point x="1704" y="125" type="curve"/>
      <point x="1436" y="737" type="line"/>
      <point x="1887" y="1249" type="line"/>
      <point x="1895" y="1260"/>
      <point x="1915" y="1278"/>
      <point x="1936" y="1280" type="curve"/>
    </contour>
    <contour>
      <point x="1303" y="1500" type="move" name="U"/>
    </contour>
    <contour>
      <point x="906" y="-100" type="move" name="L"/>
    </contour>
  </outline>
</glyph>
<glyph name="CyCapYae" format="1">
  <advance width="1787"/>
  <unicode hex="0518"/>
  <outline>
    <contour>
      <point x="1832" y="1374" type="line" name="hr01"/>
      <point x="860" y="1374" type="line" smooth="yes"/>
      <point x="569" y="1374"/>
      <point x="244" y="1272"/>
      <point x="244" y="954" type="curve" smooth="yes"/>
      <point x="244" y="800"/>
      <point x="382" y="735"/>
      <point x="542" y="696" type="curve"/>
      <point x="187" y="618"/>
      <point x="266" y="287"/>
      <point x="86" y="129" type="curve" name="hr02"/>
      <point x="20" y="74"/>
      <point x="-86" y="88"/>
      <point x="-86" y="88" type="curve"/>
      <point x="-86" y="2" type="line"/>
      <point x="-86" y="2"/>
      <point x="-43" y="-16"/>
      <point x="18" y="-16" type="curve" smooth="yes"/>
      <point x="41" y="-16"/>
      <point x="168" y="-16"/>
      <point x="238" y="51" type="curve"/>
      <point x="465" y="264"/>
      <point x="395" y="639"/>
      <point x="772" y="639" type="curve" smooth="yes"/>
      <point x="829" y="639"/>
      <point x="878" y="639"/>
      <point x="878" y="639" type="curve"/>
      <point x="780" y="139" type="line" name="hr03"/>
      <point x="778" y="123"/>
      <point x="758" y="98"/>
      <point x="729" y="96" type="curve" smooth="yes"/>
      <point x="600" y="88" type="line"/>
      <point x="600" y="0" type="line" name="hr04"/>
      <point x="1637" y="0" type="line"/>
      <point x="1705" y="340" type="line" name="hr05"/>
      <point x="1580" y="340" type="line"/>
      <point x="1516" y="143" type="line" smooth="yes" name="hr06"/>
      <point x="1508" y="119"/>
      <point x="1494" y="102"/>
      <point x="1465" y="102" type="curve" smooth="yes"/>
      <point x="980" y="102" type="line"/>
      <point x="1086" y="639" type="line"/>
      <point x="1367" y="639" type="line" smooth="yes"/>
      <point x="1396" y="639"/>
      <point x="1410" y="624"/>
      <point x="1406" y="598" type="curve" smooth="yes"/>
      <point x="1385" y="452" type="line"/>
      <point x="1502" y="452" type="line"/>
      <point x="1592" y="921" type="line"/>
      <point x="1478" y="921" type="line"/>
      <point x="1439" y="784" type="line" smooth="yes"/>
      <point x="1430" y="755"/>
      <point x="1416" y="745"/>
      <point x="1387" y="745" type="curve" smooth="yes"/>
      <point x="1109" y="745" type="line"/>
      <point x="1210" y="1272" type="line"/>
      <point x="1600" y="1272" type="line" smooth="yes"/>
      <point x="1631" y="1272"/>
      <point x="1639" y="1262"/>
      <point x="1639" y="1233" type="curve" smooth="yes"/>
      <point x="1639" y="1067" type="line"/>
      <point x="1770" y="1067" type="line"/>
    </contour>
    <contour>
      <point x="1006" y="1276" type="line" name="hr07"/>
      <point x="899" y="745" type="line"/>
      <point x="899" y="745"/>
      <point x="827" y="745"/>
      <point x="784" y="745" type="curve" smooth="yes"/>
      <point x="579" y="745"/>
      <point x="465" y="784"/>
      <point x="465" y="919" type="curve" smooth="yes"/>
      <point x="465" y="1169"/>
      <point x="641" y="1276"/>
      <point x="901" y="1276" type="curve" smooth="yes"/>
    </contour>
    <contour>
      <point x="1151" y="1500" type="move" name="U"/>
    </contour>
    <contour>
      <point x="829" y="-100" type="move" name="L"/>
    </contour>
  </outline>
</glyph>
<glyph name="CySmElMiddleHook" format="1">
  <advance width="1509"/>
  <unicode hex="0521"/>
  <outline>
    <contour>
      <point x="836" y="0" type="line" name="hr01"/>
      <point x="933" y="515" type="line"/>
      <point x="970" y="520"/>
      <point x="1017" y="526"/>
      <point x="1040" y="526" type="curve" smooth="yes"/>
      <point x="1219" y="526"/>
      <point x="1261" y="308"/>
      <point x="1217" y="89" type="curve" smooth="yes"/>
      <point x="1155" y="-215"/>
      <point x="978" y="-325"/>
      <point x="801" y="-325" type="curve" smooth="yes"/>
      <point x="771" y="-325"/>
      <point x="710" y="-319"/>
      <point x="666" y="-307" type="curve"/>
      <point x="668" y="-380" type="line"/>
      <point x="732" y="-397"/>
      <point x="789" y="-410"/>
      <point x="853" y="-410" type="curve" smooth="yes"/>
      <point x="1083" y="-410"/>
      <point x="1343" y="-245"/>
      <point x="1422" y="139" type="curve" smooth="yes"/>
      <point x="1474" y="394"/>
      <point x="1335" y="617"/>
      <point x="1075" y="617" type="curve" smooth="yes"/>
      <point x="1043" y="617"/>
      <point x="990" y="611"/>
      <point x="950" y="606" type="curve"/>
      <point x="1001" y="870" type="line" smooth="yes" name="hr02"/>
      <point x="1004" y="884"/>
      <point x="1018" y="900"/>
      <point x="1042" y="901" type="curve" smooth="yes"/>
      <point x="1151" y="907" type="line"/>
      <point x="1151" y="987" type="line" name="hr03"/>
      <point x="301" y="987" type="line"/>
      <point x="301" y="907" type="line" name="hr04"/>
      <point x="399" y="901" type="line" smooth="yes"/>
      <point x="422" y="899"/>
      <point x="430" y="883"/>
      <point x="426" y="870" type="curve"/>
      <point x="375" y="606"/>
      <point x="291" y="301"/>
      <point x="225" y="205" type="curve"/>
      <point x="205" y="172"/>
      <point x="172" y="121"/>
      <point x="143" y="121" type="curve"/>
      <point x="6" y="195" type="line"/>
      <point x="-66" y="195"/>
      <point x="-121" y="137"/>
      <point x="-121" y="78" type="curve" smooth="yes"/>
      <point x="-121" y="0"/>
      <point x="-86" y="-25"/>
      <point x="-31" y="-25" type="curve" smooth="yes"/>
      <point x="47" y="-25"/>
      <point x="182" y="-8"/>
      <point x="287" y="129" type="curve"/>
      <point x="371" y="236"/>
      <point x="459" y="498"/>
      <point x="537" y="887" type="curve" name="hr05"/>
      <point x="815" y="887" type="line"/>
      <point x="640" y="0" type="line"/>
    </contour>
    <contour>
      <point x="775" y="1100" type="move" name="U"/>
    </contour>
    <contour>
      <point x="484" y="-100" type="move" name="L"/>
    </contour>
  </outline>
</glyph>
<glyph name="CySmEnMiddleHook" format="1">
  <advance width="1489"/>
  <unicode hex="0523"/>
  <outline>
    <contour>
      <point x="815" y="987" type="line" name="hr01"/>
      <point x="731" y="551" type="line"/>
      <point x="344" y="551" type="line"/>
      <point x="430" y="1012" type="line" name="hr02"/>
      <point x="348" y="1012" type="line"/>
      <point x="39" y="948" type="line"/>
      <point x="39" y="889" type="line"/>
      <point x="213" y="870" type="line"/>
      <point x="49" y="0" type="line"/>
      <point x="240" y="0" type="line"/>
      <point x="326" y="453" type="line"/>
      <point x="712" y="453" type="line"/>
      <point x="620" y="0" type="line"/>
      <point x="816" y="0" type="line"/>
      <point x="1003" y="987" type="line" name="hr03"/>
    </contour>
    <contour>
      <point x="882" y="599" type="curve" smooth="yes"/>
      <point x="821" y="556"/>
      <point x="856" y="512"/>
      <point x="863" y="508" type="curve"/>
      <point x="863" y="508"/>
      <point x="980" y="526"/>
      <point x="1020" y="526" type="curve" smooth="yes"/>
      <point x="1199" y="526"/>
      <point x="1241" y="308"/>
      <point x="1197" y="89" type="curve" smooth="yes"/>
      <point x="1135" y="-215"/>
      <point x="958" y="-325"/>
      <point x="781" y="-325" type="curve" smooth="yes"/>
      <point x="751" y="-325"/>
      <point x="690" y="-319"/>
      <point x="646" y="-307" type="curve"/>
      <point x="648" y="-380" type="line"/>
      <point x="712" y="-397"/>
      <point x="769" y="-410"/>
      <point x="833" y="-410" type="curve" smooth="yes"/>
      <point x="1063" y="-410"/>
      <point x="1323" y="-245"/>
      <point x="1402" y="139" type="curve" smooth="yes"/>
      <point x="1454" y="394"/>
      <point x="1315" y="617"/>
      <point x="1055" y="617" type="curve" smooth="yes"/>
      <point x="1002" y="617"/>
      <point x="884" y="600"/>
    </contour>
    <contour>
      <point x="708" y="1100" type="move" name="U"/>
    </contour>
    <contour>
      <point x="464" y="-100" type="move" name="L"/>
    </contour>
  </outline>
</glyph>
<glyph name="LtnSmCapAe" format="1">
  <advance width="1508"/>
  <unicode hex="1D01"/>
  <outline>
    <contour>
      <point x="1358" y="0" type="line" name="hr01"/>
      <point x="1416" y="258" type="line"/>
      <point x="1299" y="258" type="line"/>
      <point x="1248" y="113" type="line" smooth="yes"/>
      <point x="1242" y="98"/>
      <point x="1234" y="90"/>
      <point x="1217" y="90" type="curve" smooth="yes"/>
      <point x="851" y="90" type="line"/>
      <point x="932" y="467" type="line" name="hr02"/>
      <point x="1137" y="467" type="line" smooth="yes"/>
      <point x="1158" y="467"/>
      <point x="1162" y="459"/>
      <point x="1162" y="449" type="curve"/>
      <point x="1143" y="336" type="line"/>
      <point x="1252" y="336" type="line"/>
      <point x="1328" y="686" type="line"/>
      <point x="1219" y="686" type="line"/>
      <point x="1186" y="582" type="line" smooth="yes"/>
      <point x="1180" y="565"/>
      <point x="1174" y="559"/>
      <point x="1156" y="559" type="curve" smooth="yes"/>
      <point x="951" y="559" type="line"/>
      <point x="1025" y="897" type="line"/>
      <point x="1322" y="897" type="line" smooth="yes"/>
      <point x="1340" y="897"/>
      <point x="1342" y="893"/>
      <point x="1342" y="879" type="curve" smooth="yes"/>
      <point x="1342" y="752" type="line" name="hr03"/>
      <point x="1463" y="752" type="line"/>
      <point x="1514" y="987" type="line" name="hr04"/>
      <point x="565" y="987" type="line"/>
      <point x="565" y="909" type="line" name="hr05"/>
      <point x="643" y="899" type="line"/>
      <point x="663" y="895"/>
      <point x="668" y="881"/>
      <point x="659" y="871" type="curve" smooth="yes"/>
      <point x="6" y="86" type="line" name="hr06"/>
      <point x="-86" y="78" type="line"/>
      <point x="-86" y="0" type="line" name="hr07"/>
      <point x="289" y="0" type="line"/>
      <point x="289" y="78" type="line" name="hr08"/>
      <point x="207" y="86" type="line" smooth="yes"/>
      <point x="184" y="88"/>
      <point x="182" y="102"/>
      <point x="188" y="115" type="curve"/>
      <point x="843" y="900" type="line"/>
      <point x="747" y="459" type="line"/>
      <point x="386" y="459" type="line"/>
      <point x="386" y="373" type="line"/>
      <point x="728" y="373" type="line"/>
      <point x="674" y="127" type="line"/>
      <point x="670" y="102"/>
      <point x="650" y="90"/>
      <point x="625" y="88" type="curve"/>
      <point x="539" y="78" type="line"/>
      <point x="539" y="0" type="line" name="hr09"/>
    </contour>
    <contour>
      <point x="848" y="1100" type="move" name="U"/>
    </contour>
    <contour>
      <point x="611" y="-100" type="move" name="L"/>
    </contour>
  </outline>
</glyph>
<glyph name="LtnSmCapO" format="1">
  <advance width="1186"/>
  <unicode hex="1D0F"/>
  <outline>
    <contour>
      <point x="1120" y="612" type="curve" smooth="yes" name="hr00"/>
      <point x="1120" y="834"/>
      <point x="946" y="1012"/>
      <point x="674" y="1012" type="curve" smooth="yes"/>
      <point x="315" y="1012"/>
      <point x="66" y="705"/>
      <point x="66" y="387" type="curve" smooth="yes"/>
      <point x="66" y="139"/>
      <point x="252" y="-25"/>
      <point x="512" y="-25" type="curve" smooth="yes"/>
      <point x="897" y="-25"/>
      <point x="1120" y="303"/>
    </contour>
    <contour>
      <point x="918" y="612" type="curve" smooth="yes"/>
      <point x="918" y="367"/>
      <point x="750" y="72"/>
      <point x="524" y="72" type="curve" smooth="yes"/>
      <point x="381" y="72"/>
      <point x="266" y="184"/>
      <point x="266" y="377" type="curve" smooth="yes"/>
      <point x="266" y="633"/>
      <point x="432" y="920"/>
      <point x="659" y="920" type="curve" smooth="yes"/>
      <point x="807" y="920"/>
      <point x="918" y="801"/>
    </contour>
    <contour>
      <point x="716" y="1100" type="move" name="U"/>
    </contour>
    <contour>
      <point x="472" y="-100" type="move" name="L"/>
    </contour>
  </outline>
</glyph>
<glyph name="LtnSmTopHalfO" format="1">
  <advance width="1036"/>
  <unicode hex="1D16"/>
  <outline>
    <contour>
      <point x="967" y="519" type="line" name="hr00"/>
      <point x="971" y="550"/>
      <point x="973" y="582"/>
      <point x="973" y="614" type="curve" smooth="yes"/>
      <point x="973" y="891"/>
      <point x="803" y="1012"/>
      <point x="606" y="1012" type="curve" smooth="yes"/>
      <point x="337" y="1012"/>
      <point x="137" y="788"/>
      <point x="80" y="520" type="curve"/>
      <point x="283" y="520" type="line"/>
      <point x="321" y="734"/>
      <point x="439" y="924"/>
      <point x="584" y="924" type="curve" smooth="yes"/>
      <point x="688" y="924"/>
      <point x="766" y="817"/>
      <point x="766" y="623" type="curve" smooth="yes"/>
      <point x="766" y="589"/>
      <point x="764" y="554"/>
      <point x="759" y="518" type="curve"/>
    </contour>
    <contour>
      <point x="642" y="1100" type="move" name="U"/>
    </contour>
    <contour>
      <point x="398" y="-100" type="move" name="L"/>
    </contour>
  </outline>
</glyph>
<glyph name="LtnSmSdwysDiaerU" format="1">
  <advance width="1525"/>
  <unicode hex="1D1E"/>
  <outline>
    <contour>
      <point x="1356" y="1020" type="curve" name="hr01"/>
      <point x="1284" y="1020" type="line"/>
      <point x="1317" y="963"/>
      <point x="1321" y="918"/>
      <point x="1321" y="891" type="curve" smooth="yes"/>
      <point x="1321" y="851"/>
      <point x="1297" y="798"/>
      <point x="1234" y="798" type="curve" smooth="yes"/>
      <point x="1225" y="798"/>
      <point x="1216" y="799"/>
      <point x="418" y="965" type="curve"/>
      <point x="418" y="774" type="line"/>
      <point x="1172" y="619" type="line"/>
      <point x="1243" y="541"/>
      <point x="1303" y="434"/>
      <point x="1303" y="336" type="curve" smooth="yes" name="hr02"/>
      <point x="1303" y="288"/>
      <point x="1254" y="228"/>
      <point x="1194" y="228" type="curve" smooth="yes"/>
      <point x="1164" y="228"/>
      <point x="1066" y="253"/>
      <point x="393" y="393" type="curve"/>
      <point x="393" y="309" type="line"/>
      <point x="457" y="0" type="line"/>
      <point x="516" y="0" type="line"/>
      <point x="535" y="172" type="line"/>
      <point x="1120" y="50"/>
      <point x="1184" y="33"/>
      <point x="1223" y="33" type="curve" smooth="yes"/>
      <point x="1324" y="33"/>
      <point x="1430" y="88"/>
      <point x="1430" y="248" type="curve" smooth="yes"/>
      <point x="1430" y="385"/>
      <point x="1378" y="502"/>
      <point x="1276" y="609" type="curve"/>
      <point x="1283" y="608"/>
      <point x="1295" y="608"/>
      <point x="1308" y="608" type="curve" smooth="yes"/>
      <point x="1355" y="608"/>
      <point x="1430" y="621"/>
      <point x="1430" y="742" type="curve" smooth="yes" name="hr03"/>
      <point x="1430" y="830"/>
      <point x="1385" y="969"/>
    </contour>
    <contour>
      <point x="222" y="885" type="curve" smooth="yes" name="hr04"/>
      <point x="161" y="885"/>
      <point x="110" y="836"/>
      <point x="110" y="774" type="curve" smooth="yes"/>
      <point x="110" y="717"/>
      <point x="165" y="662"/>
      <point x="222" y="662" type="curve" smooth="yes"/>
      <point x="284" y="662"/>
      <point x="337" y="713"/>
      <point x="337" y="774" type="curve" smooth="yes"/>
      <point x="337" y="836"/>
      <point x="284" y="885"/>
    </contour>
    <contour>
      <point x="222" y="521" type="curve" smooth="yes"/>
      <point x="161" y="521"/>
      <point x="110" y="470"/>
      <point x="110" y="408" type="curve" smooth="yes"/>
      <point x="110" y="349"/>
      <point x="165" y="298"/>
      <point x="224" y="298" type="curve" smooth="yes"/>
      <point x="284" y="298"/>
      <point x="337" y="349"/>
      <point x="337" y="408" type="curve" smooth="yes"/>
      <point x="337" y="470"/>
      <point x="284" y="521"/>
    </contour>
    <contour>
      <point x="648" y="-100" type="move" name="L"/>
    </contour>
    <contour>
      <point x="892" y="1100" type="move" name="U"/>
    </contour>
  </outline>
</glyph>
<glyph name="GrSmCapLamda" format="1">
  <advance width="1172"/>
  <unicode hex="1D27"/>
  <outline>
    <contour>
      <point x="1086" y="78" type="line" name="hr01"/>
      <point x="1002" y="86" type="line" smooth="yes"/>
      <point x="986" y="88"/>
      <point x="982" y="98"/>
      <point x="978" y="115" type="curve"/>
      <point x="773" y="989" type="line"/>
      <point x="632" y="989" type="line"/>
      <point x="6" y="86" type="line" name="hr02"/>
      <point x="-86" y="78" type="line"/>
      <point x="-86" y="0" type="line"/>
      <point x="279" y="0" type="line"/>
      <point x="279" y="78" type="line"/>
      <point x="197" y="86" type="line" smooth="yes"/>
      <point x="174" y="88"/>
      <point x="172" y="102"/>
      <point x="178" y="115" type="curve"/>
      <point x="634" y="783" type="line"/>
      <point x="791" y="115" type="line" smooth="yes"/>
      <point x="794" y="104"/>
      <point x="793" y="88"/>
      <point x="771" y="86" type="curve" smooth="yes"/>
      <point x="689" y="78" type="line"/>
      <point x="689" y="0" type="line"/>
      <point x="1086" y="0" type="line"/>
    </contour>
    <contour>
      <point x="717" y="1100" type="move" name="U"/>
    </contour>
    <contour>
      <point x="473" y="-100" type="move" name="L"/>
    </contour>
  </outline>
</glyph>
<glyph name="LtnSupSmA" format="1">
  <advance width="692"/>
  <unicode hex="1D43"/>
  <outline>
    <contour>
      <point x="791" y="817" type="curve" name="hr01"/>
      <point x="791" y="860" type="line"/>
      <point x="776" y="858"/>
      <point x="721" y="842"/>
      <point x="702" y="842" type="curve" smooth="yes"/>
      <point x="666" y="842"/>
      <point x="643" y="856"/>
      <point x="643" y="897" type="curve" smooth="yes"/>
      <point x="643" y="952"/>
      <point x="713" y="1241"/>
      <point x="729" y="1307" type="curve" smooth="yes"/>
      <point x="733" y="1319"/>
      <point x="750" y="1358"/>
      <point x="756" y="1376" type="curve"/>
      <point x="666" y="1376" type="line"/>
      <point x="645" y="1348" type="line" name="hr02"/>
      <point x="621" y="1368"/>
      <point x="575" y="1391"/>
      <point x="526" y="1391" type="curve" smooth="yes"/>
      <point x="276" y="1391"/>
      <point x="141" y="1180"/>
      <point x="141" y="989" type="curve" smooth="yes"/>
      <point x="141" y="901"/>
      <point x="178" y="770"/>
      <point x="336" y="770" type="curve" smooth="yes"/>
      <point x="416" y="770"/>
      <point x="483" y="817"/>
      <point x="524" y="854" type="curve"/>
      <point x="528" y="799"/>
      <point x="553" y="770"/>
      <point x="616" y="770" type="curve" smooth="yes" name="hr03"/>
      <point x="670" y="770"/>
      <point x="770" y="809"/>
    </contour>
    <contour>
      <point x="594" y="1266" type="curve" name="hr05"/>
      <point x="524" y="928" type="line"/>
      <point x="506" y="909"/>
      <point x="440" y="850"/>
      <point x="379" y="850" type="curve" smooth="yes"/>
      <point x="295" y="850"/>
      <point x="274" y="928"/>
      <point x="274" y="997" type="curve" smooth="yes"/>
      <point x="274" y="1133"/>
      <point x="342" y="1331"/>
      <point x="545" y="1331" type="curve" smooth="yes"/>
      <point x="561" y="1331"/>
      <point x="596" y="1274"/>
    </contour>
    <contour>
      <point x="557" y="1450" type="move" name="U"/>
    </contour>
    <contour>
      <point x="428" y="750" type="move" name="L"/>
    </contour>
  </outline>
</glyph>
<glyph name="LtnSupSmV" format="1">
  <advance width="616"/>
  <unicode hex="1D5B"/>
  <outline>
    <contour>
      <point x="750" y="1317" type="curve" smooth="yes" name="hr01"/>
      <point x="750" y="1362"/>
      <point x="725" y="1391"/>
      <point x="668" y="1391" type="curve" smooth="yes"/>
      <point x="635" y="1391"/>
      <point x="608" y="1380"/>
      <point x="592" y="1364" type="curve"/>
      <point x="616" y="1214" type="line"/>
      <point x="575" y="1118"/>
      <point x="514" y="1034"/>
      <point x="424" y="926" type="curve" name="hr02"/>
      <point x="383" y="1305" type="line"/>
      <point x="375" y="1362"/>
      <point x="346" y="1391"/>
      <point x="272" y="1391" type="curve"/>
      <point x="131" y="1352" type="line" name="hr03"/>
      <point x="131" y="1315" type="line" name="hr04"/>
      <point x="225" y="1311" type="line"/>
      <point x="240" y="1309"/>
      <point x="248" y="1303"/>
      <point x="256" y="1284" type="curve" smooth="yes"/>
      <point x="283" y="1219"/>
      <point x="311" y="872"/>
      <point x="311" y="862" type="curve" smooth="yes"/>
      <point x="311" y="836"/>
      <point x="303" y="805"/>
      <point x="285" y="770" type="curve"/>
      <point x="360" y="770" type="line"/>
      <point x="442" y="852"/>
      <point x="602" y="1024"/>
      <point x="721" y="1227" type="curve" smooth="yes"/>
      <point x="729" y="1241"/>
      <point x="750" y="1276"/>
    </contour>
    <contour>
      <point x="450" y="1450" type="move" name="U"/>
    </contour>
    <contour>
      <point x="319" y="725" type="move" name="L"/>
    </contour>
  </outline>
</glyph>
